<svg id="Layer_1" data-name="Layer 1" xmlns="http://www.w3.org/2000/svg" viewBox="0 0 803.92 586.25"><defs><style>.cls-1,.cls-2,.cls-6{fill:#9bb53e}.cls-2{opacity:.8}.cls-3{fill:#fff}.cls-4,.cls-6{opacity:.5}</style></defs><circle class="cls-1" cx="402.57" cy="272.68" r="181.57"/><path class="cls-1" d="M385.29 89.75c12.86 2.33 20.73.32 30.71-2.68a52.85 52.85 0 0 0 25.77-17.14c.86-1 1.61-2.08 2.4-3.14s1.48-2.18 2.13-3.33 1.28-2.31 1.91-3.48 1.15-2.39 1.62-3.63.93-2.48 1.37-3.74l1-3.73c.18-1.27.42-2.54.58-3.82l.11-1.93a13.93 13.93 0 0 0 .06-1.94 37 37 0 0 0-12.82-27.54 37.32 37.32 0 0 0-13.87-7.4 17 17 0 0 0-1.87-.46l-1.91-.31a27.34 27.34 0 0 0-7.73.31l-1.9.46c-.63.14-1.23.41-1.85.61a25.6 25.6 0 0 0-6.87 3.73 27.91 27.91 0 0 0-5.45 5.67 28.51 28.51 0 0 0-3.48 7.12 17.55 17.55 0 0 0-.62 7.66 18 18 0 0 0 2.71 7.28 18.23 18.23 0 0 0 5.63 5.46 17.28 17.28 0 0 0 3.58 1.7 11.92 11.92 0 0 0 3.81.73 12.93 12.93 0 0 0 3.85-.49A13.34 13.34 0 0 0 417.7 44a11.84 11.84 0 0 0 2.85-2.71 12.18 12.18 0 0 0 1.89-3.49 8.62 8.62 0 0 0 .5-3.83 9 9 0 0 0-1.25-3.69 8.59 8.59 0 0 0-2.76-2.8 7.66 7.66 0 0 0-3.7-1.26 6.14 6.14 0 0 0-6 4.28c-.33-2.25 2.89-5.48 6-5.45a7.14 7.14 0 0 1 2.3.36 8.65 8.65 0 0 1 1.07.4l.52.24.5.28a10.07 10.07 0 0 1 3.38 3.16 10.65 10.65 0 0 1 1.65 4.3 10.33 10.33 0 0 1-.41 4.62 14.58 14.58 0 0 1-5.22 7.4 15.26 15.26 0 0 1-4.13 2.19 15.56 15.56 0 0 1-4.59.78 14.93 14.93 0 0 1-4.61-.69 20.38 20.38 0 0 1-4.22-1.8 21 21 0 0 1-10.39-14.65 21.37 21.37 0 0 1 .38-9.31 32.41 32.41 0 0 1 3.7-8.39A32.13 32.13 0 0 1 401.28 7a30.49 30.49 0 0 1 8-4.75c.73-.27 1.44-.6 2.19-.81l2.25-.64a31.36 31.36 0 0 1 4.63-.7 30.58 30.58 0 0 1 4.69 0l2.34.28a23 23 0 0 1 2.31.46 43.17 43.17 0 0 1 16.49 8A43.93 43.93 0 0 1 460.61 41a20.45 20.45 0 0 1 0 2.35l-.05 2.35c-.12 1.56-.34 3.12-.53 4.68s-.66 3.08-1 4.59-.87 2.94-1.41 4.37-1.12 2.86-1.71 4.28-1.29 2.79-2.05 4.12-1.54 2.67-2.33 4-1.71 2.57-2.66 3.78A62.62 62.62 0 0 1 382.13 98Zm313.45 153.19a39.69 39.69 0 0 0 23.35 1.82A40.57 40.57 0 0 0 742.7 233c.71-.72 1.34-1.51 2-2.27s1.25-1.6 1.8-2.45 1.1-1.7 1.64-2.56 1-1.77 1.43-2.69.84-1.86 1.24-2.79l1-2.81c.2-1 .45-1.92.64-2.89l.18-1.48a10.46 10.46 0 0 0 .15-1.47 28.18 28.18 0 0 0-1.84-11.72 27.85 27.85 0 0 0-16.79-16.41 13.6 13.6 0 0 0-1.41-.45l-1.45-.33a19.39 19.39 0 0 0-3-.29 19.88 19.88 0 0 0-3 .13l-1.47.25c-.49.08-1 .25-1.45.37a19.53 19.53 0 0 0-5.45 2.51 21 21 0 0 0-4.47 4 22.08 22.08 0 0 0-3 5.27 13.61 13.61 0 0 0-.87 5.83 13.59 13.59 0 0 0 5.74 10.25 13 13 0 0 0 2.66 1.48 9.24 9.24 0 0 0 2.87.76 9.89 9.89 0 0 0 3-.18 10.36 10.36 0 0 0 2.79-1.11 9.41 9.41 0 0 0 2.33-1.93 9.31 9.31 0 0 0 1.62-2.57 6.51 6.51 0 0 0 .58-2.91 6.84 6.84 0 0 0-.77-2.89 6.52 6.52 0 0 0-2-2.28 5.85 5.85 0 0 0-2.77-1.16 4.73 4.73 0 0 0-4.83 3c-.13-1.73 2.49-4 4.9-3.85a5.5 5.5 0 0 1 1.74.39 7.07 7.07 0 0 1 .79.36l.39.21.37.24a7.74 7.74 0 0 1 2.39 2.57 7.88 7.88 0 0 1 .49 6.89 11.15 11.15 0 0 1-4.38 5.4 11.27 11.27 0 0 1-6.8 1.8 11.26 11.26 0 0 1-3.49-.77 15.7 15.7 0 0 1-3.14-1.59 16.14 16.14 0 0 1-7.2-11.75 16.52 16.52 0 0 1 .78-7.11 25.2 25.2 0 0 1 3.26-6.23 24.68 24.68 0 0 1 5-5 23.37 23.37 0 0 1 6.33-3.23c.58-.17 1.14-.39 1.72-.51l1.75-.37a25.39 25.39 0 0 1 7.18-.09l1.77.33c.6.1 1.17.32 1.75.47a33.26 33.26 0 0 1 12.21 7 33.75 33.75 0 0 1 11 25.49 17.93 17.93 0 0 1-.1 1.8l-.16 1.8c-.18 1.19-.43 2.37-.65 3.56s-.66 2.32-1 3.46-.81 2.21-1.3 3.27-1 2.13-1.53 3.19-1.13 2.06-1.78 3.05-1.31 2-2 2.93-1.44 1.88-2.23 2.76a48 48 0 0 1-52.25 13.8Z"/><path class="cls-1" d="M455.6 23.47a13.77 13.77 0 0 1 .44-8.08 14.07 14.07 0 0 1 5-6.52c.28-.21.58-.39.87-.58s.6-.36.92-.51.63-.3.95-.44.65-.27 1-.37.67-.2 1-.3l1-.2c.34 0 .68-.07 1-.09h.51a4.35 4.35 0 0 1 .51 0 9.58 9.58 0 0 1 3.93 1.17 9.69 9.69 0 0 1 3.14 2.7 10 10 0 0 1 1.72 3.79c0 .17.08.33.09.5v.51a7 7 0 0 1 0 1 6.89 6.89 0 0 1-.18 1l-.15.5a4.89 4.89 0 0 1-.2.48 6.79 6.79 0 0 1-1.1 1.75 6.86 6.86 0 0 1-3.52 2.22 4.74 4.74 0 0 1-3.91-.81 4.78 4.78 0 0 1-1.35-1.58 4.89 4.89 0 0 1-.39-1 3.18 3.18 0 0 1-.13-1 3.55 3.55 0 0 1 .2-1 3.22 3.22 0 0 1 .51-.9 3 3 0 0 1 .76-.71 3.23 3.23 0 0 1 1-.44 2.3 2.3 0 0 1 2 .33 2.28 2.28 0 0 1 .7.78 2.11 2.11 0 0 1 .27 1 1.65 1.65 0 0 1-1.24 1.52c.59.12 1.5-.67 1.55-1.51a2.11 2.11 0 0 0-.06-.61c0-.1-.05-.19-.09-.29v-.14l-.07-.14a2.57 2.57 0 0 0-.77-.93 2.71 2.71 0 0 0-2.33-.48 3.59 3.59 0 0 0-1.13.46 3.91 3.91 0 0 0-1.56 1.84 4.05 4.05 0 0 0-.29 1.2 3.92 3.92 0 0 0 .1 1.23 5.74 5.74 0 0 0 .41 1.14 5.62 5.62 0 0 0 6.04 3.04 8.49 8.49 0 0 0 2.29-.83 8.78 8.78 0 0 0 1.93-1.5 8.26 8.26 0 0 0 1.39-2c.08-.19.18-.37.25-.57l.21-.58a8.41 8.41 0 0 0 .26-1.21 7.44 7.44 0 0 0 .09-1.25v-.62a4.38 4.38 0 0 0-.08-.62 11.43 11.43 0 0 0-1.83-4.5A11.65 11.65 0 0 0 469 4.38h-1.24c-.42 0-.83 0-1.25.06l-1.23.19c-.4.09-.8.18-1.18.3s-.78.25-1.16.38-.76.29-1.13.47-.73.36-1.09.55-.71.4-1.05.63a16.59 16.59 0 0 0-7.1 17.27Zm-37.02 430.07c-24.11 1.3-32.91 1.14-37.47 8.47a43.45 43.45 0 0 0-5.86 32.53c.47 1.42 1.08 2.78 1.64 4.17s1.25 2.72 2 4 1.49 2.6 2.26 3.89 1.64 2.51 2.57 3.69 1.86 2.36 2.82 3.53l3 3.16c1.13.92 2.22 1.9 3.36 2.8l1.81 1.24a18 18 0 0 0 1.84 1.19 41.87 41.87 0 0 0 34.22 3.7 42.36 42.36 0 0 0 15.31-9.1c.5-.53 1.09-1 1.54-1.56l1.42-1.67a30.93 30.93 0 0 0 4.22-7.67l.67-2.11c.23-.7.33-1.44.5-2.16a28.8 28.8 0 0 0 .4-8.84 31.44 31.44 0 0 0-2.3-8.61 32.87 32.87 0 0 0-4.86-7.55 20.25 20.25 0 0 0-15.67-6.7 20.65 20.65 0 0 0-8.59 2.25 19.93 19.93 0 0 0-3.76 2.49 13.57 13.57 0 0 0-2.93 3.26 14.77 14.77 0 0 0-1.78 4 15.27 15.27 0 0 0-.43 4.42 13.58 13.58 0 0 0 1 4.35 13.39 13.39 0 0 0 2.28 3.87 9.65 9.65 0 0 0 3.42 2.73 10 10 0 0 0 4.31.95 9.75 9.75 0 0 0 4.33-1 8.74 8.74 0 0 0 3.39-2.85 7 7 0 0 0-.62-8.35c2.36 1 3.62 6 1.74 9a7.63 7.63 0 0 1-1.69 2 9.68 9.68 0 0 1-1 .81l-.54.37-.57.31a11.25 11.25 0 0 1-5 1.4 11.63 11.63 0 0 1-9.38-4 16.19 16.19 0 0 1-2.8-4.35 16 16 0 0 1-1.31-5.05 17.35 17.35 0 0 1 .29-5.23 17.71 17.71 0 0 1 1.94-4.9 16.6 16.6 0 0 1 3.37-4.08 22.83 22.83 0 0 1 4.21-3 24 24 0 0 1 9.94-3 24.21 24.21 0 0 1 19.17 7.36 37.41 37.41 0 0 1 6 8.5 36.62 36.62 0 0 1 3.1 10 34.48 34.48 0 0 1-.05 10.49c-.17.87-.26 1.75-.5 2.6l-.7 2.55a36.29 36.29 0 0 1-4.74 9.48l-1.64 2.11c-.53.71-1.2 1.31-1.79 2a48.38 48.38 0 0 1-38.07 14.28 49.94 49.94 0 0 1-20.21-5.84 22.91 22.91 0 0 1-2.29-1.35l-2.36-1.52c-1.44-1-2.82-2.16-4.23-3.25s-2.59-2.45-3.85-3.7-2.34-2.56-3.41-3.93-2.11-2.75-3.14-4.15-1.95-2.89-2.8-4.41-1.69-3.05-2.5-4.6-1.49-3.15-2.11-4.79c-6.91-17.75-3.74-34.58-.72-48.38 3.26-15.47 7.59-19.76 44-6.73Z"/><path class="cls-1" d="M371.05 479.5a38.46 38.46 0 0 1-7.63 17.42 37.15 37.15 0 0 1-14.93 11.3 35.71 35.71 0 0 1-18.26 2.55 26.25 26.25 0 0 1-23.71-24.7 23.39 23.39 0 0 1 1.3-9 20.54 20.54 0 0 1 5.19-8c4.62-3.95 11.66-5.59 17.33-3.73a12.82 12.82 0 0 1 6.7 5.5c1.48 2.51 1.59 6.28 1.14 9.1a12.23 12.23 0 0 0-2.05-8 11.94 11.94 0 0 0-6.57-4.74 16.11 16.11 0 0 0-19.13 10.8 20.51 20.51 0 0 0-.61 7.86 22.25 22.25 0 0 0 7 13.74 21.23 21.23 0 0 0 13.92 5.71 29.77 29.77 0 0 0 15.07-3.09 29.65 29.65 0 0 0 16.52-23.82ZM185.87 218.09a37.5 37.5 0 0 1-17.65-5.78c-5.19-3.41-17.44-9.79-17.44-31.62 1.52-18.69 16.75-23.88 22.66-24.69a23 23 0 0 1 8.89.43 20.09 20.09 0 0 1 8.25 4.3c4.28 4.12 6.53 10.81 5.25 16.49a12.54 12.54 0 0 1-4.71 7c-2.31 1.68-6 2.14-8.75 2a12 12 0 0 0 7.62-2.75 11.61 11.61 0 0 0 4-6.83 15.73 15.73 0 0 0-12.3-17.64 20.18 20.18 0 0 0-7.7.14 21.73 21.73 0 0 0-12.7 8.06 20.67 20.67 0 0 0-4.29 14.08 27.84 27.84 0 0 0 13 22.21c4.31 2.4 10.91 4.24 16.15 6Zm422.94 29.58a33.32 33.32 0 0 0 15.07-6.67 32.21 32.21 0 0 0 9.74-12.95 31 31 0 0 0 2.16-15.83 22.71 22.71 0 0 0-21.45-20.46 20.26 20.26 0 0 0-7.81 1.15 17.76 17.76 0 0 0-6.9 4.52 16.33 16.33 0 0 0-3.19 15 11.05 11.05 0 0 0 4.78 5.78c2.18 1.29 5.45 1.37 7.89 1a10.64 10.64 0 0 1-7-1.75 10.36 10.36 0 0 1-4.12-5.68 14 14 0 0 1 9.3-16.6 17.89 17.89 0 0 1 6.81-.54 19.25 19.25 0 0 1 11.91 6 18.37 18.37 0 0 1 5 12 25.89 25.89 0 0 1-23.22 27.42ZM464.17 433.22a31.21 31.21 0 0 1 13.68-7.2 30.24 30.24 0 0 1 15.21.39 29.12 29.12 0 0 1 12.94 7.64 21.34 21.34 0 0 1 2.53 27.72 19 19 0 0 1-5.4 5.08 16.82 16.82 0 0 1-7.35 2.44 15.31 15.31 0 0 1-12.9-6.42 10.42 10.42 0 0 1-1.47-6.89c.33-2.35 2.18-4.8 3.89-6.36a10 10 0 0 0-2.77 6.14 9.65 9.65 0 0 0 1.77 6.34 13.11 13.11 0 0 0 17.61 2.9 17 17 0 0 0 4.37-4.69 18.09 18.09 0 0 0 2.54-12.31c-4.16-16.48-21.83-16-32.9-9.29Z"/><path class="cls-1" d="M240.15 296.18c-6-19-12.11-40.56-27.17-53.88a113.86 113.86 0 0 0-53.5-26.61c-1.24-.24-2.49-.43-3.73-.65l-1.88-.32-1.87-.22-3.77-.45-3.79-.27c-.63 0-1.26-.1-1.89-.12h-1.9c-1.27 0-2.54-.08-3.81-.07-2.53.1-5.07.08-7.6.35a114.73 114.73 0 0 0-15.09 2.06c-2.47.61-5 1.1-7.41 1.86-1.21.36-2.46.69-3.66 1.07l-3.54 1.22a77.09 77.09 0 0 0-25.4 15.64 78.31 78.31 0 0 0-20.64 83.5 53.67 53.67 0 0 0 17.55 24 54.08 54.08 0 0 0 43.05 10.45 47.6 47.6 0 0 0 7.4-1.93l1.76-.65.88-.33c.3-.11.57-.27.85-.4l1.69-.83.85-.42c.28-.14.53-.32.8-.49a37.6 37.6 0 0 0 17.87-39 36.84 36.84 0 0 0-2.1-7.32 28.54 28.54 0 0 0-4-6.41 26 26 0 0 0-12.64-8.15 28 28 0 0 0-7.57-1 28.72 28.72 0 0 0-7.58 1.22 17.06 17.06 0 0 1 8.27-2.88c3.47-.09 5-.11 7.75.59a28.78 28.78 0 0 1 7.46 3 28.48 28.48 0 0 1 11.1 12.36c.28.65.53 1.31.8 2 .13.33.28.65.38 1l.3 1 .58 2c.09.33.2.67.28 1l.19 1a40.89 40.89 0 0 1 0 16.6 41.7 41.7 0 0 1-18.71 26.94c-.3.19-.59.39-.9.57l-.93.5-1.88 1c-.32.16-.62.35-1 .48l-1 .4-2 .8a52.58 52.58 0 0 1-8 2.32 59.29 59.29 0 0 1-16.66 1.17 60.41 60.41 0 0 1-51.73-38 86.42 86.42 0 0 1 1.49-65.58 87.55 87.55 0 0 1 47.42-46.24l4-1.5c1.33-.46 2.66-.86 4-1.29 2.64-.9 5.36-1.53 8.06-2.26a125 125 0 0 1 16.54-2.81c2.78-.36 5.58-.43 8.38-.61h6.31c.7 0 1.4.05 2.1.08l4.21.18 4.19.37 2.1.2 2.09.3c1.39.2 2.78.37 4.17.6 22.18 3.73 45.88 12.41 63.19 27S253 265.5 260.46 287Zm159.1-205.33c-13.41-.2-27.48-3.52-34.71-9.19-.29-.22-.57-.45-.85-.68l-.43-.33-.4-.36-.82-.72-.78-.75-.38-.38-.37-.4c-.25-.26-.5-.52-.74-.79-.46-.56-.95-1.1-1.38-1.68A32.59 32.59 0 0 1 356 72c-.34-.64-.71-1.26-1-1.93-.16-.32-.33-.65-.47-1l-.42-1a22.29 22.29 0 0 1 12.3-28.68 15.2 15.2 0 0 1 8.44-.84 15.51 15.51 0 0 1 7.67 3.8 15.71 15.71 0 0 1 2.76 3.36 14.11 14.11 0 0 1 1 1.93l.19.5.1.25.08.26.14.52.08.26c0 .08 0 .17.05.26a10.74 10.74 0 0 1-1.73 8.24 10.53 10.53 0 0 1-3.15 3 10.11 10.11 0 0 1-2 1 8 8 0 0 1-2.12.38 8.22 8.22 0 0 1-2.15-.26 8 8 0 0 1-2-.88 7.71 7.71 0 0 1-1.66-1.41 8.28 8.28 0 0 1-1.19-1.84 4.82 4.82 0 0 0 1 2.3 6.74 6.74 0 0 0 1.6 1.54 8.39 8.39 0 0 0 2.06 1 9.06 9.06 0 0 0 2.37.35 9.2 9.2 0 0 0 2.38-.35l.57-.2.28-.11.27-.13.55-.32.27-.14.25-.15a11.61 11.61 0 0 0 3.48-3.16 11.87 11.87 0 0 0 2-4.32 11.71 11.71 0 0 0 .15-4.79c0-.1 0-.2-.05-.3l-.07-.3-.15-.58a1.67 1.67 0 0 0-.08-.3l-.1-.28-.2-.57a15.22 15.22 0 0 0-1-2.15 17 17 0 0 0-2.93-3.77 17.27 17.27 0 0 0-17.93-3.75 24.56 24.56 0 0 0-8.07 5 25 25 0 0 0-6.37 26.66l.44 1.13c.15.38.32.73.49 1.1.31.73.69 1.43 1.05 2.14a35.42 35.42 0 0 0 2.56 4c.45.66 1 1.27 1.46 1.9.26.31.53.6.79.91l.4.45.42.43.84.86.88.82.44.41.46.38.92.78A36.32 36.32 0 0 0 379.88 92c6.4.93 13.41 1.72 20.28 3.12Z"/><path class="cls-1" d="M244.86 287.88c-2.32-3.13-.52 0-3.11-3.08-3.71-5.56-16.24-6.46-20.49-10.56-.66-17.15-27.59-36.92-52-41.51a77.41 77.41 0 0 0-23.78.34c-7.84 1.35-15.72 3.29-22.51 7.4s-13.74 9.68-17.6 16.62-5.21 16.39-4.48 23.73c-1.42-6.79-.28-16.69 3.68-24.09a48.51 48.51 0 0 1 17.07-18.06 67.17 67.17 0 0 1 23.22-9 80.93 80.93 0 0 1 24.9-.88c16.19 1.55 39.81 14.38 46.38 19.42s29.19 21.18 31.8 24.53Zm-195.72-8.55a24 24 0 0 1-2 6.14c-.2.5-.51.94-.76 1.42a13.49 13.49 0 0 1-.85 1.36l-.94 1.31-1 1.22a25.87 25.87 0 0 1-11.48 7.14 22.59 22.59 0 0 1-13.36-1.2c-4-1.54-7.3-5.54-8.79-9.5A14.91 14.91 0 0 1 9 281a10.85 10.85 0 0 1 2-6 10.37 10.37 0 0 1 5-3.72 9.88 9.88 0 0 1 6.2 0 6.9 6.9 0 0 1 4.43 7.52 4.64 4.64 0 0 1-4.25 3.94 4.16 4.16 0 0 1-1.53-.16 3.1 3.1 0 0 1-1.3-.82 3.07 3.07 0 0 1-.76-2.84 2.06 2.06 0 0 1 2.32-1.48 2 2 0 0 0-2.2 1.56 2.87 2.87 0 0 0 .82 2.64 3.1 3.1 0 0 0 2.63.79 4.16 4.16 0 0 0 2.5-1.2 5 5 0 0 0 .88-5.25 6.11 6.11 0 0 0-3.84-3.75 8.82 8.82 0 0 0-5.49.26 9 9 0 0 0-4.25 3.42 8.16 8.16 0 0 0-1.16 2.44 8.87 8.87 0 0 0-.28 1.34c0 .47-.08.93-.1 1.4a13.23 13.23 0 0 0 8.85 12.72l1.31.37c.45.07.89.17 1.35.23a21.55 21.55 0 0 0 2.78.12 18.67 18.67 0 0 0 5.46-.88c10-3.44 11.5-15.35 11.79-17.12Zm188.92 46.59a38.36 38.36 0 0 0-9.42-4.07 23.83 23.83 0 0 0-2.5-.58 17.88 17.88 0 0 0-2.52-.41l-2.55-.26h-2.55c-6.81.13-13.78 4.09-19.39 7.84-2.79 1.87-5.67 5.16-7.78 7.77a36.81 36.81 0 0 0-3 4c-.44.72-.83 1.49-1.25 2.23s-.68 1.57-1 2.36a24.4 24.4 0 0 0 1.37 19.71 23.81 23.81 0 0 0 6.42 7.64 17.39 17.39 0 0 0 9.24 3.86 16.41 16.41 0 0 0 9.71-2.12 15.7 15.7 0 0 0 6.56-7.36 10.93 10.93 0 0 0-4.35-13.18 7.37 7.37 0 0 0-4.79-1.13 7.19 7.19 0 0 0-4.38 2.08 6.62 6.62 0 0 0-1.42 2 4.91 4.91 0 0 0 2.22 6.29 3.29 3.29 0 0 0 4.21-1.21 3.21 3.21 0 0 1-4.13 1 4.58 4.58 0 0 1-2.3-3.74 5 5 0 0 1 1.81-4 6.61 6.61 0 0 1 4.06-1.74c3.05-.27 5.75 1.9 7.2 4.46A9.67 9.67 0 0 1 218 366a14 14 0 0 1-6.07 6.28 14.42 14.42 0 0 1-8.54 1.51 13.08 13.08 0 0 1-4.16-1.24 15.29 15.29 0 0 1-1.89-1.07c-.59-.45-1.2-.88-1.78-1.35a21 21 0 0 1-5.92-23.92c.32-.65.61-1.31.93-1.95s.73-1.24 1.14-1.85a34.24 34.24 0 0 1 2.77-3.47 29.38 29.38 0 0 1 6.78-5.6c12.18-8.05 27.8-4.13 31.71 3.69Zm312.71-25.82c3.39-9.4 7.56-18.56 13.31-26.73a68.94 68.94 0 0 1 4.49-6 54.63 54.63 0 0 1 4.84-5.67l5.19-5.34 5.65-4.84c15.37-12.49 38.33-16.77 57.83-18.93 9.73-1.08 22.32.85 31.9 2.68 4.86.61 9.49 2.19 14.19 3.42 2.33.77 4.65 1.75 7 2.63 2.26 1.05 4.46 2.23 6.68 3.35a70.93 70.93 0 0 1 33.92 46.44 69.22 69.22 0 0 1 .07 29.05c-1.89 9.36-6.26 19-13.33 25.9a47.83 47.83 0 0 1-25.58 13.52 45.5 45.5 0 0 1-28.4-4.08 31.87 31.87 0 0 1-15.1-37.5 21.51 21.51 0 0 1 8.57-11.45 21.22 21.22 0 0 1 13.67-3.61 19.58 19.58 0 0 1 6.9 1.8 14.32 14.32 0 0 1 6.89 18.17 9.58 9.58 0 0 1-11.65 5.18 9.28 9.28 0 0 0 11.14-5.4A13.36 13.36 0 0 0 687 310c-2.62-3.66-7.1-5.3-11.48-5.45a19.27 19.27 0 0 0-12.3 3.76c-7.29 5.11-9.22 15-7.65 23.42a28.24 28.24 0 0 0 15 19.86 40.84 40.84 0 0 0 25.29 2.58 41.87 41.87 0 0 0 21.85-12.67 37.93 37.93 0 0 0 6.91-10.5 42.53 42.53 0 0 0 2.19-5.93c.47-2.12 1-4.21 1.43-6.33a61.21 61.21 0 0 0-31.71-64.36c-1.92-.85-3.81-1.77-5.74-2.58-2-.65-3.94-1.4-6-2-4.23-.9-8.37-2.17-12.67-2.51a85.27 85.27 0 0 0-25.62.27 89.68 89.68 0 0 0-45.5 21.32l-4.65 4.29-4.2 4.72a43.41 43.41 0 0 0-3.9 5 54 54 0 0 0-3.58 5.17c-4.57 7.06-7.7 14.89-10.26 22.83ZM408.82 30.37a6.3 6.3 0 0 1-5.6-2.4c-2.6-3 .58-5.32-1.63-7.59 0 0 8.87 2.95 7.38 8.94 0 0-3.34-2.12-4.48-4.28.12.79 1.14 4.4 4.33 5.33Zm-2.26.45a5.35 5.35 0 0 0-5.86 1.27 8 8 0 0 0-2.83 5s7.31 1.39 10.33-5.83l-6.56 3.15Zm2.34.29a3.12 3.12 0 0 0-.41 3 9.32 9.32 0 0 0 2.81 3s-.11-1.69-.05-2.53.78-3.27-1.43-4.15c0 0-1.09 1.42.12 4.46a4 4 0 0 1-1.04-3.78Z"/><path class="cls-1" d="M681.3 256.57a18.35 18.35 0 0 0-1.84 4.66 13.7 13.7 0 0 0 1.08 10c2 3.68 5.54 7.26 8.58 10.05s5.58 4.72 5.58 4.72-.06-2.18-.14-4.91-.21-6-.15-8.17c.05-2 .81-6.32 0-10.6s-3.24-8.42-9-9.77a13.94 13.94 0 0 0-1.24 5.63c-.18 3.7.54 9 3.78 16.54a22.24 22.24 0 0 1-3.93-5 19.82 19.82 0 0 1-2.72-13.15Zm81.02-48.4a10.29 10.29 0 0 1 2.63-2.82 18.27 18.27 0 0 1 9.35-3.49c4.5-.51 6.91 1.1 9.18 2.71s4.35 3.16 7.95 2.3a30.38 30.38 0 0 1-2.71 1.86 35.25 35.25 0 0 1-6.91 3.31c-5.57 2-12.76 2.46-17.64-2.37 0 0 2.19-.69 5.05-1.36a34.74 34.74 0 0 1 9.28-1.14A24.87 24.87 0 0 0 772 206a16.33 16.33 0 0 0-9.68 2.17Zm2.25 8.01s3.14.25 5.43 4.64-1.23 6.18.75 9.59c0 0-8.71-6.34-6.45-13 0 0 3.15 3.59 4.05 6.53-.03-1.01-.63-5.64-3.78-7.76Zm-23.49 80.49a13.69 13.69 0 0 1-.64-6.38 23.9 23.9 0 0 1 2.13-7.71 37.78 37.78 0 0 1 2.82-4.8 30.31 30.31 0 0 1 2.08-2.55 22 22 0 0 1 2.59-2.63 22.34 22.34 0 0 1 11.81-5.85c1-.12 1.87-.18 2.74-.21a19.85 19.85 0 0 1 2.6.2 20.37 20.37 0 0 1 4.58 1.2 16.57 16.57 0 0 1 2 .9c.65.34 1.28.61 1.89 1 1.21.76 2.39 1.38 3.55 2.16a78.47 78.47 0 0 0 8.17 4.39l-1.66-.12a40.47 40.47 0 0 0-4.32-.13 24.3 24.3 0 0 0-5.76.84 13 13 0 0 0-1.47.44l-1.45.57a12.09 12.09 0 0 0-1.4.69 10.31 10.31 0 0 0-1.37.75c-3.57 2.19-6.89 5.1-10.87 8.14a44 44 0 0 1-14.1 7.5l.27-.68c.18-.43.42-1.1.79-1.85s.82-1.68 1.35-2.7a32 32 0 0 1 1.88-3.3 38.73 38.73 0 0 1 5.5-7 24.93 24.93 0 0 1 3.58-3c.63-.44 1.27-.86 1.91-1.25s1.35-.64 2-.93c-.44.09-1.1.23-1.93.44s-1.75.65-2.83 1.1a22.85 22.85 0 0 0-3.39 1.83 24.58 24.58 0 0 0-3.56 2.62c-4.74 3.94-8.76 9.99-9.49 16.32Zm-18.84-95.28a2.63 2.63 0 0 1 .24.44 3.5 3.5 0 0 1 .3 1.3 3.89 3.89 0 0 1-.52 2.07 4.94 4.94 0 0 1-2.69 2.19 4.48 4.48 0 0 1-3.82-.34 3.72 3.72 0 0 1-1-1 3.6 3.6 0 0 1-.56-1.08c-.49-1.46-.37-2.55-1.45-3.79l1.36.58a6.38 6.38 0 0 0 2.76.51c.87-.08 1.15-.49 1.67-.6a10.62 10.62 0 0 1 2.8-.14s0 .2-.15.55a4.56 4.56 0 0 1-.65 1.29 3.84 3.84 0 0 1-1.47 1.27 2.82 2.82 0 0 1-2 .25 2.91 2.91 0 0 0 1.11.4 3.87 3.87 0 0 0 1.95-.28 3.43 3.43 0 0 0 2.12-3.62Zm28.48 105.04.46.48c.3.31.71.68 1.2 1.24s1 1.12 1.55 1.83c.27.32.55.69.83 1.07l.88 1.14a22.33 22.33 0 0 0 5.3 5 38.84 38.84 0 0 0 12.14 5.28 45.93 45.93 0 0 0 8.07 1.38 33.14 33.14 0 0 0 3.7.08 26.79 26.79 0 0 0 3.38-.35 17.56 17.56 0 0 0 9.11-4.18 14.19 14.19 0 0 0 2.15-2.59 18 18 0 0 0 1.17-2.31 25.34 25.34 0 0 1 1.17-3.08l-1.41-.49-.71-.24-.81-.35-.88-.39c-.3-.15-.62-.33-.93-.5-.62-.3-1.28-.79-1.91-1.18s-1.28-.95-1.95-1.51c-1.32-1.09-2.74-2.33-4.53-3.74a61.3 61.3 0 0 0-6.79-4.68 46.72 46.72 0 0 0-10.59-4.64 35.53 35.53 0 0 0-7.26-1.34 27.42 27.42 0 0 0-8.42.61 20.29 20.29 0 0 0-7.91 3.85 17 17 0 0 0-4.83 6.59 20.94 20.94 0 0 1 9.91-2.9 25.73 25.73 0 0 1 9.93 2c6.2 2.53 11.58 6.26 17.29 9.28-5.16-1.66-10.27-3.88-15.37-5.31a30.63 30.63 0 0 0-7.47-1.25 15 15 0 0 0-6.47 1.2Zm-59.15 60.23a23.09 23.09 0 0 0-2.05 1.66 24.75 24.75 0 0 0-2.06 2.21c-.38.45-.77.94-1.18 1.47a20.62 20.62 0 0 0-1.15 1.76 23.3 23.3 0 0 0-2.15 4.33c-.3.82-.6 1.67-.88 2.55s-.4 1.86-.56 2.83c-.08.49-.15 1-.22 1.48s-.05 1-.06 1.54c0 1 0 2.09.07 3.15a23.19 23.19 0 0 0 5 12.06 22.6 22.6 0 0 0 4.56 4.14 21.87 21.87 0 0 0 9.49 3.68 23 23 0 0 0 7-.16 23.69 23.69 0 0 0 2.57-.58l-1.56-1.09-.8-.54c-.28-.21-.54-.46-.83-.7l-.91-.78c-.16-.14-.32-.28-.49-.41l-.43-.48a20.61 20.61 0 0 1-3.25-4.23 12.43 12.43 0 0 1-1.1-2.27 10 10 0 0 1-.66-2.09c-.06-.3-.12-.64-.19-1l-.09-.59v-2.11c0-.51.08-1.07.1-1.63 0-1.11.27-2.35.34-3.61.28-1.29.35-2.63.66-4 .16-1.4.49-2.84.6-4.35.06-.76.21-1.51.25-2.29s0-1.58.08-2.36a22 22 0 0 0-.07-2.42c-.08-.83-.2-1.66-.32-2.49a20.2 20.2 0 0 0-1.63-5.16 15.16 15.16 0 0 0-2.06 1.5 23.21 23.21 0 0 0-4.94 5.77c-.44.73-.88 1.53-1.33 2.38a25 25 0 0 0-1.19 2.84c-.19.51-.38 1-.56 1.58s-.27 1.13-.41 1.72l-.38 1.81a16.76 16.76 0 0 0-.21 1.93c0 .66-.1 1.33-.14 2s0 1.4.08 2.12.07 1.45.2 2.19.3 1.48.46 2.23c.09.38.16.76.27 1.13s.27.75.4 1.13c.28.75.54 1.5.88 2.24a24 24 0 0 0 2.62 4.27s-.22-.13-.61-.4a9.58 9.58 0 0 1-1.6-1.34 23.35 23.35 0 0 1-2.18-2.54c-.35-.55-.71-1.15-1.08-1.81a13.41 13.41 0 0 1-1-2.19c-.29-.79-.58-1.64-.85-2.55a21.3 21.3 0 0 1-.54-2.9c-.07-.51-.13-1-.19-1.57s0-1.07 0-1.62a23.64 23.64 0 0 1 .22-3.42 28.14 28.14 0 0 1 6.06-14.02Zm12.51-2.81a6.11 6.11 0 0 0-.2 1.16 8.89 8.89 0 0 0 .31 3.12 10.83 10.83 0 0 0 2.29 4.25 13.14 13.14 0 0 0 5.58 3.76 14.27 14.27 0 0 0 6.19.79 8.38 8.38 0 0 0 3.69-1.28 6.61 6.61 0 0 0 1.77-1.61 6.87 6.87 0 0 1 .86-1l-1.92-1.26c-1.12-.76-2.45-1.88-3.91-3.07a48.13 48.13 0 0 0-5.34-3.9c-1.12-.67-2.33-1.38-3.75-2.08s-3-1.44-4.76-2.41a23.25 23.25 0 0 0 4.18 6.63 24.61 24.61 0 0 0 6 5.13 27.4 27.4 0 0 1-10.99-8.23Zm-11.52-12.32a12.08 12.08 0 0 0-1.7-1.54 20.11 20.11 0 0 0-5.12-2.72 32.09 32.09 0 0 1-4.52-2.06 3.48 3.48 0 0 1-1.6-1.62 3.71 3.71 0 0 0-.35 2.05 7.8 7.8 0 0 0 2.22 4.52 11.92 11.92 0 0 0 5.5 3.31 11.26 11.26 0 0 0 3.61.39 7.4 7.4 0 0 0 3.74-1.14 13.18 13.18 0 0 1-5.44-1 21.42 21.42 0 0 1-4.85-2.56 20.05 20.05 0 0 0 4.19 1.68 16.31 16.31 0 0 0 4.32.69ZM451.48 524.51s-.25.27-.74.76a14.16 14.16 0 0 1-1.75 1.57 23 23 0 0 0-2.27 1.89 27.38 27.38 0 0 0-3.45 4.21 19.81 19.81 0 0 0-2.92 5.87 7.69 7.69 0 0 0 0 4.46 5.2 5.2 0 0 0 1.37 2.15c.46.44.86.68 1 .93l.35-.54a6.68 6.68 0 0 1 1-1.21 32.4 32.4 0 0 1 4.1-2.86 28.93 28.93 0 0 0 3.33-2.6 18.32 18.32 0 0 0 3.68-4.59 13.81 13.81 0 0 0 1.31-3.4 11 11 0 0 0 .19-3.87 9.43 9.43 0 0 0-3.55-6.11 13.38 13.38 0 0 1 .64 4.63 10.74 10.74 0 0 1-1.33 4.48c-1.55 2.72-3.92 4.69-6.11 6.72a36.43 36.43 0 0 0 4.32-6 8.78 8.78 0 0 0 .83-6.49ZM397 536.62a14.83 14.83 0 0 1 .29 1.74c.05.52.12 1.19.2 2s.12 1.67.17 2.68a55.41 55.41 0 0 1-.23 7.33 80 80 0 0 1-1.81 10.26 42.22 42.22 0 0 1-1.38 4.87c-.23.7-.41 1-.57 1.47s-.43.92-.61 1.33a24.15 24.15 0 0 0-2.2 5.1 9.62 9.62 0 0 0 .48 6.31 10.77 10.77 0 0 0 2.2 3.16 18.31 18.31 0 0 0 1.69 1.5l1 .8a6.74 6.74 0 0 1 .56.46l.62.59-.41-.22c-.15-.07-.33-.17-.54-.26l-.69-.22c-1-.32-2.46-.62-4.24-1.18a21.73 21.73 0 0 1-6.15-3 18.57 18.57 0 0 1-6.09-7.47 16.26 16.26 0 0 1-1-2.64 16.89 16.89 0 0 1-.62-2.82c-.07-.48-.17-1-.2-1.46l-.06-1.44a19.12 19.12 0 0 1 .1-3 33.43 33.43 0 0 1 1-5.2 34.68 34.68 0 0 1 1.58-4.64 30 30 0 0 1 5-8.15 22.5 22.5 0 0 1 7.65-5.83l-.27.78c-.18.5-.43 1.22-.69 2.12-.56 1.78-1.21 4.24-1.86 7s-1.33 5.83-2 8.86c-.34 1.5-.67 3-1 4.47s-.66 2.84-.83 4.15c.51-1.55 2.77-5.91 5.06-11.27 1.15-2.68 2.29-5.6 3.25-8.63s1.69-6.17 2.6-9.55Zm-12.9-4.3a16 16 0 0 0-5.1-2.52c-3.23-1-7.82-1.33-13.58 1.13-5.58 2.37-8.69 4.88-10.6 7s-2.68 3.77-3.53 4.37a22.93 22.93 0 0 0 3.52 1.6 33.3 33.3 0 0 0 9 2 29.34 29.34 0 0 0 12.29-1.65 28.16 28.16 0 0 0 6.57-3.46 24.25 24.25 0 0 0 6.13-6.13 44.38 44.38 0 0 1-5.77 1.4c-1.92.37-3.84.69-5.77 1-3.85.6-7.7 1.1-11.56 1.56 6.3-1.97 12.53-3.94 18.4-6.3Zm39.11-3.83a5.34 5.34 0 0 1-.34-.52l-.84-1.46a30.57 30.57 0 0 0-3.49-4.82c-.45-.51-.83-.93-1.17-1.35s-.68-.83-1-1.23c-.57-.8-1-1.59-1.48-2.36a7.66 7.66 0 0 0-4.55-3.82s.86 0 2.23.11a19 19 0 0 1 5.36 1.24 13.35 13.35 0 0 1 3.15 1.81 10.87 10.87 0 0 1 2.68 3.06 9.2 9.2 0 0 1 1.24 4 6.62 6.62 0 0 1-.86 3.86l-.05-.32a7.22 7.22 0 0 0-.18-.88 11.62 11.62 0 0 0-1-2.68 20.91 20.91 0 0 0-4.37-5.28 28.66 28.66 0 0 1 2.49 4 21.88 21.88 0 0 1 2.18 6.64ZM97.58 363.63a10.66 10.66 0 0 1 1.56-.3 23.07 23.07 0 0 1 4.1-.17 33.62 33.62 0 0 1 13.1 3.4 15 15 0 0 1 5.54 4.17 19.85 19.85 0 0 1 1.64 2.46c.47.85.91 1.71 1.36 2.55a23.2 23.2 0 0 0 1.41 2.49 10.63 10.63 0 0 0 1.77 2.17 8.47 8.47 0 0 0 5.81 2.28s-.42.19-1.18.48a27.64 27.64 0 0 1-3.31 1 31.42 31.42 0 0 1-11.37.73 26.49 26.49 0 0 1-13.17-5.22A17.08 17.08 0 0 1 98 367.15l2 1c1.27.6 3 1.41 5 2.29 3.9 1.8 8.63 3.64 12 5.81a51.66 51.66 0 0 0-6.71-6.25 30.66 30.66 0 0 0-12.71-6.37ZM58 347.45a5.68 5.68 0 0 0-.56-.56 12.19 12.19 0 0 0-1.86-1.4 19 19 0 0 0-8.41-2.7 22.64 22.64 0 0 0-3.11-.06c-.55 0-1.12.08-1.71.14l-1.53.19a35.56 35.56 0 0 0-6.47 1.48 40.25 40.25 0 0 0-14.51 8.63 49 49 0 0 0-5.84 6.28 41.16 41.16 0 0 0-3.7 5.76c-2.19 3.91-2.82 7.82-2.16 10.55a7.29 7.29 0 0 0 1.54 3.12 5.64 5.64 0 0 0 1.91 1.44 8.33 8.33 0 0 0 1.58.57 7.65 7.65 0 0 1 1.14.34v-.35a4.36 4.36 0 0 1 .1-.91 2.88 2.88 0 0 1 1.34-2c.77-.45 1.73-.92 3.31-1.72l1.27-.61.34-.16.42-.22.88-.47 3.68-2c5.11-2.74 10.85-5.78 17.22-9.6 1.58-1 3.27-2 4.88-3a36 36 0 0 1 4.08-2.62 25.74 25.74 0 0 1 4.83-2.14 11.27 11.27 0 0 1 6-.3c-2.2-2.4-5.59-3.51-9-3.67a23.76 23.76 0 0 0-5.18.34 30.47 30.47 0 0 0-5.09 1.37 83.7 83.7 0 0 0-19.31 9.26 82.89 82.89 0 0 1 15-10.15c1.35-.72 2.72-1.41 4.11-2 .68-.33 1.41-.66 2.18-1s1.53-.56 2.32-.8A24.85 24.85 0 0 1 58 347.45Zm-8-12.32a5.15 5.15 0 0 0-.52-.76 10.47 10.47 0 0 0-8.67-4.06 11.62 11.62 0 0 0-6.93 3 11.06 11.06 0 0 0-1.64 1.87c-.34.5-.5.8-.5.8l.72-.19a16.13 16.13 0 0 1 1.78-.33 15.32 15.32 0 0 1 4.3 0 46.57 46.57 0 0 1 5.27 1.74c2.12.75 4.33 1.42 6.83.72a5.66 5.66 0 0 0-.45-.78 6.5 6.5 0 0 0-.71-.87 7.72 7.72 0 0 0-1.16-1.07 12 12 0 0 0-4-2.06 14.34 14.34 0 0 0-6.38-.37 7.13 7.13 0 0 1 .9-.41 10.17 10.17 0 0 1 2.62-.54 10.68 10.68 0 0 1 4 .51 11.42 11.42 0 0 1 4.54 2.8Zm15.48 2.13a8.37 8.37 0 0 1 2.14-3.43 13.17 13.17 0 0 1 4.07-2.83 22.59 22.59 0 0 1 3.31-1c.63-.11 1.31-.18 2-.24l1.11-.07c.39 0 .79 0 1.2.05a12.43 12.43 0 0 1 7.69 3 14.26 14.26 0 0 1 1.23 1.23 11.63 11.63 0 0 1 .94 1.38 11 11 0 0 1 1.2 2.78 8.38 8.38 0 0 1 .29 1.39 13.18 13.18 0 0 1 .18 1.35 23.5 23.5 0 0 1 0 2.65 42.22 42.22 0 0 1-.57 5.76l-.25-1a9.43 9.43 0 0 0-1-2.41 7.63 7.63 0 0 0-2.21-2.4 9.07 9.07 0 0 0-3.05-1.34c-2.22-.53-4.58-.66-7.27-1.06a24.84 24.84 0 0 1-8.71-2.8l.37-.22c.24-.12.6-.36 1.05-.55s1-.44 1.62-.7l1-.41L73 336a18.24 18.24 0 0 1 5.22-.81 11.62 11.62 0 0 1 2.77.26 13.39 13.39 0 0 1 1.32.32c.42.17.83.34 1.22.52a14.39 14.39 0 0 0-18 1Zm34.14-63.87a11 11 0 0 1-3.4 2.19 24.35 24.35 0 0 1-10.71 1.82c-4.93-.09-7.41-1.84-9.84-3.61s-4.75-3.41-8.82-2.55l.81-.53c.53-.33 1.3-.8 2.27-1.3a33.86 33.86 0 0 1 8.06-3 25.71 25.71 0 0 1 10.58-.29 15.47 15.47 0 0 1 9.24 5.33s-2.58.17-5.88.32a60.62 60.62 0 0 1-10.54-.2 38.3 38.3 0 0 0 7.1 2 23 23 0 0 0 11.13-.18Zm-1.8 5.14a14.63 14.63 0 0 1-.32 1.63c-.24 1-.67 2.35-1.15 4.06l-.81 2.65-1 3c-.71 2.07-1.6 4.29-2.75 6.9a17.14 17.14 0 0 1-3.88 5.76 19.2 19.2 0 0 1-2.3 1.94c-.79.6-1.58 1.17-2.4 1.75a15.57 15.57 0 0 0-4.15 4.14A8.86 8.86 0 0 0 78 316.9s-.28-.38-.73-1.11a21.85 21.85 0 0 1-1.71-3.25 28 28 0 0 1-2.26-12.2 26 26 0 0 1 5.4-15.14 20.93 20.93 0 0 1 3-3.1 18.47 18.47 0 0 1 1.76-1.29 13.07 13.07 0 0 1 1.89-1.09 15.76 15.76 0 0 1 4.13-1.41 14.2 14.2 0 0 1 2.15-.27 17.66 17.66 0 0 1 2.19.1l-.49.52c-.3.35-.77.79-1.27 1.43s-1.09 1.37-1.7 2.21-1.23 1.78-1.81 2.82c-2.45 4.08-4.46 9.09-6.45 12.93 1-1 3.51-4 6.38-7.4 1.4-1.76 3-3.53 4.46-5.56s3.13-4.09 4.88-6.56Zm.77 8.35a5.37 5.37 0 0 0-.2 1.14 12 12 0 0 0 0 3 11.62 11.62 0 0 0 4.5 7.79 14.47 14.47 0 0 0 9.29 2.52 15.28 15.28 0 0 0 3.26-.57c.78-.23 1.21-.4 1.21-.4l-.76-.46a19.62 19.62 0 0 1-1.79-1.21 18.94 18.94 0 0 1-3.65-3.61 24.17 24.17 0 0 1-1.38-2.42c-.52-1-1.11-2.21-1.79-3.36a11.43 11.43 0 0 0-6.61-5.68 6 6 0 0 0-.26 1.09 7.71 7.71 0 0 0-.09 1.37 10.8 10.8 0 0 0 .18 1.92 14 14 0 0 0 2.06 5.09 17.09 17.09 0 0 0 5.63 5.38 9 9 0 0 1-1.24-.29 11.74 11.74 0 0 1-3-1.51 12.48 12.48 0 0 1-3.43-3.64 13.19 13.19 0 0 1-1.93-6.15Zm53.93-53.38a4.86 4.86 0 0 1 .15.54 14.7 14.7 0 0 1 .22 1.46c.12 1.23.21 2.83.22 4.85a8.92 8.92 0 0 1-.28 2.45c-.1.34-.23.66-.34 1s-.26.64-.38 1a5 5 0 0 0-.28 1 3.15 3.15 0 0 0 1.07 3.17l-.44-.16a6.52 6.52 0 0 1-1.17-.6 8.5 8.5 0 0 1-3-3.43 9.12 9.12 0 0 1-.75-6 6.49 6.49 0 0 1 3.72-4.68l-.26.89a18.21 18.21 0 0 0-.43 2.16 35 35 0 0 0-.13 5.29c.13-.51.43-1.9.84-3.48a50.71 50.71 0 0 0 1.24-5.46Zm51.74 15.99-.24-.14a3.84 3.84 0 0 0-.69-.32c-.31-.13-.68-.27-1.13-.41a14.36 14.36 0 0 0-1.53-.33 11.06 11.06 0 0 0-8.16 2.05 11.22 11.22 0 0 0-4.23 7.18 9.4 9.4 0 0 0 0 2.62c.1.62.19 1 .19 1l.4-.68a5.61 5.61 0 0 1 .48-.72 9 9 0 0 1 .66-.85 12.77 12.77 0 0 1 3.61-2.9l1-.42 1.38-.44c1-.28 2.18-.54 3.37-.79 2.39-.48 4.78-.86 7-2.42a5.34 5.34 0 0 0-.84-.55 5.6 5.6 0 0 0-1.14-.53l-.78-.26-.94-.2a11.91 11.91 0 0 0-5.11.27 13.55 13.55 0 0 0-6.13 3.64 9.08 9.08 0 0 1 .54-.93 10.36 10.36 0 0 1 2.09-2.11 11.1 11.1 0 0 1 4.19-1.93 11.59 11.59 0 0 1 6.01.17ZM65.14 216.26a30 30 0 0 0-8.1-6.9A40.88 40.88 0 0 0 46.79 205a53.18 53.18 0 0 0-14.42-1.83c-5.4 0-9.7.14-13.35.42-1.81.13-3.49.34-5 .5s-2.9.45-4.12.63c-2.47.41-4.51 1-6.09 1.29a13.21 13.21 0 0 1-3.84.5s.29.62.94 1.73a30.74 30.74 0 0 0 3.16 4.55 46.22 46.22 0 0 0 15 11.83 54.37 54.37 0 0 0 24.49 5.86 59.88 59.88 0 0 0 28.5-7.51c-14.78-2-29.75-3.79-44.21-7.91 12.46 1.54 24.83 1.4 37.29 1.2Zm-10.3 16.59s-.51 0-1.36.11-2 .25-3.39.51a53.07 53.07 0 0 0-9.16 2.53 48.19 48.19 0 0 1-5.25 1.71 22.65 22.65 0 0 1-5.54.72 20.76 20.76 0 0 1-4.58-.54c-1.15-.29-1.85-.52-1.85-.52l.35.37a11.35 11.35 0 0 0 1 1 18.89 18.89 0 0 0 3.69 2.67 22.09 22.09 0 0 0 5.05 2 29.63 29.63 0 0 0 4.7.83 28 28 0 0 0 5.39.1 23.22 23.22 0 0 0 6.91-1.67c4.53-1.9 8-5.07 8.53-9a10.65 10.65 0 0 0-1.47.24 36.17 36.17 0 0 0-4.16 1.24c-1.8.63-4 1.54-6.64 2.55a35.08 35.08 0 0 1-10 2.47l1.49-.58c.93-.37 2.25-.89 3.76-1.56a114.67 114.67 0 0 1 12.53-5.18Zm82.3-35.63a8.39 8.39 0 0 1-1.39.59 12.36 12.36 0 0 1-3.93.66 14.15 14.15 0 0 1-6-1.32 18.63 18.63 0 0 1-6.82-5.55 13.18 13.18 0 0 1-3-7.88 14 14 0 0 1 0-1.73c.08-.56.18-1.1.3-1.63a18.77 18.77 0 0 1 1-3c.36-.94.77-1.83 1.15-2.71a27 27 0 0 0 1-2.64 10.91 10.91 0 0 0 0-6l.81.95c.5.6 1.2 1.46 2.08 2.45 1.72 2 4.05 4.51 6.37 7a40.84 40.84 0 0 1 6.07 7.62 17.86 17.86 0 0 1 2.13 10.2s-.64-.19-1.72-.59a24.5 24.5 0 0 1-4.09-2.07c-3.16-1.91-6.56-5.38-7.83-9a17.34 17.34 0 0 0 2.79 8.29c2.09 3.5 6.21 6.63 11.08 6.36Zm-15.05 1.31a6.75 6.75 0 0 1-2.21.74 29.43 29.43 0 0 1-6.87.33 17.17 17.17 0 0 1-3.84-.5 24.28 24.28 0 0 1-2.75-1 7.14 7.14 0 0 0-6-.22l.46-.38a14.17 14.17 0 0 1 1.35-1 18.26 18.26 0 0 1 5.14-2.25 16.74 16.74 0 0 1 7.19-.34 11 11 0 0 1 6.32 3.35l-1.12-.12a60.5 60.5 0 0 0-2.76-.22c-2.19-.15-4.85-.11-7-.26.66.18 2.56.6 4.78 1a31.44 31.44 0 0 0 7.31.87Zm7.35 17.32a8.72 8.72 0 0 1-.15 1.08 20.73 20.73 0 0 1-.79 2.72 38.73 38.73 0 0 1-4.32 8.23 11.42 11.42 0 0 1-3.14 3.38 31.68 31.68 0 0 1-3.38 1.94 8.8 8.8 0 0 0-3 2.41 5.37 5.37 0 0 0-.91 4.29s-.18-.25-.47-.74q-.22-.37-.51-.93a13.2 13.2 0 0 1-.54-1.3 16.52 16.52 0 0 1-.62-8.42 17.15 17.15 0 0 1 5.14-9.57 12.11 12.11 0 0 1 10.15-3.39l-1.12 1.23c-.36.36-.75.85-1.19 1.36s-.9 1.09-1.38 1.72c-1 1.21-1.93 2.64-2.89 4s-1.82 2.72-2.67 3.91c.73-.6 2.76-2.26 5-4.27a34.21 34.21 0 0 0 6.79-7.65Zm158.34-87.19a8.55 8.55 0 0 1-1.38.64 11.82 11.82 0 0 1-3.95.77 13.93 13.93 0 0 1-2.85-.22 15.74 15.74 0 0 1-3.29-1 18.85 18.85 0 0 1-7.11-5.72 13.68 13.68 0 0 1-3.16-8.2 13 13 0 0 1 .06-1.78 16.71 16.71 0 0 1 .31-1.68 17.32 17.32 0 0 1 1-3c.37-1 .81-1.87 1.22-2.77.19-.44.38-.88.54-1.33a13.55 13.55 0 0 0 .5-1.34 12.12 12.12 0 0 0 .25-6.19l.76 1c.47.64 1.12 1.56 2 2.62 1.63 2.13 3.88 4.77 6.17 7.3a47.85 47.85 0 0 1 6.05 7.74 19.18 19.18 0 0 1 2.42 10.21s-.66-.17-1.77-.54a23.48 23.48 0 0 1-4.19-2c-3.26-1.9-6.74-5.48-8-9.18a17.45 17.45 0 0 0 2.91 8.51c2.24 3.5 6.59 6.61 11.51 6.16Zm-9.85 5.34a14.56 14.56 0 0 1-1.51 1.66 35.29 35.29 0 0 1-4.76 3.74c-1.08.73-2.29 1.44-3.65 2.19s-2.86 1.48-4.51 2.24a95.2 95.2 0 0 1-11.87 4.33 41.81 41.81 0 0 1-6.31 1.44 29.26 29.26 0 0 1-5.31.34 24.37 24.37 0 0 1-2.44-.17c-.79-.07-1.56-.16-2.32-.28l-4.5-.78-2.22-.38c-.73-.09-1.47-.17-2.21-.23s-1.49-.09-2.25-.09a22.08 22.08 0 0 0-2.26.21 16.43 16.43 0 0 0-2.31.49 20 20 0 0 0-2.32.93 18.4 18.4 0 0 0-4.67 3.33s.28-.64.86-1.78a41.9 41.9 0 0 1 2.78-4.7A51.11 51.11 0 0 1 229 133.36a46.82 46.82 0 0 1 21.79-8.51c8.07-.84 16.41.91 22.59 5.91l-3.58.82c-2.21.54-5.27 1.29-8.65 2.25-1.69.44-3.47 1-5.28 1.53s-3.65 1.11-5.47 1.7c-.91.3-1.82.58-2.73.83l-2.68.82c-1.77.47-3.48 1-5.14 1.35 2.18 0 8.28-.18 15.32-.87s15.13-1.77 22.76-5.19Zm170.48-39.59s.87.18 2.39.34a36.57 36.57 0 0 0 6.35 0 33.56 33.56 0 0 0 9-2.05 26.9 26.9 0 0 0 9.67-6.21 20.42 20.42 0 0 0 5.86-11 11.65 11.65 0 0 0-.53-5.52 8.92 8.92 0 0 0-2.43-3.65 11.5 11.5 0 0 0-5.34-2.67 16.37 16.37 0 0 0-1.66-.29l-.59-.06.27.37a8.56 8.56 0 0 1 .7 1 8.8 8.8 0 0 1 1.32 2.91 3.85 3.85 0 0 1 .08 1.38 3.72 3.72 0 0 1-.43 1.41 8.74 8.74 0 0 1-2.48 2.91 24 24 0 0 1-5.1 2.76c-2.38 1.05-5.33 2.15-8.41 3.38-6.13 2.5-12.66 5.6-15.6 11.66a16.22 16.22 0 0 0 2.46.34 33.43 33.43 0 0 0 7.38-.27 43.42 43.42 0 0 0 12-3.48 37.48 37.48 0 0 0 7.16-4.24 28.16 28.16 0 0 0 3.46-3.15 18 18 0 0 0 2.88-4 9.86 9.86 0 0 1-.77 2.56 20 20 0 0 1-4.35 6.12 31.19 31.19 0 0 1-9.43 6.26 40.15 40.15 0 0 1-13.86 3.19Zm90.65 45.41a9.81 9.81 0 0 1-.91-.53c-.57-.36-1.28-.9-2.17-1.55l-1.36-1.05-1.45-1.18a35 35 0 0 1-3.07-2.83 7.35 7.35 0 0 1-2-3.28 20.22 20.22 0 0 1-.6-3.52c-.3-2.38-.91-4.84-4-5.81 0 0 .29 0 .81-.11a17.41 17.41 0 0 1 2.21-.12 17.85 17.85 0 0 1 7.16 1.53 14.31 14.31 0 0 1 7 6.49 11 11 0 0 1 1.22 5 8.63 8.63 0 0 1-1.53 4.92s-.25-.55-.68-1.38l-.82-1.43c-.35-.51-.68-1.08-1.11-1.64-.76-1.09-1.76-2.22-2.76-3.33s-1.9-2.08-2.68-3.07c.28.78 1.16 2.87 2.24 5.14.56 1.15 1.14 2.36 1.88 3.63a38.91 38.91 0 0 0 2.62 4.12Zm5.06 16.63a10.47 10.47 0 0 1-1.19-1.71 17.42 17.42 0 0 1-1.06-2.19 16.22 16.22 0 0 1-.91-3.13 21.64 21.64 0 0 1 .28-9.15c.23-.9.5-1.85.83-2.84s.79-2 1.28-3a25.08 25.08 0 0 1 1.75-3.11c.33-.53.68-1.07 1-1.61s.8-1 1.23-1.58a22.63 22.63 0 0 1 10.67-7.66 20.35 20.35 0 0 1 5-1 30.39 30.39 0 0 1 4.67 0c1.48.06 3 .25 4.38.35s2.83.17 4.24.12a20.7 20.7 0 0 0 9.11-2.54l-1.17 1.43c-.74.91-1.82 2.15-3.06 3.73-2.52 3.08-5.7 7.23-8.87 11.49a95.67 95.67 0 0 1-10.08 12.06 34.41 34.41 0 0 1-14 8.32s.09-1 .36-2.79a41.17 41.17 0 0 1 1.89-6.86c.52-1.34 1.15-2.74 1.87-4.17a36.27 36.27 0 0 1 2.56-4.15 27.31 27.31 0 0 1 6.69-6.78c-.45.15-1.1.42-1.91.79a21.76 21.76 0 0 0-2.78 1.49 26.9 26.9 0 0 0-3.3 2.3c-.56.46-1.15.94-1.72 1.46s-1.12 1.11-1.67 1.71c-4.53 4.65-7.82 12.09-6.09 19.02Zm8.62 5.55a4.69 4.69 0 0 1-.22-1.06 7.94 7.94 0 0 1 .3-3.16 11.85 11.85 0 0 1 1-2.28c.27-.38.57-.79.92-1.22a8.07 8.07 0 0 1 1.23-1.26c.48-.4 1-.81 1.63-1.22a20.42 20.42 0 0 1 2.09-1 14.65 14.65 0 0 1 8.37-.62 12.93 12.93 0 0 1 2.44.8 10.26 10.26 0 0 1 2 1.09 9.41 9.41 0 0 1 1.56 1.23 11.73 11.73 0 0 1 2.12 2.66 14.16 14.16 0 0 1 1.23 2.64c1.25 3.53 1.56 6.43 4.45 10.2l-3.31-2.13a44.54 44.54 0 0 0-7.61-3.82c-.35-.13-.69-.28-1-.39s-.71-.19-1-.3c-.67-.25-1.37-.28-2-.47-.32-.07-.64-.07-.94-.13a3.92 3.92 0 0 0-.89-.1 7.6 7.6 0 0 1-.85-.1 4.58 4.58 0 0 1-.83 0c-1.08 0-2.15-.12-3.44-.06-.66-.06-1.34.06-2.12 0s-1.56.12-2.48.1c0 0 .29-.49.86-1.35a12.07 12.07 0 0 1 3-2.88 10.63 10.63 0 0 1 5.36-1.81 10.77 10.77 0 0 1 5.85 1.31c-.23-.19-.57-.47-1-.81s-1.09-.61-1.8-1a14.49 14.49 0 0 0-2.52-.76 11.53 11.53 0 0 0-3.07-.11 12 12 0 0 0-3.23.77 11.23 11.23 0 0 0-2.82 1.81 9.34 9.34 0 0 0-2.05 2.49 9.64 9.64 0 0 0-1.23 2.94ZM314.08 433.79a10.07 10.07 0 0 1-.9 1.47 25.33 25.33 0 0 1-3.15 3.57 47.42 47.42 0 0 1-5.82 4.69c-2.38 1.7-5.27 3.46-8.38 5.46-1.55 1-2.86 1.78-4.05 2.41a26.46 26.46 0 0 1-3.25 1.53c-2 .82-3.91 1.33-5.78 2.23a9.71 9.71 0 0 0-4.63 4.33 9.27 9.27 0 0 0 .14 8.07s-.38-.38-1.06-1.15a17.66 17.66 0 0 1-2.39-3.71 17.24 17.24 0 0 1-1.71-6.89 20.76 20.76 0 0 1 1.94-9.35 26.43 26.43 0 0 1 6.48-8.6 30.06 30.06 0 0 1 9.14-5.59c6.55-2.52 13.47-2.58 19.22 0l-2.7 1.22c-1.67.78-4 1.86-6.54 3.2s-5.33 2.9-8 4.57-5.15 3.43-7.36 5c.8-.34 2.32-1 4.31-1.84s4.47-1.72 7.19-2.69 5.68-2 8.64-3.29a44.84 44.84 0 0 0 8.66-4.64Zm-22.81-12.94-.2-.18c-.13-.1-.32-.27-.56-.48s-.5-.44-.8-.67a11 11 0 0 0-1-.78 8.53 8.53 0 0 0-1.09-.77 6.71 6.71 0 0 0-1.23-.69 9.39 9.39 0 0 0-3.27-.79c-1.34-.14-3-.16-4.67-.39a28.41 28.41 0 0 1-5.16-1.11 25.88 25.88 0 0 1-4.11-1.72l-1.68-.9.5 1.46.26.73.37.81a19.11 19.11 0 0 0 .9 1.82 30.45 30.45 0 0 0 5.16 6.63c.38.35.83.82 1.37 1.37s1.22 1.11 2 1.69a16 16 0 0 0 5.72 2.76 10.29 10.29 0 0 0 6.55-.48 6.86 6.86 0 0 0 2.49-1.92 7.11 7.11 0 0 0 1.34-3 7.1 7.1 0 0 0-1.16-.44l-.62-.18-.73-.23c-.26-.07-.54-.15-.84-.21s-.61-.19-.95-.27c-1.33-.35-2.95-.69-5-1.24a44.54 44.54 0 0 1-7.58-2.64s.58 0 1.47.07 2.13.11 3.48.19 2.78.22 4.26.42a28.7 28.7 0 0 1 4.78 1.14Zm261.04-31.99s.43.4 1.21 1a26 26 0 0 0 3.2 2.15 23.35 23.35 0 0 0 12.63 2.81 65.27 65.27 0 0 0 12.23-1.25c2.73-.54 4.64-.95 5.84-.4a8.45 8.45 0 0 0-.41-1.25 14.12 14.12 0 0 0-1.7-3 24.13 24.13 0 0 0-8.29-7 26.83 26.83 0 0 0-13.87-3.17 23.73 23.73 0 0 0-8.32 1.89 19.07 19.07 0 0 0-4.14 2.43 10.56 10.56 0 0 0-3.25 4 10 10 0 0 1 3.09-1.25 18.93 18.93 0 0 1 3.14-.48 39.21 39.21 0 0 1 6.23.08 64.2 64.2 0 0 1 12.1 2.33 64.5 64.5 0 0 0-10.18-.4 32.87 32.87 0 0 0-9.51 1.51Zm-5.91 5.78.27-.3a6 6 0 0 1 .85-.72 6.64 6.64 0 0 1 3.73-1.13c3.37-.14 8 1.18 12.21 5.32s3.79 8.2 3.16 11.81a26.55 26.55 0 0 0-.66 5.25 8.15 8.15 0 0 0 .45 2.54 14.44 14.44 0 0 0 1.4 2.78s-.38-.27-1-.64-1.6-.86-2.72-1.42a81.68 81.68 0 0 1-8.09-4.47 25.71 25.71 0 0 1-7.47-6.89 13 13 0 0 1-2-9.79 6.57 6.57 0 0 1 1.53.33 20.51 20.51 0 0 1 3.89 1.8c3 1.73 6.47 4.5 8.18 7.48a18.76 18.76 0 0 0-3.28-7.22 14.74 14.74 0 0 0-4.34-4 9.44 9.44 0 0 0-3-1.17 4.13 4.13 0 0 0-3.11.44Z"/><path class="cls-1" d="M94.58 364.77a18.33 18.33 0 0 0-4.58-1.26 19.05 19.05 0 0 0-10.46 1.29 26.44 26.44 0 0 0-9 7 28.54 28.54 0 0 0-3.15 4.42s1.84-.66 4.19-1.32a54.7 54.7 0 0 1 7.15-1.55c1.8-.26 5.62-.24 9.43-.81s7.68-1.72 9.88-5a8.75 8.75 0 0 0-1.31-.46 18.33 18.33 0 0 0-4-.68 33.56 33.56 0 0 0-16.15 3.33 17 17 0 0 1 4.62-3 23.62 23.62 0 0 1 13.38-1.96ZM131.14 217s0 .55.05 1.26a12.5 12.5 0 0 0 .39 2.61 21.21 21.21 0 0 1 .74 3.29 12.2 12.2 0 0 1 .07 1.36v.48a9.34 9.34 0 0 0 .94-1.49 11.08 11.08 0 0 0 .91-2.71 7.33 7.33 0 0 0 0-3.69c-.41-1.49-1.62-2.75-2.91-2.54a3.92 3.92 0 0 0 .12.42c.09.27.23.65.4 1.16a16.1 16.1 0 0 1 1 4.91Z"/><circle class="cls-1" cx="117.87" cy="328.11" r="16.91"/><circle class="cls-1" cx="404.36" cy="69.59" r="16.91"/><circle class="cls-1" cx="221.43" cy="176.24" r="16.91"/><circle class="cls-1" cx="71.4" cy="182.47" r="21.46"/><circle class="cls-1" cx="95.28" cy="170.21" r="2.06"/><circle class="cls-1" cx="149.15" cy="193.78" r="2.06"/><circle class="cls-1" cx="164.46" cy="171.73" r="2.06"/><circle class="cls-1" cx="195.81" cy="118.74" r="3.19"/><circle class="cls-1" cx="238.63" cy="154.57" r="3.19"/><circle class="cls-1" cx="301.18" cy="113.74" r="3.19"/><circle class="cls-1" cx="378.94" cy="27.29" r="3.19"/><circle class="cls-1" cx="462.56" cy="67.26" r="3.19"/><circle class="cls-1" cx="476.46" cy="27.51" r="3.19"/><circle class="cls-1" cx="490.58" cy="75.29" r="3.19"/><circle class="cls-1" cx="575.07" cy="143.06" r="3.19"/><circle class="cls-1" cx="650.21" cy="181.5" r="3.19"/><circle class="cls-1" cx="690.61" cy="224.07" r="3.19"/><circle class="cls-1" cx="800.73" cy="303.35" r="3.19"/><circle class="cls-1" cx="745.41" cy="340.05" r="3.19"/><circle class="cls-1" cx="669.7" cy="257.74" r="3.19"/><circle class="cls-1" cx="592.66" cy="426.28" r="3.19"/><circle class="cls-1" cx="538.79" cy="408.04" r="3.19"/><circle class="cls-1" cx="357.33" cy="522.28" r="3.19"/><circle class="cls-1" cx="256.98" cy="449.95" r="3.19"/><circle class="cls-1" cx="150.78" cy="382.84" r="3.19"/><circle class="cls-1" cx="65.58" cy="363.52" r="3.19"/><circle class="cls-1" cx="264.22" cy="480.9" r="3.19"/><circle class="cls-1" cx="649.56" cy="362.58" r="3.19"/><circle class="cls-1" cx="591.35" cy="297.27" r="3.19"/><circle class="cls-1" cx="221.15" cy="212.45" r="3.19"/><circle class="cls-1" cx="224.08" cy="202.94" r="3.19"/><circle class="cls-1" cx="754.47" cy="239.93" r="3.19"/><circle class="cls-1" cx="745.13" cy="266.43" r="3.19"/><circle class="cls-1" cx="648.69" cy="197.79" r="3.19"/><circle class="cls-1" cx="568.11" cy="176.36" r="3.19"/><ellipse class="cls-1" cx="601.85" cy="209.56" rx="2.11" ry="1.92"/><circle class="cls-1" cx="588.97" cy="176.29" r="3.19"/><circle class="cls-1" cx="563.99" cy="85.72" r="3.19"/><circle class="cls-1" cx="430.2" cy="71.39" r="3.19"/><circle class="cls-1" cx="175.61" cy="120.98" r="2.06"/><circle class="cls-1" cx="216.63" cy="156.37" r="2.06"/><circle class="cls-1" cx="249.17" cy="154.57" r="2.06"/><circle class="cls-1" cx="232.85" cy="359.12" r="2.06"/><circle class="cls-1" cx="239.3" cy="100.28" r="2.06"/><circle class="cls-1" cx="171.3" cy="137.3" r="2.06"/><circle class="cls-1" cx="258.18" cy="120.04" r="2.06"/><circle class="cls-1" cx="311.92" cy="107.79" r="2.06"/><circle class="cls-1" cx="370.15" cy="42.5" r="2.06"/><circle class="cls-1" cx="311.61" cy="92.67" r="2.06"/><circle class="cls-1" cx="294.52" cy="106.45" r="2.06"/><circle class="cls-1" cx="351.18" cy="90.93" r="2.06"/><circle class="cls-1" cx="371.34" cy="27.73" r="2.06"/><circle class="cls-1" cx="363.27" cy="45.83" r="1.38"/><circle class="cls-1" cx="417.38" cy="23.17" r="1.38"/><circle class="cls-1" cx="422.38" cy="25.56" r="1.38"/><circle class="cls-1" cx="426.5" cy="29.9" r="1.38"/><circle class="cls-1" cx="427.51" cy="35.33" r="1.38"/><circle class="cls-1" cx="464.73" cy="52.49" r="1.38"/><circle class="cls-1" cx="471.82" cy="35.77" r="1.38"/><circle class="cls-1" cx="452.35" cy="10.86" r="1.38"/><circle class="cls-1" cx="485.36" cy="67.8" r="1.38"/><circle class="cls-1" cx="471.46" cy="95.06" r="1.38"/><circle class="cls-1" cx="495.35" cy="86.15" r="1.38"/><circle class="cls-1" cx="505.35" cy="105.48" r="1.38"/><circle class="cls-1" cx="511.57" cy="111.13" r="1.38"/><circle class="cls-1" cx="555.95" cy="77.54" r="1.38"/><circle class="cls-1" cx="546.1" cy="119.17" r="1.38"/><circle class="cls-1" cx="534.45" cy="142.63" r="1.38"/><circle class="cls-1" cx="611.77" cy="134.15" r="1.38"/><circle class="cls-1" cx="695.61" cy="218.5" r="1.38"/><circle class="cls-1" cx="558.74" cy="166.52" r="1.38"/><circle class="cls-1" cx="562.25" cy="174.74" r="1.38"/><circle class="cls-1" cx="506.54" cy="115.05" r="1.38"/><circle class="cls-1" cx="499.48" cy="105.24" r="1.38"/><circle class="cls-1" cx="527.11" cy="135.62" r="1.38"/><circle class="cls-1" cx="565.76" cy="183.13" r="1.38"/><circle class="cls-1" cx="720.18" cy="189.35" r="1.84"/><circle class="cls-1" cx="673.56" cy="308.56" r="1.84"/><circle class="cls-1" cx="575.72" cy="358.52" r="1.84"/><circle class="cls-1" cx="544.01" cy="405" r="1.84"/><circle class="cls-1" cx="573.54" cy="408.91" r="1.84"/><circle class="cls-1" cx="571.05" cy="456.68" r="1.84"/><circle class="cls-1" cx="517.94" cy="433.67" r="1.84"/><circle class="cls-1" cx="555.41" cy="449.84" r="1.84"/><circle class="cls-1" cx="491.45" cy="462.87" r="1.84"/><circle class="cls-1" cx="496.66" cy="462.33" r="1.84"/><circle class="cls-1" cx="501" cy="458.86" r="1.84"/><circle class="cls-1" cx="503.61" cy="454.18" r="1.84"/><circle class="cls-1" cx="503.61" cy="448.43" r="1.84"/><circle class="cls-1" cx="501" cy="442.79" r="1.84"/><circle class="cls-1" cx="310.41" cy="520.11" r="1.84"/><circle class="cls-1" cx="360.8" cy="557.47" r="1.84"/><circle class="cls-1" cx="348.42" cy="519.02" r="1.84"/><circle class="cls-1" cx="195.29" cy="441.48" r="1.84"/><circle class="cls-1" cx="88.43" cy="384.14" r="1.84"/><circle class="cls-1" cx="45.22" cy="371.44" r="1.84"/><circle class="cls-1" cx="55.65" cy="368.39" r="1.84"/><circle class="cls-1" cx="345.6" cy="534.99" r="1.84"/><circle class="cls-1" cx="471.03" cy="509.68" r="1.84"/><circle class="cls-1" cx="453.76" cy="452.77" r="1.84"/><circle class="cls-1" cx="461.58" cy="450.82" r="1.84"/><circle class="cls-1" cx="470.38" cy="448.86" r="1.84"/><circle class="cls-1" cx="421.07" cy="548.88" r="1.84"/><circle class="cls-1" cx="596.57" cy="284.77" r="1.84"/><circle class="cls-1" cx="229.94" cy="195.72" r="1.84"/><circle class="cls-1" cx="540.86" cy="455.82" r="1.84"/><circle class="cls-1" cx="650.87" cy="292.39" r="1.84"/><circle class="cls-1" cx="666.94" cy="265.46" r="1.84"/><circle class="cls-1" cx="699.08" cy="268.6" r="1.84"/><circle class="cls-1" cx="738.61" cy="356.45" r="1.84"/><circle class="cls-1" cx="761.63" cy="339.84" r="1.84"/><circle class="cls-1" cx="758.93" cy="334.19" r="1.84"/><circle class="cls-1" cx="744.69" cy="321.26" r="1.84"/><circle class="cls-1" cx="666.07" cy="310.73" r="1.84"/><circle class="cls-1" cx="661.73" cy="316.38" r="1.84"/><circle class="cls-1" cx="659.12" cy="323.76" r="1.84"/><circle class="cls-1" cx="659.55" cy="331.58" r="1.84"/><circle class="cls-1" cx="661.73" cy="337.67" r="1.84"/><circle class="cls-1" cx="725.48" cy="186.72" r="1.84"/><circle class="cls-1" cx="731.88" cy="185.85" r="1.84"/><circle class="cls-1" cx="736.87" cy="188.02" r="1.84"/><circle class="cls-1" cx="741.65" cy="190.84" r="1.84"/><circle class="cls-1" cx="687.35" cy="194.61" r="1.38"/><circle class="cls-1" cx="696.04" cy="232.19" r="1.38"/><circle class="cls-1" cx="727.54" cy="259.18" r="1.38"/><circle class="cls-1" cx="770.83" cy="254.26" r="1.38"/><circle class="cls-1" cx="651.08" cy="200.18" r="1.38"/><circle class="cls-1" cx="684.53" cy="228.06" r="1.38"/><circle class="cls-1" cx="578.25" cy="134.37" r="1.38"/><circle class="cls-1" cx="600.26" cy="183.67" r="1.38"/><circle class="cls-1" cx="609.6" cy="197.79" r="1.38"/><circle class="cls-1" cx="604.74" cy="199.75" r="1.38"/><circle class="cls-1" cx="602" cy="204.09" r="1.38"/><circle class="cls-1" cx="585.8" cy="234.76" r="1.38"/><circle class="cls-1" cx="615.25" cy="198.66" r="1.38"/><circle class="cls-1" cx="620.02" cy="201.05" r="1.38"/><circle class="cls-1" cx="580.71" cy="196.05" r="1.38"/><circle class="cls-1" cx="551.31" cy="117.86" r="1.38"/><circle class="cls-1" cx="530.54" cy="59.01" r="1.38"/><circle class="cls-1" cx="488.62" cy="78.85" r="1.38"/><circle class="cls-1" cx="412.17" cy="23.9" r="1.38"/><circle class="cls-1" cx="373.51" cy="77.25" r="1.38"/><circle class="cls-1" cx="358.96" cy="49.88" r="1.38"/><circle class="cls-1" cx="356.86" cy="55.75" r="1.38"/><circle class="cls-1" cx="356.13" cy="61.61" r="1.38"/><circle class="cls-1" cx="169.59" cy="165.97" r="1.67"/><circle class="cls-1" cx="176.59" cy="163.84" r="1.33"/><circle class="cls-1" cx="184.4" cy="164.17" r="1.34"/><circle class="cls-1" cx="189.06" cy="167.63" r="1.21"/><circle class="cls-1" cx="96.59" cy="192.48" r="2.06"/><circle class="cls-1" cx="72.04" cy="212.46" r="2.06"/><circle class="cls-1" cx="60.32" cy="268.16" r="2.06"/><circle class="cls-1" cx="69.33" cy="250.79" r="2.06"/><circle class="cls-1" cx="30.13" cy="284.45" r="2.06"/><circle class="cls-1" cx="28.82" cy="316.81" r="2.06"/><circle class="cls-1" cx="68.13" cy="322.24" r="2.06"/><circle class="cls-1" cx="118.96" cy="292.16" r="2.06"/><ellipse class="cls-1" cx="17.53" cy="231.67" rx="1.13" ry="1.29"/><ellipse class="cls-1" cx="17.53" cy="237.31" rx="1.13" ry="1.29"/><ellipse class="cls-1" cx="18.61" cy="267.94" rx="1.13" ry="1.29"/><ellipse class="cls-1" cx="24.26" cy="328.54" rx="1.13" ry="1.29"/><ellipse class="cls-1" cx="23.83" cy="311.38" rx="1.13" ry="1.29"/><ellipse class="cls-1" cx="36.86" cy="272.68" rx="1.13" ry="1.29"/><ellipse class="cls-1" cx="36.51" cy="277.63" rx="1.13" ry="1.29"/><ellipse class="cls-1" cx="34.82" cy="282.05" rx="1.13" ry="1.29"/><ellipse class="cls-1" cx="102.84" cy="305.3" rx="1.13" ry="1.29"/><ellipse class="cls-1" cx="124.82" cy="293.15" rx="1.13" ry="1.29"/><ellipse class="cls-1" cx="192.15" cy="360.69" rx="1.13" ry="1.29"/><ellipse class="cls-1" cx="228.48" cy="349.62" rx="2.28" ry="2.6"/><ellipse class="cls-1" cx="235.81" cy="365.9" rx="2.28" ry="2.6"/><ellipse class="cls-1" cx="185.31" cy="409.88" rx="2.28" ry="2.6"/><ellipse class="cls-1" cx="171.3" cy="324.52" rx="2.28" ry="2.6"/><ellipse class="cls-1" cx="217.89" cy="314.75" rx="2.28" ry="2.6"/><ellipse class="cls-1" cx="129.6" cy="246.01" rx="2.28" ry="2.6"/><ellipse class="cls-1" cx="246.88" cy="429.76" rx="2.28" ry="2.6"/><ellipse class="cls-1" cx="302.27" cy="457.12" rx="2.28" ry="2.6"/><ellipse class="cls-1" cx="353.75" cy="455.82" rx="2.28" ry="2.6"/><ellipse class="cls-1" cx="358.96" cy="511.2" rx="2.28" ry="2.6"/><ellipse class="cls-1" cx="384.59" cy="494.91" rx="2.28" ry="2.6"/><ellipse class="cls-1" cx="216.04" cy="423.03" rx="1.13" ry="1.29"/><ellipse class="cls-1" cx="221.47" cy="427.15" rx="1.13" ry="1.29"/><ellipse class="cls-1" cx="228.04" cy="430.19" rx="1.13" ry="1.29"/><ellipse class="cls-1" cx="234.5" cy="431.93" rx="1.13" ry="1.29"/><ellipse class="cls-1" cx="317.47" cy="493.39" rx="1.13" ry="1.29"/><ellipse class="cls-1" cx="320.73" cy="496.87" rx="1.13" ry="1.29"/><ellipse class="cls-1" cx="325.29" cy="500.33" rx="1.13" ry="1.29"/><ellipse class="cls-1" cx="464.95" cy="518.81" rx="1.13" ry="1.29"/><ellipse class="cls-1" cx="483.19" cy="512.29" rx="1.13" ry="1.29"/><ellipse class="cls-1" cx="265.3" cy="447.02" rx="1.13" ry="1.29"/><ellipse class="cls-1" cx="266.91" cy="466.24" rx="1.13" ry="1.29"/><ellipse class="cls-1" cx="296.41" cy="455.49" rx="1.13" ry="1.29"/><ellipse class="cls-1" cx="414.99" cy="470.15" rx="1.13" ry="1.29"/><ellipse class="cls-1" cx="420.64" cy="466.46" rx="1.13" ry="1.29"/><ellipse class="cls-1" cx="426.24" cy="463.86" rx="1.13" ry="1.29"/><ellipse class="cls-1" cx="599.56" cy="455.17" rx="1.13" ry="1.29"/><ellipse class="cls-1" cx="439.75" cy="464.51" rx="1.13" ry="1.29"/><ellipse class="cls-1" cx="315.56" cy="488.83" rx="1.13" ry="1.29"/><ellipse class="cls-1" cx="241.02" cy="432.04" rx="1.13" ry="1.29"/><ellipse class="cls-1" cx="195.19" cy="365.47" rx="1.13" ry="1.29"/><ellipse class="cls-1" cx="199.49" cy="368.94" rx="1.13" ry="1.29"/><ellipse class="cls-1" cx="204.53" cy="370.9" rx="1.13" ry="1.29"/><ellipse class="cls-1" cx="148.88" cy="391.31" rx="1.13" ry="1.29"/><ellipse class="cls-1" cx="159.57" cy="324.19" rx="1.13" ry="1.29"/><ellipse class="cls-1" cx="217.56" cy="308.24" rx="1.13" ry="1.29"/><ellipse class="cls-1" cx="178.3" cy="253.39" rx="1.13" ry="1.29"/><ellipse class="cls-1" cx="139.87" cy="241.12" rx="1.13" ry="1.29"/><ellipse class="cls-1" cx="155.88" cy="256.22" rx="1.13" ry="1.29"/><ellipse class="cls-1" cx="126.12" cy="264.25" rx="1.13" ry="1.29"/><ellipse class="cls-1" cx="157.26" cy="306.69" rx="1.13" ry="1.29"/><ellipse class="cls-1" cx="134.49" cy="243.39" rx="1.13" ry="1.29"/><ellipse class="cls-1" cx="209.53" cy="370.24" rx="1.13" ry="1.29"/><ellipse class="cls-1" cx="130.47" cy="295.1" rx="1.13" ry="1.29"/><ellipse class="cls-1" cx="136.29" cy="300.74" rx="1.13" ry="1.29"/><ellipse class="cls-1" cx="60.1" cy="263.17" rx="1.13" ry="1.29"/><circle class="cls-1" cx="511.43" cy="491" r="16.91"/><circle class="cls-1" cx="523.19" cy="84.78" r="21.98"/><circle class="cls-2" cx="266.11" cy="501.76" r="9.69"/><circle class="cls-1" cx="668.79" cy="208.57" r="13.96"/><circle class="cls-2" cx="565.22" cy="94.19" r="8.83"/><circle class="cls-2" cx="155.57" cy="139.98" r="8.83"/><circle class="cls-2" cx="162.18" cy="339.55" r="8.83"/><circle class="cls-2" cx="239.72" cy="448" r="8.83"/><circle class="cls-2" cx="506.87" cy="508.89" r="8.83"/><circle class="cls-2" cx="534.38" cy="469.97" r="4.42"/><circle class="cls-2" cx="519.25" cy="116.67" r="4.42"/><circle class="cls-2" cx="639.14" cy="322.24" r="8.83"/><circle class="cls-2" cx="622.63" cy="391.31" r="8.83"/><circle class="cls-2" cx="585.06" cy="183.46" r="8.83"/><circle class="cls-2" cx="324.9" cy="482.02" r="8.83"/><circle class="cls-2" cx="416.73" cy="552.69" r="5.41"/><circle class="cls-2" cx="31.95" cy="186.99" r="7.62"/><circle class="cls-1" cx="612.51" cy="341.97" r="30.7"/><circle class="cls-1" cx="235.06" cy="402.69" r="25.03"/><path class="cls-3" d="M82.57 186H65.25v-.86l15.9-2.1a1.7 1.7 0 0 0 1.46-1.67v-5.25a1.58 1.58 0 0 0-1.61-1.59H65.25v-1.2a1.93 1.93 0 0 0-1.94-1.93h-3.07a1.23 1.23 0 1 0 0 2.46h2.55v12.66a1.92 1.92 0 0 0 1.93 1.93h17.85a1.23 1.23 0 1 0 0-2.46Zm-10.4-3.55-3 .4v-6.55h3Zm1.41-6.15h3v5.57l-3 .4Zm7.28 5-2.85.38v-5.38h2.85Zm-13.12-5v6.7l-2.49.33v-7.07Zm.64 12.38a2.44 2.44 0 1 0 2.44 2.44 2.43 2.43 0 0 0-2.44-2.44Zm11.73 0a2.44 2.44 0 1 0 2.43 2.44 2.44 2.44 0 0 0-2.43-2.44Zm596.21 22.58h-12.89v-.64l11.83-1.56a1.26 1.26 0 0 0 1.09-1.24v-3.91a1.18 1.18 0 0 0-1.18-1.18h-11.74v-.89a1.44 1.44 0 0 0-1.43-1.44h-2.3a.92.92 0 1 0 0 1.83h1.89v9.42a1.45 1.45 0 0 0 1.44 1.44h13.29a.92.92 0 0 0 0-1.83Zm-7.74-2.64-2.25.3V204h2.25Zm1-4.58h2.25v4.15l-2.25.29Zm5.41 3.73-2.12.28v-4H675Zm-9.71-3.77v5l-1.85.24V204Zm.48 9.27a1.81 1.81 0 1 0 1.81 1.81 1.81 1.81 0 0 0-1.81-1.81Zm8.72 0a1.81 1.81 0 1 0 1.82 1.81 1.82 1.82 0 0 0-1.82-1.81Z" id="Shopping_Cart_2" data-name="Shopping Cart 2"/><path class="cls-3" d="M595.37 329.51v24.92h34.27v-24.92Zm17.14 16 4.31-3.1 9.08 9.46h-26.79l9.08-9.46Zm0-4.47-10.91-7.86h21.82Zm-5.6.45-8.91 9.28V335Zm20.09 9.29-8.94-9.33L627 335ZM211 169.51v15.42h20.93v-15.42Zm10.47 9.88 2.64-1.93 5.54 5.86h-16.4l5.54-5.86Zm0-2.77-6.67-4.86h13.33Zm-3.42.28-5.46 5.77v-9.76Zm12.3 5.77-5.46-5.77 5.46-4Z" id="Email"/><path class="cls-3" d="M416.78 79.67h-.88c-1.32 0-1.82-.33-2-.53a1.17 1.17 0 0 1-.3-.9 3.08 3.08 0 0 1 .09-.72 12.56 12.56 0 1 0-2.58 2.23 3.68 3.68 0 0 0 .84 1.32 5.35 5.35 0 0 0 3.94 1.34h1.13Zm-19.39-6.87a3.56 3.56 0 1 1 3.09-3.53 3.33 3.33 0 0 1-3.09 3.53Zm6.86 6.43a3.12 3.12 0 1 1 3.53-3.09 3.34 3.34 0 0 1-3.53 3.09Zm-1.7-10a1.7 1.7 0 1 1 1.7 1.7 1.7 1.7 0 0 1-1.7-1.66Zm1.7-3.77a3.12 3.12 0 1 1 3.53-3.09 3.34 3.34 0 0 1-3.53 3.13Zm3.75 3.81a3.12 3.12 0 1 1 3.09 3.53 3.33 3.33 0 0 1-3.09-3.53Zm116.92 432.9a7.38 7.38 0 0 1-.9.05c-1.36 0-1.87-.33-2.08-.54a1.27 1.27 0 0 1-.3-.93 3.17 3.17 0 0 1 .09-.73 12.87 12.87 0 1 0-2.64 2.28 3.63 3.63 0 0 0 .85 1.36 5.5 5.5 0 0 0 4 1.38c.36 0 .75 0 1.16-.06ZM505 495.12a3.65 3.65 0 1 1 3.17-3.62 3.42 3.42 0 0 1-3.17 3.62Zm7.05 6.6a3.2 3.2 0 1 1 3.62-3.17 3.42 3.42 0 0 1-3.6 3.17Zm-1.75-10.22a1.75 1.75 0 1 1 1.75 1.75 1.75 1.75 0 0 1-1.73-1.75Zm1.75-3.87a3.2 3.2 0 1 1 3.62-3.17 3.42 3.42 0 0 1-3.6 3.17Zm3.87 3.87a3.2 3.2 0 1 1 3.17 3.62 3.42 3.42 0 0 1-3.15-3.62Z" id="Video"/><path class="cls-3" d="m245.55 395.24-1.73-2.44a2.83 2.83 0 0 0-2.19-1.12h-2.57a2.83 2.83 0 0 0-2.19 1.12l-1.68 2.36h-9.82a4.22 4.22 0 0 0-4.21 4.21v10.11a4.22 4.22 0 0 0 4.21 4.21h19.38a4.22 4.22 0 0 0 4.21-4.21v-10.11a4.22 4.22 0 0 0-3.41-4.13Zm-7-1.21a.52.52 0 0 1 .21-.16.82.82 0 0 1 .26-.09h2.57a.72.72 0 0 1 .25.09.6.6 0 0 1 .22.16l.81 1.13h-5.13Zm-4.38 16.26a6 6 0 1 1 6-6 6 6 0 0 1-5.96 6Zm-10.52-.81v-10.11a1.71 1.71 0 0 1 1.68-1.69h2.82a8.92 8.92 0 0 0 .3 13.48h-3.12a1.7 1.7 0 0 1-1.64-1.68Zm22.74 0a1.7 1.7 0 0 1-1.68 1.68h-4.82a8.92 8.92 0 0 0 .3-13.48h4.52a1.71 1.71 0 0 1 1.68 1.69Z" id="Photo"/><path class="cls-3" d="M535 90.88V73.21l-17.14 2.3v13.92a5.49 5.49 0 0 0-2.24-.23c-2.52.24-4.4 2-4.21 4s2.39 3.37 4.9 3.12 4.41-2 4.22-4V80.15l11.82-1.73v9.67a5.67 5.67 0 0 0-2.24-.23c-2.52.25-4.4 2-4.21 4s2.38 3.36 4.9 3.12 4.41-2 4.22-4a.3.3 0 0 1-.02-.1Zm-409.5 241.4v-14l-13.5 1.86v11a4.48 4.48 0 0 0-1.77-.18c-2 .19-3.48 1.61-3.33 3.16s1.89 2.66 3.88 2.47 3.48-1.61 3.33-3.17v-9.62l9.33-1.36v7.63a4.48 4.48 0 0 0-1.77-.18c-2 .2-3.48 1.61-3.32 3.17s1.88 2.65 3.87 2.46 3.48-1.61 3.33-3.16c-.04-.03-.04-.05-.05-.08Z" id="Music"/><g id="Favorite"><g class="cls-4"><path class="cls-1" d="M255.78 99.25a7.16 7.16 0 0 1 .73-.34c1.61-.67 4.13-.21 5.78 2.36l.48.9c1.17 2.68.92 6.89-2.63 13.89-7.8-1-11.44-3.09-13-5.55l-.48-.9c-1.22-2.8-.19-5.15 1.26-6.11q.36-.24.69-.42c1.77-.94 3-.63 4.62 0 .35-1.68.79-2.9 2.56-3.84m.91 1.71c-1 .54-1.27 1.08-1.58 2.53l-.47 2.26-2.15-.86c-1.37-.56-2-.64-3-.1-.17.09-.34.2-.53.32-.67.45-1.36 1.79-.58 3.66l.4.75c1.41 2.14 4.84 3.63 10.21 4.44 2.32-4.92 3-8.6 2-10.95l-.4-.75c-1.12-1.7-2.62-1.87-3.37-1.56a5.85 5.85 0 0 0-.56.26Z"/></g><g class="cls-4"><path class="cls-1" d="m349.84 30.11.43-.21a2.92 2.92 0 0 1 3.48 1.42l.29.54c.7 1.62.55 4.15-1.58 8.36-4.7-.57-6.88-1.86-7.83-3.34l-.29-.54a2.92 2.92 0 0 1 .76-3.68l.41-.25a2.89 2.89 0 0 1 2.78 0 2.89 2.89 0 0 1 1.55-2.31m.54 1c-.61.32-.76.65-.95 1.52l-.28 1.38-1.29-.52a1.79 1.79 0 0 0-1.8-.06l-.31.19a1.76 1.76 0 0 0-.35 2.21l.24.45c.84 1.28 2.91 2.18 6.14 2.67 1.4-3 1.8-5.17 1.21-6.59l-.24-.45a1.79 1.79 0 0 0-2-.94 2.68 2.68 0 0 0-.34.16Z"/></g><g class="cls-4"><path class="cls-1" d="M335.48 79.88c.23-.15.47-.3.75-.45 1.66-.9 4.42-.68 6.48 1.91l.61.91c1.55 2.75 1.75 7.3-1.3 15.24-8.5-.17-12.64-2.07-14.61-4.55l-.61-.94c-1.62-2.88-.77-5.52.68-6.72.24-.19.47-.37.7-.52 1.8-1.21 3.18-1 5-.5.19-1.84.53-3.2 2.33-4.41m1.17 1.74c-1 .69-1.25 1.3-1.42 2.89L335 87l-2.41-.69c-1.53-.45-2.18-.47-3.21.22-.17.11-.35.25-.54.4-.67.55-1.27 2.07-.22 4l.51.76c1.75 2.14 5.61 3.36 11.48 3.64 1.95-5.54 2.28-9.57.95-12l-.51-.76c-1.4-1.7-3-1.72-3.8-1.3a5 5 0 0 0-.57.34Z"/></g><g class="cls-4"><path class="cls-1" d="M197.32 127.84c.38-.17.79-.34 1.24-.49 2.72-.93 6.83.1 9.27 4.51l.69 1.53c1.64 4.54.78 11.45-5.82 22.61-12.75-2.4-18.51-6.31-20.84-10.54l-.69-1.53c-1.7-4.75.23-8.5 2.73-9.94a12.15 12.15 0 0 1 1.18-.61c3-1.37 5-.72 7.6.51.77-2.73 1.62-4.69 4.64-6m1.32 2.91c-1.73.79-2.21 1.65-2.87 4l-1 3.67-3.44-1.65c-2.2-1.06-3.17-1.26-4.9-.47a7.68 7.68 0 0 0-.9.46c-1.16.67-2.45 2.8-1.36 6l.58 1.27c2.09 3.67 7.59 6.49 16.35 8.4 4.35-7.85 5.86-13.83 4.48-17.83l-.58-1.27c-1.67-2.92-4.12-3.36-5.38-2.93-.35.12-.66.24-1 .37Z"/></g><g class="cls-4"><path class="cls-1" d="M132.54 250.15c.3-.16.63-.32 1-.47 2.21-.91 5.65-.28 7.91 3.24l.65 1.22c1.61 3.67 1.26 9.42-3.6 19-10.67-1.3-15.64-4.23-17.79-7.6l-.65-1.22c-1.67-3.84-.27-7.05 1.72-8.37.33-.22.64-.41.94-.57 2.42-1.29 4.14-.86 6.32 0 .48-2.29 1.09-4 3.51-5.25m1.25 2.34c-1.4.74-1.75 1.48-2.17 3.46L131 259l-3-1.14c-1.88-.75-2.69-.87-4.08-.13a7.36 7.36 0 0 0-.72.44c-.92.61-1.87 2.44-.8 5l.55 1c1.92 2.92 6.62 5 14 6.07 3.17-6.72 4.1-11.76 2.74-15l-.54-1c-1.54-2.33-3.59-2.56-4.61-2.14-.28.12-.54.24-.76.36Z"/></g><g class="cls-4"><path class="cls-1" d="M147.61 156.27a9.52 9.52 0 0 1 .93.27c2 .68 3.91 3.1 3.35 6.74l-.28 1.19c-1.08 3.35-4.65 7-13.44 10.47-6.3-7.07-7.88-11.9-7.34-15.38l.28-1.19c1.13-3.5 3.92-4.81 6-4.53.34 0 .66.1.95.17 2.35.56 3.24 1.84 4.17 3.69 1.65-1.24 3-2 5.37-1.43m-.53 2.27c-1.35-.32-2 0-3.45 1l-2.23 1.66-1.25-2.48c-.8-1.6-1.27-2.14-2.62-2.46a6.33 6.33 0 0 0-.73-.14c-1-.13-2.66.53-3.44 2.86l-.24 1c-.42 3.05 1.49 7.13 5.71 12.14 6-2.6 9.55-5.39 10.53-8.31l.23-1c.34-2.43-.88-3.78-1.8-4.09a6.12 6.12 0 0 0-.71-.21Z"/></g><g class="cls-4"><path class="cls-1" d="M158.88 354.82c.16-.21.34-.43.54-.65 1.25-1.35 3.86-2 6.57-.28l.85.64c2.3 2.05 3.92 6.18 3.61 14.45-7.88 2.52-12.3 2.08-14.89.42l-.85-.65c-2.4-2.14-2.45-4.84-1.49-6.4a8.49 8.49 0 0 1 .48-.7c1.27-1.69 2.61-1.94 4.42-2-.4-1.76-.52-3.12.76-4.8m1.62 1.23c-.73 1-.74 1.6-.39 3.12l.54 2.37-2.43.12c-1.56.08-2.16.25-2.9 1.22a6.32 6.32 0 0 0-.36.54c-.45.72-.52 2.31 1.06 3.76l.71.54c2.28 1.42 6.22 1.33 11.71-.26.06-5.72-.91-9.54-2.9-11.36l-.71-.54c-1.82-1.13-3.33-.62-3.91 0a5.81 5.81 0 0 0-.42.49Z"/></g><g class="cls-4"><path class="cls-1" d="M165.4 242c-.19-.13-.39-.26-.59-.42a3.73 3.73 0 0 1-1.24-4.63l.36-.56c1.24-1.5 4.2-2.41 10.66-1.74 3.18 5.67 3.53 8.75 2.64 10.47l-.37.57a3.74 3.74 0 0 1-4.74.69c-.23-.12-.43-.25-.62-.37a4.84 4.84 0 0 1-2.26-3.21 4.82 4.82 0 0 1-3.84-.8m.7-1.08a2.91 2.91 0 0 0 2.48.45l1.76-.24.47 1.71a2.9 2.9 0 0 0 1.4 2.1l.47.28a2.22 2.22 0 0 0 2.75-.54l.31-.47c.75-1.52.07-4.29-2-8.23-4.45-.36-7.26.12-8.36 1.41l-.31.47a2.21 2.21 0 0 0 .6 2.74l.45.32Z"/></g><g class="cls-4"><path class="cls-1" d="M186 386.65a12.85 12.85 0 0 1 1.11.72c2.34 1.67 3.9 5.6 1.74 10.16l-.83 1.45c-2.73 4-8.85 7.31-21.77 8.46-5.48-11.76-5.66-18.72-3.59-23.07l.84-1.45c2.86-4.16 7.05-4.78 9.67-3.59.43.2.82.4 1.18.6 2.87 1.66 3.53 3.69 4 6.48 2.65-1 4.75-1.42 7.62.24m-1.6 2.77c-1.65-.95-2.63-.84-4.93 0l-3.58 1.3-.67-3.75c-.42-2.41-.82-3.31-2.47-4.26a9.4 9.4 0 0 0-.9-.46c-1.21-.55-3.7-.36-5.65 2.38l-.7 1.22c-1.76 3.83-.84 9.94 2.72 18.17 8.91-1 14.65-3.3 17.09-6.75l.7-1.22c1.4-3.05.32-5.3-.76-6.08-.3-.21-.58-.39-.85-.55Z"/></g><g class="cls-4"><path class="cls-1" d="M93.52 232.89a13.07 13.07 0 0 1 1.32.13c2.85.42 6 3.21 6.19 8.25l-.08 1.67c-.61 4.79-4.53 10.55-15.5 17.47-10.25-8-13.59-14.07-13.73-18.9l.08-1.67c.65-5 4.09-7.46 7-7.6a11.88 11.88 0 0 1 1.33 0c3.31.17 4.82 1.67 6.53 3.93 1.93-2.08 3.58-3.43 6.89-3.27m-.15 3.2c-1.9-.1-2.73.45-4.39 2.24l-2.59 2.8-2.31-3c-1.47-2-2.24-2.57-4.14-2.66h-1c-1.32.07-3.45 1.37-3.93 4.7l-.06 1.4c.18 4.22 3.78 9.24 10.71 14.94 7.45-5 11.53-9.64 12.12-13.82l.07-1.4c-.15-3.36-2.14-4.87-3.45-5.06a9.84 9.84 0 0 0-1-.1Z"/></g><g class="cls-4"><path class="cls-1" d="M31.4 252.68a6.42 6.42 0 0 1 .44-.52c1-1.07 3.07-1.61 5.23-.23l.68.52c1.83 1.63 3.12 4.92 2.87 11.51-6.28 2-9.79 1.65-11.86.33l-.67-.52c-1.92-1.7-2-3.85-1.19-5.1a4.81 4.81 0 0 1 .38-.55 4 4 0 0 1 3.52-1.62 4 4 0 0 1 .6-3.82m1.3 1c-.59.77-.59 1.27-.32 2.48l.43 1.89-1.93.1c-1.24.06-1.72.2-2.31 1-.09.12-.19.27-.29.43a2.48 2.48 0 0 0 .84 3l.57.43c1.82 1.13 5 1.06 9.33-.21 0-4.55-.73-7.59-2.31-9l-.57-.43a2.46 2.46 0 0 0-3.11 0 3.8 3.8 0 0 0-.33.39Z"/></g><g class="cls-4"><path class="cls-1" d="M596.32 151.82a3.26 3.26 0 0 1 .48.11 3 3 0 0 1 1.92 3.37l-.11.62c-.45 1.75-2.19 3.71-6.61 5.78-3.44-3.46-4.4-5.89-4.22-7.7l.11-.62a3 3 0 0 1 3-2.5 3.61 3.61 0 0 1 .5.06 2.94 2.94 0 0 1 2.25 1.77 3 3 0 0 1 2.73-.89m-.21 1.18c-.71-.12-1 0-1.74.63l-1.1.92-.72-1.24c-.46-.8-.71-1.06-1.42-1.19l-.38-.05c-.5 0-1.35.35-1.69 1.57l-.09.52c-.13 1.58 1 3.62 3.29 6.08 3-1.51 4.76-3.05 5.18-4.58l.09-.52a1.83 1.83 0 0 0-1-2l-.37-.09Z"/></g><g class="cls-4"><path class="cls-1" d="M540.4 415.45c.41-.08.84-.14 1.32-.19 2.86-.27 6.62 1.67 8 6.53l.32 1.64c.56 4.8-1.87 11.32-10.87 20.67-11.85-5.27-16.56-10.41-17.85-15.06l-.32-1.64c-.57-5 2.18-8.23 4.94-9a12.74 12.74 0 0 1 1.29-.32c3.25-.64 5.09.46 7.29 2.24 1.37-2.47 2.65-4.18 5.9-4.82m.62 3.14c-1.87.37-2.54 1.09-3.72 3.23l-1.85 3.34-3-2.4c-1.9-1.54-2.79-2-4.66-1.59a9.44 9.44 0 0 0-1 .25c-1.28.38-3 2.15-2.69 5.5l.27 1.38c1.18 4.05 5.88 8.06 14 11.93 6-6.63 8.89-12.12 8.46-16.32l-.26-1.37c-1-3.23-3.25-4.22-4.57-4.09-.36 0-.7.08-1 .14Z"/></g><g class="cls-4"><path class="cls-1" d="M711.56 308.23c.31-.13.64-.25 1-.37 2.23-.69 5.53.23 7.41 3.86l.52 1.25c1.23 3.71.38 9.29-5.21 18.19-10.27-2.23-14.85-5.53-16.64-9l-.53-1.25c-1.27-3.89.38-6.89 2.43-8 .34-.18.66-.33 1-.46 2.47-1 4.11-.47 6.15.58.68-2.19 1.41-3.76 3.89-4.8m1 2.39c-1.42.6-1.83 1.28-2.41 3.17l-.92 2.95-2.75-1.41c-1.76-.9-2.53-1.09-4-.49a6.2 6.2 0 0 0-.75.35c-.94.52-2 2.22-1.22 4.81l.44 1.05c1.61 3 6 5.42 13 7.16 3.7-6.26 5.05-11.07 4-14.34l-.44-1c-1.28-2.4-3.26-2.81-4.29-2.49-.28.09-.54.18-.78.28Z"/></g><g class="cls-4"><path class="cls-1" d="M638.77 260.05a5.41 5.41 0 0 1 .75.39c1.58.92 2.8 3.32 1.7 6.33l-.44 1c-1.5 2.69-5.18 5.16-13.3 6.65-4.16-7.13-4.69-11.53-3.63-14.41l.44-1c1.57-2.8 4.18-3.44 5.92-2.84.28.1.54.2.78.31 1.92.88 2.46 2.13 2.93 3.86 1.63-.77 2.93-1.17 4.85-.29m-.85 1.85c-1.1-.51-1.72-.38-3.12.28l-2.2 1-.64-2.34c-.41-1.5-.72-2-1.82-2.55l-.6-.24c-.8-.27-2.36 0-3.43 1.85l-.37.81c-.89 2.53 0 6.35 2.79 11.36 5.58-1.19 9.09-3 10.43-5.3l.37-.81c.71-2-.11-3.38-.84-3.8a5.3 5.3 0 0 0-.57-.3Z"/></g><g class="cls-4"><path class="cls-1" d="M472.91 462.23c.31.11.63.25 1 .41 2.05 1 3.8 3.85 2.73 7.7l-.46 1.25c-1.59 3.48-5.92 6.9-15.86 9.54-5.87-8.44-7-13.85-5.91-17.54l.45-1.24c1.68-3.64 4.86-4.68 7.07-4.11.37.1.7.2 1 .31 2.46.91 3.25 2.41 4 4.52 1.95-1.12 3.52-1.75 6-.84m-.88 2.38c-1.41-.52-2.16-.3-3.84.66l-2.63 1.5-1-2.84c-.66-1.82-1.09-2.47-2.51-3a6.38 6.38 0 0 0-.77-.24c-1-.27-2.93.22-4.08 2.62l-.38 1.05c-.86 3.23.67 7.88 4.57 13.83 6.82-2 11-4.56 12.44-7.59l.38-1c.68-2.58-.47-4.19-1.42-4.64a5.71 5.71 0 0 0-.74-.32Z"/></g><g class="cls-4"><path class="cls-1" d="M393.61 495.68c.15-.2.32-.4.51-.61 1.17-1.26 3.62-1.89 6.16-.27l.79.61c2.16 1.91 3.67 5.79 3.38 13.53-7.38 2.36-11.51 1.94-13.94.39l-.8-.61c-2.24-2-2.29-4.53-1.39-6 .15-.24.29-.46.44-.66 1.2-1.57 2.45-1.81 4.14-1.9-.37-1.64-.48-2.92.71-4.49m1.53 1.15c-.69.91-.7 1.5-.38 2.92l.51 2.22-2.28.11c-1.45.07-2 .24-2.7 1.15a4.32 4.32 0 0 0-.35.5c-.41.67-.48 2.16 1 3.52l.66.5c2.14 1.34 5.83 1.25 11-.24.05-5.35-.86-8.93-2.72-10.63l-.66-.5c-1.71-1.06-3.12-.59-3.66 0-.15.16-.28.32-.39.46Z"/></g><g class="cls-4"><path class="cls-1" d="M283.15 467.23c.29-.29.62-.59 1-.89 2.22-1.84 6.42-2.35 10.28.9l1.18 1.18c3.16 3.65 4.82 10.41 2.65 23.2-12.77 2.31-19.55.71-23.23-2.4l-1.21-1.22c-3.29-3.83-2.83-8-1-10.26a12.82 12.82 0 0 1 .89-1c2.33-2.36 4.46-2.48 7.28-2.25-.26-2.82-.16-5 2.17-7.31m2.28 2.25c-1.34 1.36-1.49 2.33-1.26 4.77l.35 3.79-3.8-.31c-2.44-.2-3.41-.05-4.75 1.31a8.83 8.83 0 0 0-.68.76c-.83 1-1.28 3.48.88 6.06l1 1c3.27 2.68 9.41 3.35 18.27 2 1.26-8.89.53-15-2.18-18.25l-1-1c-2.6-2.13-5.05-1.66-6.07-.81-.28.23-.53.46-.75.68Z"/></g><g class="cls-4"><path class="cls-1" d="M325.2 443.66c.26 0 .54-.06.83-.08 1.8-.07 4.09 1.27 4.77 4.35l.15 1c.19 3-1.55 7-7.49 12.55-7.23-3.69-10-7.06-10.65-10l-.15-1c-.18-3.15 1.64-5.06 3.4-5.49a6.68 6.68 0 0 1 .81-.15c2.06-.29 3.17.46 4.48 1.64.94-1.5 1.8-2.52 3.85-2.81m.28 2c-1.18.17-1.62.6-2.43 1.9l-1.26 2L320 448c-1.14-1-1.68-1.32-2.86-1.15l-.62.12c-.81.2-2 1.25-1.87 3.35l.12.87c.61 2.57 3.41 5.24 8.34 7.93 4-3.95 6-7.28 5.83-9.92l-.12-.87c-.48-2-1.88-2.74-2.71-2.7a6.16 6.16 0 0 0-.64.05Z"/></g><g class="cls-4"><path class="cls-1" d="M479.61 56c.07.21.14.44.2.69.38 1.53-.38 3.72-2.9 4.84l-.86.3c-2.56.68-6.28-.12-12-4.25 1.92-6.83 4.32-9.78 6.74-10.85l.86-.3c2.67-.7 4.63.53 5.29 2a6.71 6.71 0 0 1 .27.67 4.31 4.31 0 0 1-.64 4.12 4.33 4.33 0 0 1 3.04 2.78m-1.65.58c-.35-1-.79-1.29-2-1.76L474 54l1-1.76c.68-1.15.84-1.67.49-2.65a3.45 3.45 0 0 0-.21-.51c-.3-.66-1.4-1.47-3.19-1l-.72.25c-2.1 1-3.9 3.82-5.36 8.5 4.07 2.75 7.26 3.86 9.5 3.3l.72-.26c1.67-.77 2-2.08 1.85-2.79 0-.19-.1-.37-.15-.53Z"/></g><g class="cls-4"><path class="cls-1" d="M441.32 56.43a6.13 6.13 0 0 1 .51.51c1.07 1.16 1.47 3.44-.2 5.64l-.61.68c-1.91 1.83-5.55 2.93-12.6 2.09-1.62-6.9-.94-10.65.66-12.75l.61-.68c2-1.91 4.31-1.77 5.58-.84a7.12 7.12 0 0 1 .57.46 4.33 4.33 0 0 1 1.43 3.91 4.33 4.33 0 0 1 4.05 1m-1.17 1.31c-.77-.69-1.31-.75-2.63-.55l-2.07.29.07-2.08c0-1.34-.07-1.86-.85-2.56-.13-.11-.27-.23-.43-.35-.59-.43-1.94-.6-3.29.65l-.51.57c-1.37 1.86-1.57 5.23-.58 10 4.88.44 8.21-.14 9.9-1.71l.51-.57c1.09-1.48.77-2.8.28-3.34a4.8 4.8 0 0 0-.4-.39Z"/></g><g class="cls-4"><path class="cls-1" d="M631.16 164.58a11.44 11.44 0 0 1 1.3-.27c2.85-.47 6.72 1.22 8.4 6l.43 1.62c.87 4.75-1.13 11.42-9.49 21.34-12.17-4.48-17.21-9.29-18.8-13.85l-.43-1.62c-.9-5 1.64-8.35 4.34-9.36a12.92 12.92 0 0 1 1.26-.4c3.2-.85 5.11.13 7.42 1.76 1.2-2.56 2.37-4.35 5.57-5.2m.82 3.09c-1.84.49-2.45 1.26-3.49 3.47l-1.63 3.45-3.11-2.19c-2-1.41-2.92-1.77-4.76-1.29-.3.08-.63.19-1 .31-1.24.47-2.87 2.36-2.32 5.67l.36 1.36c1.45 4 6.4 7.65 14.73 11 5.59-7 8.07-12.67 7.37-16.83l-.36-1.36c-1.16-3.15-3.51-4-4.82-3.77a8.41 8.41 0 0 0-1 .2Z"/></g><g class="cls-4"><path class="cls-1" d="M691 177.24a6.07 6.07 0 0 1 .69-.13c1.52-.22 3.57.71 4.43 3.26l.21.87c.42 2.54-.7 6.08-5.25 11.3-6.45-2.5-9.09-5.11-9.91-7.55l-.21-.87c-.43-2.66.95-4.44 2.4-5 .23-.09.46-.15.67-.21a4.31 4.31 0 0 0 7-1.72m.41 1.66c-1 .24-1.33.65-1.9 1.82l-.9 1.83-1.64-1.2c-1.06-.77-1.54-1-2.53-.73a5 5 0 0 0-.52.16c-.66.23-1.55 1.23-1.28 3l.17.73c.74 2.13 3.35 4.14 7.77 6 3-3.69 4.41-6.69 4.08-8.92l-.18-.72c-.59-1.7-1.84-2.16-2.54-2.06l-.53.1Z"/></g><g class="cls-4"><path class="cls-1" d="M723.06 223c.3 0 .61.13.94.22 2 .58 4 2.89 3.63 6.52l-.23 1.19c-.9 3.38-4.28 7.12-12.82 11-6.56-6.71-8.36-11.42-8-14.89l.22-1.19c1-3.53 3.66-4.95 5.74-4.77a8.39 8.39 0 0 1 1 .13c2.36.44 3.3 1.66 4.3 3.45 1.59-1.3 2.91-2.11 5.26-1.67m-.42 2.28c-1.36-.26-2 0-3.36 1.18l-2.14 1.75-1.35-2.4c-.87-1.55-1.36-2.07-2.71-2.32a7.28 7.28 0 0 0-.73-.09c-1-.09-2.61.64-3.28 3l-.18 1c-.29 3 1.81 7 6.22 11.75 5.83-2.85 9.2-5.78 10-8.72l.18-1c.22-2.43-1.05-3.7-2-4a8 8 0 0 0-.71-.17Z"/></g><path class="cls-1" d="M324.43 77.69c8-1.1 26.28-31.77 26.28-31.77-13.24-6.83-29.81 9.3-33.37 15.27a3 3 0 0 0-5.24-.86c-1.48-6.79-7.78-25.82-22.51-23.55 0 0 3.3 33.36 10.56 37s-3.63 0-4.56 13.13c-.58 8.29.61 12.54 1.57 14.54a1.55 1.55 0 0 0 2.86-.12c.26-.82-.11-1.9-2.23-3.2-2.38-1.46-3-13.69 6-12 1.09.21 3.11-1.23 4.91-3.67 0 3.55.51 6 1.52 6.12s2.28-1.95 3.38-5.32c.94 2.88 2.4 4.89 3.5 5 9.05 1.2 4.58 12.6 1.87 13.23-2.43.56-3.13 1.47-3.14 2.33a1.56 1.56 0 0 0 2.68 1c1.54-1.59 4-5.24 6.1-13.28 3.25-12.69-8.2-12.74-.18-13.85Zm10.37-18c-2.92 3.92-14.91 3.94-14.91 3.94s30.48-24.88 14.91-3.95Zm-3.95 5.72c-1.53 2.53-12.34 1.74-12.34 1.74s15.27-6.56 12.34-1.75ZM296 53.36c-4.45-24.87 12.89 8.47 12.89 8.47s-12-3.66-12.89-8.47Zm2 6.64c-1.25-5.5 11.16 5.57 11.16 5.57S298.61 62.93 298 60Zm.85 3.42 10.36 5.11c-6.82 9.12-10.41-5.07-10.41-5.07Zm18.72 6.47L329 68.38s-7.94 12.31-11.48 1.55Zm346.05 90.86a.55.55 0 0 1-.55-.54v-2.35a.55.55 0 0 1 1.1 0v2.35a.55.55 0 0 1-.55.54Zm-6.17 1.72a.55.55 0 0 1-.47-.27l-1.17-2a.54.54 0 0 1 .2-.75.56.56 0 0 1 .75.2l1.17 2a.55.55 0 0 1-.2.75.58.58 0 0 1-.28.07ZM653 167a.55.55 0 0 1-.28-.07l-2-1.17a.55.55 0 0 1 .55-1l2 1.17a.55.55 0 0 1 .2.75.54.54 0 0 1-.47.32Zm-1.63 6.25H649a.55.55 0 0 1-.55-.55.54.54 0 0 1 .55-.55h2.34a.55.55 0 0 1 .55.55.55.55 0 0 1-.52.55Zm27.08-.25h-2.34a.55.55 0 0 1 0-1.1h2.34a.55.55 0 1 1 0 1.1Zm-4.05-6.16a.55.55 0 0 1-.28-1l2-1.17a.55.55 0 1 1 .55 1l-2 1.17a.56.56 0 0 1-.27 0Zm-4.58-4.49a.52.52 0 0 1-.27-.07.55.55 0 0 1-.2-.75l1.17-2a.55.55 0 1 1 1 .55l-1.17 2a.56.56 0 0 1-.53.27Z"/><path class="cls-1" d="M666 192.4h-4.46a3.07 3.07 0 0 1-3.07-3.07v-.93h-.46a1.54 1.54 0 1 1 0-3.07h.46v-.45h-.46a1.53 1.53 0 0 1-.85-2.81 11.1 11.1 0 0 1-4.46-9.15 11 11 0 1 1 22.09.55 11 11 0 0 1-4.44 8.58 1.53 1.53 0 0 1-.82 2.83h-.46v.45h.46a1.54 1.54 0 1 1 0 3.07h-.46v.93a3.07 3.07 0 0 1-3.07 3.07Zm-8-6.19a.66.66 0 1 0 0 1.31h.9a.44.44 0 0 1 .44.44v1.37a2.2 2.2 0 0 0 2.19 2.2H666a2.2 2.2 0 0 0 2.19-2.2V188a.44.44 0 0 1 .44-.44h.9a.66.66 0 1 0 0-1.31h-.9a.44.44 0 0 1-.44-.44v-1.33a.44.44 0 0 1 .44-.44h.9a.66.66 0 0 0 .66-.65.67.67 0 0 0-.66-.66h-.25a.45.45 0 0 1-.43-.32.44.44 0 0 1 .2-.49 10.17 10.17 0 1 0-12.32-16 10.05 10.05 0 0 0-3.15 7.11 10.21 10.21 0 0 0 4.86 8.94.44.44 0 0 1 .2.49.45.45 0 0 1-.42.32h-.21a.67.67 0 0 0-.66.66.66.66 0 0 0 .66.65h.9a.44.44 0 0 1 .44.44v1.33a.44.44 0 0 1-.44.44Zm16.34-12.75ZM495.71 29.14a.67.67 0 0 1-.68-.67v-2.9a.68.68 0 1 1 1.35 0v2.9a.67.67 0 0 1-.67.67Zm-7.64 2.13a.66.66 0 0 1-.59-.34L486 28.42a.68.68 0 1 1 1.17-.68l1.45 2.51a.68.68 0 0 1-.24.93.72.72 0 0 1-.31.09Zm-5.56 5.66a.72.72 0 0 1-.34-.09l-2.51-1.45a.69.69 0 0 1-.25-.93.68.68 0 0 1 .93-.24l2.51 1.44a.68.68 0 0 1 .25.93.66.66 0 0 1-.59.34Zm-1.97 7.68h-2.9a.68.68 0 0 1 0-1.36h2.9a.68.68 0 0 1 0 1.36Zm33.53-.29h-2.9a.68.68 0 0 1 0-1.36h2.9a.68.68 0 1 1 0 1.36Zm-5.02-7.64a.68.68 0 0 1-.59-.34.68.68 0 0 1 .25-.93l2.51-1.41a.66.66 0 0 1 .92.25.68.68 0 0 1-.24.93l-2.52 1.44a.58.58 0 0 1-.33.06Zm-5.67-5.56A.72.72 0 0 1 503 31a.67.67 0 0 1-.24-.92l1.45-2.52a.68.68 0 0 1 1.17.68L504 30.78a.66.66 0 0 1-.62.34Z"/><path class="cls-1" d="M498.7 68.33h-5.52a3.81 3.81 0 0 1-3.8-3.8v-1.16h-.57a1.9 1.9 0 1 1 0-3.8h.57V59h-.57a1.9 1.9 0 0 1-1.05-3.48 13.74 13.74 0 0 1-5.53-11.33 13.68 13.68 0 1 1 27.36.68 13.63 13.63 0 0 1-5.5 10.62 1.9 1.9 0 0 1-1 3.51h-.57v.55h.57a1.9 1.9 0 1 1 0 3.8h-.57v1.16a3.81 3.81 0 0 1-3.82 3.82Zm-9.89-7.67a.81.81 0 1 0 0 1.62h1.12a.55.55 0 0 1 .54.55v1.7a2.71 2.71 0 0 0 2.71 2.71h5.52a2.71 2.71 0 0 0 2.71-2.71v-1.7a.55.55 0 0 1 .54-.55h1.12a.81.81 0 1 0 0-1.62H502a.54.54 0 0 1-.54-.54v-1.65a.54.54 0 0 1 .54-.54h1.12a.81.81 0 1 0 0-1.62h-.31a.56.56 0 0 1-.53-.4.55.55 0 0 1 .24-.61 12.59 12.59 0 1 0-13.12 0 .55.55 0 0 1 .23.61.54.54 0 0 1-.52.4h-.25a.81.81 0 1 0 0 1.62h1.12a.54.54 0 0 1 .54.54v1.65a.54.54 0 0 1-.54.54ZM509 44.88Zm143.18 325.8a.69.69 0 0 1-.69-.7v-3a.7.7 0 1 1 1.39 0v3a.7.7 0 0 1-.7.7Zm-7.83 2.18a.7.7 0 0 1-.61-.35l-1.48-2.57a.69.69 0 0 1 1.2-.7l1.49 2.58a.7.7 0 0 1-.25.95.73.73 0 0 1-.35.09Zm-5.7 5.81a.64.64 0 0 1-.35-.1l-2.57-1.48a.71.71 0 0 1-.26-1 .7.7 0 0 1 .95-.25l2.58 1.49a.7.7 0 0 1-.35 1.3Zm-2.03 7.87h-3a.7.7 0 1 1 0-1.39h3a.7.7 0 1 1 0 1.39Zm34.38-.3h-3a.7.7 0 0 1 0-1.39h3a.7.7 0 0 1 0 1.39Zm-5.14-7.84a.69.69 0 0 1-.6-.34.71.71 0 0 1 .25-1l2.58-1.48a.69.69 0 0 1 .7 1.2l-2.58 1.49a.73.73 0 0 1-.35.13Zm-5.8-5.69a.73.73 0 0 1-.35-.09.71.71 0 0 1-.26-1l1.49-2.57a.7.7 0 0 1 .95-.26.71.71 0 0 1 .26 1l-1.49 2.57a.7.7 0 0 1-.6.35Z"/><path class="cls-1" d="M655.25 410.87h-5.65a3.91 3.91 0 0 1-3.9-3.9v-1.19h-.59a1.95 1.95 0 1 1 0-3.89h.59v-.57h-.59a1.95 1.95 0 0 1-1.08-3.57 14.12 14.12 0 0 1-5.67-11.62 14 14 0 0 1 28.06.7 14 14 0 0 1-5.64 10.89 2 2 0 0 1-1 3.6h-.59v.57h.59a1.95 1.95 0 1 1 0 3.89h-.59V407a3.91 3.91 0 0 1-3.94 3.87ZM645.11 403a.84.84 0 0 0-.84.83.85.85 0 0 0 .84.84h1.14a.56.56 0 0 1 .56.55V407a2.79 2.79 0 0 0 2.79 2.78h5.65A2.79 2.79 0 0 0 658 407v-1.75a.56.56 0 0 1 .56-.55h1.15a.84.84 0 0 0 .83-.84.83.83 0 0 0-.83-.83h-1.15a.56.56 0 0 1-.56-.56v-1.68a.56.56 0 0 1 .56-.56h1.15a.83.83 0 1 0 0-1.66h-.33a.55.55 0 0 1-.53-.41.56.56 0 0 1 .24-.63 12.91 12.91 0 1 0-13.46 0 .56.56 0 0 1 .24.63.55.55 0 0 1-.53.41h-.26a.83.83 0 1 0 0 1.66h1.14a.56.56 0 0 1 .56.56v1.68a.56.56 0 0 1-.56.56Zm20.75-16.18ZM328.9 517.29a.54.54 0 0 1-.54-.54v-2.31a.54.54 0 1 1 1.08 0v2.31a.54.54 0 0 1-.54.54Zm-6.11 1.71a.54.54 0 0 1-.47-.27l-1.15-2a.54.54 0 1 1 .93-.55l1.16 2a.54.54 0 0 1-.2.74.5.5 0 0 1-.27.08Zm-4.43 4.52a.5.5 0 0 1-.27-.08l-2-1.15a.55.55 0 0 1-.2-.75.54.54 0 0 1 .74-.19l2 1.15a.55.55 0 0 1-.27 1Zm-1.58 6.13h-2.32a.54.54 0 1 1 0-1.08h2.32a.54.54 0 0 1 0 1.08Zm26.79-.23h-2.31a.55.55 0 0 1-.55-.55.55.55 0 0 1 .55-.54h2.31a.54.54 0 0 1 .54.54.55.55 0 0 1-.54.55Zm-4.01-6.11a.54.54 0 0 1-.27-1l2-1.16a.54.54 0 0 1 .54.94l-2 1.16a.54.54 0 0 1-.27.06Zm-4.56-4.43a.56.56 0 0 1-.27-.08.54.54 0 0 1-.2-.74l1.16-2a.54.54 0 0 1 .94.54l-1.16 2a.53.53 0 0 1-.47.28Z"/><path class="cls-1" d="M331.29 548.61h-4.41a3 3 0 0 1-3-3v-.93h-.47a1.52 1.52 0 0 1 0-3h.47v-.45h-.47a1.52 1.52 0 0 1-.83-2.78 10.93 10.93 0 1 1 17.44-8.5 10.91 10.91 0 0 1-4.39 8.49 1.51 1.51 0 0 1-.81 2.79h-.47v.45h.47a1.52 1.52 0 0 1 0 3h-.47v.93a3 3 0 0 1-3.06 3Zm-7.91-6.13a.66.66 0 0 0-.65.65.66.66 0 0 0 .65.65h.9a.43.43 0 0 1 .43.43v1.36a2.18 2.18 0 0 0 2.17 2.17h4.41a2.18 2.18 0 0 0 2.17-2.17v-1.36a.43.43 0 0 1 .43-.43h.9a.66.66 0 0 0 .65-.65.66.66 0 0 0-.65-.65h-.9a.44.44 0 0 1-.43-.44v-1.31a.43.43 0 0 1 .43-.43h.9a.65.65 0 1 0 0-1.3h-.26a.44.44 0 0 1-.23-.81 10.06 10.06 0 1 0-15.3-8.84 10.1 10.1 0 0 0 4.82 8.84.44.44 0 0 1-.23.81h-.21a.65.65 0 0 0 0 1.3h.9a.43.43 0 0 1 .43.43V542a.44.44 0 0 1-.43.44Zm16.18-12.61Zm-90.51-68.32a.54.54 0 0 1-.55-.53v-2.32a.53.53 0 0 1 .53-.55.54.54 0 0 1 .55.53v2.31a.55.55 0 0 1-.53.56Zm-6.05 1.81a.53.53 0 0 1-.47-.26l-1.2-2a.55.55 0 0 1 .19-.75.54.54 0 0 1 .74.19l1.2 2a.55.55 0 0 1-.19.75.5.5 0 0 1-.27.07Zm-4.37 4.64a.54.54 0 0 1-.27-.07l-2-1.11a.55.55 0 0 1-.21-.74.54.54 0 0 1 .74-.21l2 1.12a.54.54 0 0 1-.26 1Zm-1.46 6.14h-2.31a.54.54 0 1 1 0-1.08l2.32-.05a.55.55 0 0 1 0 1.09Zm26.83-.76-2.32.05a.55.55 0 0 1 0-1.09H264a.54.54 0 0 1 .55.53.53.53 0 0 1-.55.51Zm-4.17-6.02a.56.56 0 0 1-.48-.26.55.55 0 0 1 .19-.75l2-1.2a.54.54 0 0 1 .74.19.53.53 0 0 1-.18.74l-2 1.2a.56.56 0 0 1-.27.08Zm-4.61-4.36a.52.52 0 0 1-.27-.07.53.53 0 0 1-.22-.73l1.12-2a.54.54 0 1 1 1 .52l-1.12 2a.52.52 0 0 1-.51.28Z"/><path class="cls-1" d="m252.05 492.81-4.41.08a3 3 0 0 1-3.09-3v-.92h-.46a1.52 1.52 0 0 1-.06-3h.46v-.44H244a1.52 1.52 0 0 1-.89-2.77 11 11 0 0 1-4.59-9 10.94 10.94 0 0 1 21.87.12 10.93 10.93 0 0 1-4.23 8.58 1.5 1.5 0 0 1 .73 1.26 1.52 1.52 0 0 1-1.49 1.55h-.46v.44h.46a1.52 1.52 0 1 1 .06 3H255v.92a3.05 3.05 0 0 1-2.95 3.18Zm-8-6a.65.65 0 1 0 0 1.3h.9a.44.44 0 0 1 .44.43v1.36a2.16 2.16 0 0 0 2.21 2.12l4.4-.08a2.17 2.17 0 0 0 2.13-2.21v-1.36a.44.44 0 0 1 .43-.44h.89a.65.65 0 0 0 0-1.3h-.9a.44.44 0 0 1-.44-.43v-1.31a.44.44 0 0 1 .43-.44h.89a.65.65 0 0 0 .64-.66.66.66 0 0 0-.66-.64h-.26a.44.44 0 0 1-.42-.31.43.43 0 0 1 .18-.49 10.06 10.06 0 0 0-5.35-18.55 10.07 10.07 0 0 0-10.12 10 10.08 10.08 0 0 0 5 8.74.44.44 0 0 1 .2.48.44.44 0 0 1-.41.33H244a.66.66 0 0 0-.64.67.66.66 0 0 0 .67.63h.89a.44.44 0 0 1 .44.43v1.31a.44.44 0 0 1-.43.44Zm15.95-12.9ZM192.76 287.3a.69.69 0 0 1-.71-.68l-.06-3a.7.7 0 1 1 1.39 0l.06 3a.7.7 0 0 1-.68.68Zm-7.76 2.33a.68.68 0 0 1-.61-.33l-1.54-2.55a.7.7 0 0 1 .24-1 .69.69 0 0 1 .95.24l1.54 2.55a.69.69 0 0 1-.23.95.64.64 0 0 1-.35.14Zm-5.63 5.92a.63.63 0 0 1-.35-.09l-2.6-1.43a.69.69 0 0 1-.27-.95.68.68 0 0 1 .94-.27l2.61 1.43a.7.7 0 0 1 .27.95.68.68 0 0 1-.6.36Zm-1.87 7.92-3 .06a.71.71 0 0 1-.71-.69.7.7 0 0 1 .68-.71l3-.05a.7.7 0 0 1 0 1.39Zm34.4-.97-3 .06a.7.7 0 1 1 0-1.39l3-.06a.7.7 0 1 1 0 1.39Zm-5.31-7.74a.69.69 0 0 1-.61-.33.7.7 0 0 1 .24-1l2.55-1.54a.69.69 0 0 1 .95.24.71.71 0 0 1-.23 1l-2.55 1.53a.64.64 0 0 1-.35.1Zm-5.92-5.58a.73.73 0 0 1-.35-.09.7.7 0 0 1-.27-.95l1.44-2.6a.68.68 0 0 1 .94-.27.69.69 0 0 1 .28.94l-1.44 2.61a.73.73 0 0 1-.6.36Z"/><path class="cls-1" d="m196.6 327.45-5.65.11a3.91 3.91 0 0 1-4-3.83v-1.19h-.6a1.95 1.95 0 0 1-.07-3.89h.59v-.57h-.59a2 2 0 0 1-2-1.91 2 2 0 0 1 .84-1.64 14.09 14.09 0 0 1-5.89-11.53 14 14 0 1 1 28.08.16 14 14 0 0 1-5.43 11 1.94 1.94 0 0 1-1 3.61h-.59v.57h.59a2 2 0 1 1 .07 3.9h-.59v1.19a3.92 3.92 0 0 1-3.76 4.02Zm-10.3-7.68a.84.84 0 1 0 0 1.67h1.15a.56.56 0 0 1 .57.54v1.75a2.79 2.79 0 0 0 2.84 2.73l5.66-.11a2.78 2.78 0 0 0 2.73-2.84v-1.74a.56.56 0 0 1 .54-.57h1.15a.84.84 0 1 0 0-1.67h-1.15a.56.56 0 0 1-.57-.55v-1.68a.57.57 0 0 1 .55-.57h1.15a.84.84 0 1 0 0-1.67h-.32a.58.58 0 0 1-.55-.4.57.57 0 0 1 .24-.63 12.93 12.93 0 1 0-13.47.26.56.56 0 0 1-.27 1h-.27a.84.84 0 0 0-.81.86.83.83 0 0 0 .85.81h1.15a.56.56 0 0 1 .56.55v1.68a.57.57 0 0 1-.55.57Zm20.45-16.59Zm9.67-206.78a.65.65 0 0 1-.67-.65l-.06-2.85a.67.67 0 1 1 1.33 0l.06 2.85a.67.67 0 0 1-.66.65ZM209 98.63a.64.64 0 0 1-.58-.32l-1.47-2.44a.66.66 0 0 1 .22-.91.67.67 0 0 1 .92.22l1.47 2.44a.67.67 0 0 1-.23.92.66.66 0 0 1-.33.09Zm-5.39 5.67a.64.64 0 0 1-.33-.08l-2.5-1.38a.67.67 0 0 1 .65-1.17l2.49 1.38a.66.66 0 0 1 .26.91.65.65 0 0 1-.57.34Zm-1.79 7.58-2.85.06a.68.68 0 0 1-.68-.66.66.66 0 0 1 .65-.68h2.85a.67.67 0 0 1 0 1.33Zm32.93-.88-2.85.06a.67.67 0 1 1 0-1.33l2.85-.06a.67.67 0 1 1 0 1.33Zm-5.08-7.45a.67.67 0 0 1-.36-1.24l2.44-1.47a.67.67 0 1 1 .69 1.14l-2.44 1.47a.79.79 0 0 1-.33.1ZM224 98.2a.8.8 0 0 1-.33-.08.67.67 0 0 1-.26-.91l1.37-2.49a.67.67 0 1 1 1.17.64l-1.37 2.49a.69.69 0 0 1-.58.35Z"/><path class="cls-1" d="m220.11 134.84-5.42.1a3.73 3.73 0 0 1-3.8-3.66v-1.14h-.56a1.87 1.87 0 1 1-.07-3.73h.56v-.54h-.57a1.86 1.86 0 0 1-1.09-3.4 13.5 13.5 0 0 1-5.64-11 13.44 13.44 0 1 1 26.88.15 13.38 13.38 0 0 1-5.2 10.54 1.84 1.84 0 0 1 .9 1.55 1.87 1.87 0 0 1-1.83 1.91h-.57v.54h.57a1.87 1.87 0 0 1 .07 3.73h-.56v1.14a3.74 3.74 0 0 1-3.67 3.81Zm-9.86-7.35a.8.8 0 0 0-.79.81.82.82 0 0 0 .82.79h1.1a.54.54 0 0 1 .54.53v1.67a2.67 2.67 0 0 0 2.72 2.61l5.42-.1a2.67 2.67 0 0 0 2.61-2.72v-1.67a.53.53 0 0 1 .52-.54h1.1a.82.82 0 0 0 .79-.82.8.8 0 0 0-.82-.78h-1.1a.53.53 0 0 1-.54-.52v-1.62a.53.53 0 0 1 .52-.54h1.1a.8.8 0 0 0 0-1.6h-.31a.53.53 0 0 1-.52-.38.54.54 0 0 1 .22-.61 12.38 12.38 0 1 0-12.9.25.54.54 0 0 1 .25.6.55.55 0 0 1-.51.4h-.25a.8.8 0 0 0-.78.82.79.79 0 0 0 .81.78h1.1a.54.54 0 0 1 .55.52v1.61a.54.54 0 0 1-.52.55Zm19.58-15.89Z"/><path d="M171.42 176.75a.36.36 0 0 1-.37-.35v-1.55a.37.37 0 0 1 .73 0v1.54a.37.37 0 0 1-.36.36Zm-4.04 1.25a.37.37 0 0 1-.32-.17l-.8-1.32a.36.36 0 0 1 .13-.5.36.36 0 0 1 .49.12l.8 1.32a.37.37 0 0 1-.12.5.41.41 0 0 1-.18.05Zm-2.9 3a.37.37 0 0 1-.18 0l-1.35-.75a.36.36 0 1 1 .34-.63l1.36.75a.37.37 0 0 1 .14.49.38.38 0 0 1-.31.14Zm-.98 4.14h-1.54a.36.36 0 1 1 0-.72h1.54a.35.35 0 0 1 .37.35.37.37 0 0 1-.37.37Zm17.85-.5h-1.54a.37.37 0 0 1-.37-.36.36.36 0 0 1 .36-.36h1.54a.35.35 0 0 1 .37.35.37.37 0 0 1-.36.37Zm-2.75-4.02a.36.36 0 0 1-.32-.17.37.37 0 0 1 .13-.5l1.32-.79a.36.36 0 1 1 .37.61l-1.32.8a.31.31 0 0 1-.18.05Zm-3.07-2.89a.41.41 0 0 1-.18 0 .35.35 0 0 1-.14-.49l.74-1.35a.35.35 0 0 1 .49-.14.36.36 0 0 1 .15.49l-.75 1.35a.39.39 0 0 1-.31.14Zm-2.11 19.85-2.94.06a2 2 0 0 1-2.06-2V195h-.31a1 1 0 0 1 0-2h.31v-.3h-.3a1 1 0 0 1-1-1 1 1 0 0 1 .43-.85 7.32 7.32 0 0 1-3.06-6A7.29 7.29 0 0 1 179 185a7.23 7.23 0 0 1-2.81 5.71 1 1 0 0 1 .48.85 1 1 0 0 1-1 1h-.31v.29h.31a1 1 0 0 1 1 1 1 1 0 0 1-1 1h-.31v.62a2 2 0 0 1-1.94 2.11Zm-5.35-4a.42.42 0 0 0-.42.44.44.44 0 0 0 .44.43h.6a.29.29 0 0 1 .29.29v.9a1.44 1.44 0 0 0 1.47 1.42l2.94-.06a1.43 1.43 0 0 0 1.41-1.47v-.9a.28.28 0 0 1 .28-.3h.6a.44.44 0 0 0 0-.87h-.6a.28.28 0 0 1-.29-.28v-.87a.3.3 0 0 1 .28-.3h.6a.43.43 0 1 0 0-.86h-.17a.3.3 0 0 1-.28-.21.28.28 0 0 1 .12-.32 6.71 6.71 0 1 0-7 .13.3.3 0 0 1 .13.32.29.29 0 0 1-.28.22H168a.44.44 0 1 0 0 .87h.59a.29.29 0 0 1 .3.28v.87a.28.28 0 0 1-.28.3Zm10.62-8.58Z" style="stroke:#9bb53e;stroke-miterlimit:10;stroke-width:.5px;fill:#9bb53e"/></g><path class="cls-6" d="M217.69 336.2c2.09 3.57-1 9.76-1 9.76s-6.95.17-9.19-3.43c-1.74-2.81.88-6.37 4.59-4-.36-4.26 3.91-5.18 5.6-2.33Zm47.79 93.8c2.08 3.57-1 9.75-1 9.75s-7 .18-9.18-3.42c-1.75-2.81.87-6.38 4.58-4-.37-4.23 3.93-5.15 5.6-2.33Zm178.18 80c-.83 4-7.26 6.59-7.26 6.59s-5.29-4.51-4.54-8.69c.58-3.26 4.91-4.15 6.07.11 2.58-3.46 6.4-1.28 5.73 1.99ZM486 482.81c3 6-2.54 15.66-2.54 15.66s-11.24-.38-14.51-6.41c-2.56-4.71 2-10.21 7.79-6-.22-6.94 6.81-8.06 9.26-3.25Zm47.36-30.58c-1 4.69-8.57 7.53-8.57 7.53s-6.06-5.34-5.12-10.19c.73-3.78 5.78-4.74 7.05.24 3.07-3.95 7.47-1.34 6.64 2.42Zm15.98 39.89c-1 4.69-8.57 7.53-8.57 7.53s-6.06-5.34-5.12-10.19c.73-3.78 5.78-4.75 7.05.24 3.07-3.95 7.47-1.34 6.64 2.42Zm50.25-113.62c-.71 3.2-5.83 5.13-5.83 5.13s-4.13-3.64-3.49-6.94c.5-2.57 3.94-3.23 4.8.17 2.09-2.69 5.08-.92 4.52 1.64Zm26.22-83.78c-1.74 7.85-14.32 12.59-14.32 12.59s-10.14-8.93-8.57-17c1.22-6.32 9.67-7.94 11.8.4 5.13-6.63 12.48-2.27 11.09 4.01Zm7.47 113.44c4.67 6.55-.23 19.07-.23 19.07s-13.42 1.55-18.39-5c-3.87-5.14.58-12.49 8.2-8.49-1.48-8.28 6.68-10.82 10.42-5.58Zm-11.36-133.77c-1.14 5.18-9.44 8.31-9.44 8.31s-6.69-5.89-5.65-11.24c.8-4.17 6.38-5.23 7.78.27 3.39-4.36 8.23-1.49 7.31 2.66Zm122.92-53.7c-1.15 5.18-9.44 8.31-9.44 8.31s-6.69-5.89-5.66-11.23c.81-4.17 6.38-5.24 7.79.26 3.38-4.36 8.23-1.48 7.31 2.66Zm-89.38 4.96c-3.48 4-12.27 2.77-12.27 2.77s-3.05-8.37.42-12.57c2.7-3.27 8.11-1.54 6.7 4 5.06-2.25 7.94 2.6 5.15 5.8Zm-64.23-24.29c1.85 5-3.42 12.11-3.42 12.11S579 212.15 577 207.1c-1.59-3.94 2.51-7.86 6.68-4 .43-5.5 6.07-5.72 7.55-1.74Zm27.97-35.82c2.61 7-4.82 17.09-4.82 17.09s-12.45-1.86-15.31-9c-2.24-5.56 3.54-11.1 9.42-5.65.67-7.74 8.62-8.05 10.71-2.44ZM499.47 98.38c-4.15 6.23-16.66 6.11-16.66 6.11s-5.79-11.17-1.7-17.67c3.19-5.07 11.06-3.63 10.1 4.32 6.68-4 11.59 2.26 8.26 7.24ZM449 34.11c4.52 6.69-.71 19.12-.71 19.12S434.8 54.45 430 47.72c-3.76-5.25.89-12.52 8.43-8.32-1.28-8.29 6.96-10.64 10.57-5.29Zm71.91 19.54c0 3.83-5.4 7.32-5.4 7.32s-5.63-3.14-5.72-7.07c-.07-3.07 3.7-4.68 5.54-1 1.72-3.61 5.59-2.32 5.58.75Zm-81.02-35.44c1.13 3.67-3 8.59-3 8.59s-6.31-1.32-7.56-5.05c-1-2.91 2.15-5.57 5-2.61.59-3.94 4.67-3.86 5.56-.93Zm-93.11 58.98c1.22 3.65-2.78 8.65-2.78 8.65s-6.33-1.21-7.65-4.92c-1-2.89 2.05-5.61 4.94-2.7.46-3.95 4.53-3.95 5.49-1.03Zm-54.17 23.67c1.13 3.67-3 8.59-3 8.59s-6.31-1.32-7.56-5c-1-2.91 2.15-5.57 5-2.61.59-3.99 4.66-3.91 5.56-.98ZM206.29 196c1.69 5.52-4.49 12.94-4.49 12.94s-9.51-2-11.39-7.62c-1.47-4.38 3.24-8.38 7.51-3.92.87-5.97 7.01-5.85 8.37-1.4Z"/><path class="cls-6" d="M196.5 193.88c1.34 4.4-3.58 10.31-3.58 10.31s-7.57-1.59-9.07-6.07c-1.17-3.49 2.58-6.67 6-3.12.68-4.74 5.57-4.64 6.65-1.12Zm520.09 94.38c4.45 2.88 4.5 11.75 4.5 11.75s-7.85 4.22-12.5 1.39c-3.63-2.21-2.69-7.81 2.95-7.2-2.9-4.69 1.46-8.2 5.05-5.94ZM450.82 503c-.58 2.82-5.07 4.6-5.07 4.6s-3.69-3.16-3.17-6.07c.41-2.28 3.43-2.91 4.24.07 1.81-2.39 4.47-.86 4 1.4ZM145.09 364.75c-1.89 3.67-8.76 4.4-8.76 4.4s-3.88-5.76-2.05-9.59c1.43-3 5.85-2.69 5.82 1.74 3.41-2.62 6.5.5 4.99 3.45Zm6-146.41c1.62 3.81-2.22 9.55-2.22 9.55s-6.92-.71-8.68-4.57c-1.37-3 1.68-6.21 5.06-3.35.17-4.3 4.55-4.67 5.84-1.63Zm-43.4 13.4c-1.89 3.68-8.76 4.41-8.76 4.41s-3.88-5.77-2.05-9.59c1.43-3 5.84-2.69 5.82 1.73 3.41-2.61 6.5.51 4.99 3.45Zm-10.43 89.92c-1.89 3.68-8.76 4.4-8.76 4.4s-3.88-5.76-2-9.58c1.44-3 5.85-2.69 5.82 1.73 3.36-2.62 6.45.51 4.94 3.45Zm105.08 58.94c4.34 3.14 3.92 12.1 3.92 12.1s-8.16 3.84-12.7.73c-3.54-2.42-2.3-8 3.37-7.11-2.68-4.89 1.93-8.24 5.41-5.72Zm.95 29.48c4.4 5.58.61 16.83.61 16.83s-11.78 1.94-16.44-3.66c-3.63-4.37 0-11.05 6.87-7.84-1.65-7.2 5.44-9.8 8.96-5.33Zm148.03 57.74c-4.22 2.45-11.5-1.21-11.5-1.21s-.18-8.2 4.08-10.83c3.32-2 7.52 1.05 4.67 5.43 5.06-.42 6.13 4.65 2.75 6.61Zm49.76 11.3c-5.9 3.43-16.1-1.7-16.1-1.7s-.25-11.47 5.71-15.14c4.65-2.87 10.52 1.47 6.54 7.59 7.07-.59 8.58 6.51 3.85 9.25ZM214.94 268.5c2.71 6.3-3.64 15.85-3.64 15.85s-11.47-1.13-14.42-7.53c-2.3-5 2.74-10.31 8.37-5.6.26-7.13 7.53-7.77 9.69-2.72ZM71.48 284.37c.94 5.42-5.78 11.7-5.78 11.7s-8.75-3-9.86-8.55c-.88-4.31 4-7.54 7.56-2.82 1.53-5.51 7.32-4.7 8.08-.33Z"/><path class="cls-6" d="M71.38 292.61c1.29 7.39-7.87 15.94-7.87 15.94s-11.92-4.1-13.44-11.64c-1.19-5.89 5.52-10.28 10.31-3.85 2.08-7.52 9.97-6.37 11-.45Z"/><path class="cls-1" d="M182.12 275.37v-4l-2.3-.29a16.22 16.22 0 0 0-.91-3.28l1.78-1.35-2-3.47-2.09.88a15.22 15.22 0 0 0-2.45-2.43l.84-2-3.46-2-1.31 1.73a15 15 0 0 0-3.42-.91l-.25-2h-4l-.26 2a14.75 14.75 0 0 0-3.49.94l-1.18-1.56-3.46 2 .76 1.81a15.6 15.6 0 0 0-2.58 2.62l-1.73-.73-2 3.47 1.52 1.15a15.46 15.46 0 0 0-.91 3.6l-1.84.23v4l1.9.23a15.53 15.53 0 0 0 1 3.56l-1.49 1.13 2 3.47 1.82-.77a16.15 16.15 0 0 0 2.64 2.52l-.76 1.8 3.46 2 1.25-1.65a15.49 15.49 0 0 0 3.48.82l.26 2.05h4l.28-2.17a15.12 15.12 0 0 0 3.34-1l1.31 1.73 3.46-2-.88-2.11a15.84 15.84 0 0 0 2.37-2.47l2.07.88 2-3.47L179 279a15.64 15.64 0 0 0 .83-3.3Zm-17.57-11.43a9.61 9.61 0 1 1-9.61 9.6 9.61 9.61 0 0 1 9.61-9.6Zm142.07 244.62V506l-1.51-.19a9.68 9.68 0 0 0-.59-2.14l1.17-.89-1.31-2.26-1.36.58a10 10 0 0 0-1.6-1.59l.55-1.3-2.26-1.31-.86 1.13a10.17 10.17 0 0 0-2.23-.6l-.16-1.33h-2.61l-.17 1.33a10.24 10.24 0 0 0-2.28.62l-.77-1-2.26 1.31.5 1.18a10.51 10.51 0 0 0-1.69 1.71l-1.13-.48-1.3 2.26 1 .76a9.64 9.64 0 0 0-.59 2.35l-1.2.14v2.61l1.24.16a10 10 0 0 0 .67 2.32l-1 .74 1.31 2.26 1.19-.5a9.91 9.91 0 0 0 1.72 1.64l-.5 1.18 2.26 1.3.82-1.08a9.56 9.56 0 0 0 2.26.54l.17 1.34h2.61l.18-1.42a9.44 9.44 0 0 0 2.18-.64l.86 1.13 2.26-1.31-.58-1.37a10.2 10.2 0 0 0 1.54-1.61l1.35.57 1.31-2.26-1.21-.92a10.11 10.11 0 0 0 .54-2.15Zm-11.47-7.46a6.27 6.27 0 1 1-6.27 6.27 6.27 6.27 0 0 1 6.27-6.27Zm290.25-63.41v-3.39l-1.95-.24a12.29 12.29 0 0 0-.77-2.78l1.52-1.15-1.7-2.93-1.76.75a13.07 13.07 0 0 0-2.08-2.06l.71-1.69-2.93-1.69-1.11 1.49a12.57 12.57 0 0 0-2.89-.78l-.21-1.72h-3.39l-.21 1.72a13.9 13.9 0 0 0-3 .8l-1-1.31-2.93 1.69.65 1.53a13.14 13.14 0 0 0-2.19 2.22l-1.46-.62-1.7 2.93 1.29 1a13.29 13.29 0 0 0-.77 3l-1.55.2V438l1.61.2a13.18 13.18 0 0 0 .86 3l-1.26 1 1.69 2.93 1.54-.65a13.62 13.62 0 0 0 2.23 2.13l-.64 1.53 2.93 1.69 1.06-1.4a13 13 0 0 0 2.94.7l.22 1.74h3.38l.23-1.84a13.21 13.21 0 0 0 2.83-.83l1.11 1.46 2.93-1.7-.75-1.77a13.7 13.7 0 0 0 2-2.1l1.76.74 1.69-2.93-1.57-1.19a13.48 13.48 0 0 0 .7-2.78ZM570.53 428a8.13 8.13 0 1 1-8.13 8.13 8.13 8.13 0 0 1 8.13-8.13Zm85.7-149.57v-2l-1.15-.14a8.12 8.12 0 0 0-.46-1.64l.89-.68-1-1.73-1 .44a7.82 7.82 0 0 0-1.22-1.22l.42-1-1.73-1-.66.86a7.47 7.47 0 0 0-1.7-.45l-.13-1h-2l-.13 1a7.33 7.33 0 0 0-1.74.47l-.59-.78-1.73 1 .38.9a8.41 8.41 0 0 0-1.29 1.31l-.86-.36-1 1.73.76.57a7.67 7.67 0 0 0-.46 1.8l-.91.12v2l1 .12a7.59 7.59 0 0 0 .51 1.78l-.75.56 1 1.73.91-.38a7.88 7.88 0 0 0 1.32 1.26l-.38.9 1.73 1 .62-.83a7.62 7.62 0 0 0 1.74.41l.12 1h2l.14-1.09a7.3 7.3 0 0 0 1.67-.49l.65.86 1.73-1-.44-1.05a8.14 8.14 0 0 0 1.18-1.24l1 .44 1-1.73-.93-.7a8.3 8.3 0 0 0 .41-1.65Zm-8.78-5.71a4.8 4.8 0 1 1-4.8 4.8 4.8 4.8 0 0 1 4.8-4.8ZM604.91 405v-2l-1.15-.14a7.52 7.52 0 0 0-.46-1.64l.9-.68-1-1.73-1.05.44a7.82 7.82 0 0 0-1.22-1.22l.42-1-1.73-1-.65.86a7.69 7.69 0 0 0-1.71-.45l-.13-1h-2l-.12 1a6.85 6.85 0 0 0-1.75.47l-.59-.78-1.73 1 .39.9a8.05 8.05 0 0 0-1.3 1.31l-.86-.36-1 1.73.76.57a7.66 7.66 0 0 0-.45 1.8l-.92.11v2l1 .12a7.59 7.59 0 0 0 .51 1.78l-.75.56 1 1.73.91-.38a7.88 7.88 0 0 0 1.32 1.26l-.38.9 1.73 1 .62-.83a7.87 7.87 0 0 0 1.74.41l.13 1h2l.14-1.09a7.3 7.3 0 0 0 1.67-.49l.66.86 1.72-1-.44-1a8.2 8.2 0 0 0 1.19-1.24l1 .44 1-1.73-.93-.7a7.12 7.12 0 0 0 .41-1.65Zm-8.78-5.71a4.8 4.8 0 1 1-4.8 4.8 4.8 4.8 0 0 1 4.8-4.78Zm88.11-111.42v-3.17l-1.83-.23a12.06 12.06 0 0 0-.72-2.6l1.42-1.07-1.59-2.75-1.65.7a12.71 12.71 0 0 0-2-1.93l.67-1.58-2.74-1.59-1 1.37a12.3 12.3 0 0 0-2.71-.72l-.2-1.62h-3.17l-.2 1.62a11.81 11.81 0 0 0-2.77.75l-.93-1.24-2.75 1.59.61 1.43a12.61 12.61 0 0 0-2.05 2.08l-1.37-.58-1.59 2.75 1.21.91a12.28 12.28 0 0 0-.72 2.85l-1.46.18v3.17l1.51.19a12.19 12.19 0 0 0 .81 2.82l-1.18.89 1.58 2.75 1.44-.61a12.38 12.38 0 0 0 2.1 2l-.61 1.43 2.75 1.59 1-1.31a12 12 0 0 0 2.75.65l.2 1.63h3.17l.22-1.72a12.45 12.45 0 0 0 2.65-.78l1 1.37 2.74-1.59-.7-1.66a12.4 12.4 0 0 0 1.87-2l1.64.69 1.59-2.74-1.47-1.12a11.88 11.88 0 0 0 .65-2.61Zm-13.92-9.06a7.61 7.61 0 1 1-7.62 7.61 7.61 7.61 0 0 1 7.62-7.61Zm-62.95-46.6v-2.3l-1.32-.16a9.11 9.11 0 0 0-.53-1.89l1-.78-1.15-2-1.2.51a8.89 8.89 0 0 0-1.41-1.4l.48-1.15-2-1.15-.76 1a8.59 8.59 0 0 0-2-.53l-.15-1.17h-2.29l-.15 1.17a9 9 0 0 0-2 .54l-.67-.89-2 1.15.44 1a8.81 8.81 0 0 0-1.49 1.5l-1-.41-1.15 2 .87.67a8.77 8.77 0 0 0-.52 2.06l-1.06.14v2.29l1.1.14a8.7 8.7 0 0 0 .58 2l-.85.65 1.14 2 1-.44a9.07 9.07 0 0 0 1.52 1.45l-.44 1 2 1.15.72-.95a9.33 9.33 0 0 0 2 .48l.15 1.18h2.3l.15-1.25a9 9 0 0 0 1.93-.57l.75 1 2-1.14L603 238a9.14 9.14 0 0 0 1.36-1.42l1.19.5 1.15-2-1.07-.81a9 9 0 0 0 .47-1.89Zm-10.09-6.57a5.52 5.52 0 1 1-5.52 5.52 5.52 5.52 0 0 1 5.52-5.52Zm-40.93-117.31v-1.62l-.93-.11a6 6 0 0 0-.37-1.34l.73-.54-.81-1.41-.85.36a6.18 6.18 0 0 0-1-1l.34-.81-1.41-.81-.53.7a6.38 6.38 0 0 0-1.38-.37l-.11-.82h-1.62l-.1.82a6 6 0 0 0-1.41.39l-.48-.63-1.42.86.3.73a6.13 6.13 0 0 0-1 1.06l-.7-.3-.81 1.41.61.47a6.43 6.43 0 0 0-.37 1.45l-.74.1v1.62l.77.09a6.14 6.14 0 0 0 .41 1.44l-.6.46.81 1.41.74-.32a5.44 5.44 0 0 0 1.07 1l-.31.74 1.4.81.51-.67a6.45 6.45 0 0 0 1.41.33l.1.83h1.62l.11-.88a5.76 5.76 0 0 0 1.36-.4l.53.7 1.4-.81-.36-.85a6.05 6.05 0 0 0 1-1l.84.35.81-1.4-.75-.57a6.47 6.47 0 0 0 .33-1.33Zm-7.12-4.63a3.89 3.89 0 1 1-3.89 3.89 3.9 3.9 0 0 1 3.89-3.89Zm56.58 32.61v-2.88l-1.66-.21a10.45 10.45 0 0 0-.66-2.36l1.29-1-1.44-2.49-1.5.64a11.33 11.33 0 0 0-1.77-1.76l.61-1.44-2.49-1.43-1 1.24a11.15 11.15 0 0 0-2.46-.66l-.18-1.47h-2.88l-.18 1.47a11.15 11.15 0 0 0-2.52.68l-.84-1.12-2.5 1.44.55 1.3a11.88 11.88 0 0 0-1.86 1.89l-1.24-.53-1.44 2.5 1.1.83a10.71 10.71 0 0 0-.66 2.59l-1.32.16v2.88l1.36.17a11.6 11.6 0 0 0 .74 2.56l-1.08.82 1.44 2.49 1.31-.56a11.29 11.29 0 0 0 1.9 1.82l-.54 1.29 2.49 1.44.9-1.19a10.38 10.38 0 0 0 2.5.6l.18 1.48h2.88l.2-1.57a11 11 0 0 0 2.41-.7l.94 1.24 2.49-1.44-.64-1.51a11.51 11.51 0 0 0 1.71-1.78l1.49.62 1.44-2.49-1.34-1a11.6 11.6 0 0 0 .6-2.37Zm-12.65-8.23a6.92 6.92 0 1 1-6.91 6.91 6.91 6.91 0 0 1 6.91-6.91ZM431.75 486v-1.59l-.92-.11a6.34 6.34 0 0 0-.36-1.31l.71-.53-.8-1.38-.83.35a5.93 5.93 0 0 0-1-1l.33-.79-1.37-.79-.52.68a6.19 6.19 0 0 0-1.36-.36l-.1-.81H424l-.1.81a6.47 6.47 0 0 0-1.39.37l-.46-.61-1.38.79.3.72a5.91 5.91 0 0 0-1 1l-.69-.29-.79 1.38.6.45a6.38 6.38 0 0 0-.36 1.43l-.73.09v1.59l.76.1a5.69 5.69 0 0 0 .4 1.41l-.59.45.79 1.37.72-.3a6.62 6.62 0 0 0 1.05 1l-.3.71 1.38.8.49-.66a6.32 6.32 0 0 0 1.38.33l.1.81h1.59l.11-.86a6 6 0 0 0 1.33-.39l.52.69 1.37-.8-.35-.83a5.81 5.81 0 0 0 .94-1l.82.34.8-1.37-.74-.56a5.72 5.72 0 0 0 .33-1.31Zm-7-4.54a3.82 3.82 0 1 1-3.82 3.81 3.82 3.82 0 0 1 3.84-3.85Zm-198.42-38.6v-1.59l-.91-.11a6.24 6.24 0 0 0-.36-1.3l.71-.54-.8-1.38-.83.35a5.93 5.93 0 0 0-1-1l.33-.79-1.37-.79-.52.68a6.19 6.19 0 0 0-1.36-.36l-.1-.81h-1.59l-.1.81a6 6 0 0 0-1.39.38l-.46-.62-1.38.79.3.72a6.68 6.68 0 0 0-1 1l-.69-.29-.79 1.38.6.46a5.69 5.69 0 0 0-.36 1.42l-.73.1V443l.75.1a6.18 6.18 0 0 0 .41 1.41l-.59.45.79 1.38.72-.31a6.22 6.22 0 0 0 1 1l-.3.72 1.38.79.49-.66a5.79 5.79 0 0 0 1.38.33l.1.82h1.59l.11-.87a6 6 0 0 0 1.33-.39l.52.69 1.37-.79-.35-.84a6.23 6.23 0 0 0 .94-1l.82.35.8-1.38-.74-.56a5.59 5.59 0 0 0 .33-1.31Zm-7-4.54a3.82 3.82 0 1 1-3.82 3.82 3.82 3.82 0 0 1 3.85-3.82Z"/><path class="cls-1" d="M219.85 451.44v-2.15l-1.24-.15a8.05 8.05 0 0 0-.49-1.76l1-.73-1.12-1.85-1.12.47a8.18 8.18 0 0 0-1.32-1.31l.45-1.07-1.85-1.07-.7.92a8.75 8.75 0 0 0-1.84-.49l-.14-1.09h-2.14l-.14 1.09a8.33 8.33 0 0 0-1.87.51l-.63-.83-1.85 1.07.41 1a8.37 8.37 0 0 0-1.39 1.4l-.87-.4-1.08 1.86.82.62a8.28 8.28 0 0 0-.49 1.93l-1 .12v2.15l1 .12a8.07 8.07 0 0 0 .54 1.91l-.8.61 1.07 1.86 1-.42a7.89 7.89 0 0 0 1.42 1.35l-.41 1 1.86 1.07.67-.88a8.14 8.14 0 0 0 1.86.44l.14 1.1h2.14l.15-1.16a8.22 8.22 0 0 0 1.79-.53l.7.93 1.86-1.08-.47-1.12a8.88 8.88 0 0 0 1.23-1.38l1.11.47 1.07-1.86-1-.75a8.84 8.84 0 0 0 .45-1.77Zm-9.43-6.13a5.15 5.15 0 1 1-5.15 5.15 5.15 5.15 0 0 1 5.15-5.15Zm-90.57-283.7v-2.56l-1.48-.19a10.61 10.61 0 0 0-.58-2.11l1.14-.87-1.28-2.22-1.34.56a10.13 10.13 0 0 0-1.58-1.56l.54-1.28-2.22-1.29-.84 1.11a10 10 0 0 0-2.2-.58l-.16-1.31h-2.57l-.16 1.31a10.09 10.09 0 0 0-2.25.6l-.75-1-2.23 1.29.49 1.16a10.55 10.55 0 0 0-1.66 1.68l-1.11-.47-1.28 2.23 1 .74a9.33 9.33 0 0 0-.59 2.31l-1.18.15v2.56l1.22.16a9.8 9.8 0 0 0 .66 2.28l-1 .73 1.28 2.22 1.17-.49a10.44 10.44 0 0 0 1.7 1.62l-.49 1.15 2.22 1.29.81-1.06a10.22 10.22 0 0 0 2.23.53l.16 1.31h2.57l.17-1.39a9.93 9.93 0 0 0 2.16-.63l.83 1.11 2.23-1.29-.57-1.35a10 10 0 0 0 1.52-1.59l1.33.57 1.28-2.23-1.19-.9a9.82 9.82 0 0 0 .53-2.12Zm-11.28-7.34a6.17 6.17 0 1 1-6.17 6.17 6.17 6.17 0 0 1 6.17-6.17Z"/><path class="cls-1" d="M119.85 153.14v-1.8l-1-.13a6.69 6.69 0 0 0-.41-1.49l.8-.61-.9-1.57-.94.4a6.79 6.79 0 0 0-1.11-1.1l.38-.9-1.57-.91-.59.78a7.21 7.21 0 0 0-1.55-.41l-.11-.92H111l-.11.92a7 7 0 0 0-1.58.43l-.54-.7-1.56.9.34.82a7.26 7.26 0 0 0-1.17 1.18l-.78-.33-.9 1.57.69.52a7.22 7.22 0 0 0-.42 1.63l-.83.1v1.81l.86.11a6.57 6.57 0 0 0 .47 1.6l-.68.52.9 1.56.83-.35a6.76 6.76 0 0 0 1.19 1.14l-.34.82 1.56.9.57-.75a6.8 6.8 0 0 0 1.57.38l.12.92H113l.13-1a7.08 7.08 0 0 0 1.51-.44l.59.78 1.57-.91-.4-.95a7.5 7.5 0 0 0 1.07-1.11l.93.39.91-1.56-.84-.64a7.22 7.22 0 0 0 .37-1.49Zm-7.94-5.14a4.35 4.35 0 1 1-4.35 4.35 4.35 4.35 0 0 1 4.35-4.35Zm182.48-66.83V77.8l-1.94-.24a12.91 12.91 0 0 0-.77-2.77l1.51-1.14-1.69-2.92-1.76.75a13.38 13.38 0 0 0-2.06-2.06l.71-1.68-2.92-1.68-1.1 1.45a13.29 13.29 0 0 0-2.88-.77l-.22-1.74h-3.37l-.21 1.72a12.73 12.73 0 0 0-2.95.8l-1-1.31-2.91 1.68.64 1.53a13 13 0 0 0-2.18 2.2l-1.45-.62-1.68 3 1.28 1a13.21 13.21 0 0 0-.77 3l-1.54.19v3.37l1.6.2a13.1 13.1 0 0 0 .86 3l-1.26 1 1.67 2.82 1.54-.65a12.73 12.73 0 0 0 2.22 2.12l-.64 1.52 2.92 1.69 1.05-1.4a12.41 12.41 0 0 0 2.93.7l.22 1.73h3.36l.23-1.83a12.74 12.74 0 0 0 2.82-.83l1.1 1.45 2.92-1.68-.75-1.77a13.57 13.57 0 0 0 2-2.08l1.74.73 1.69-2.91-1.56-1.19a12.77 12.77 0 0 0 .69-2.77Zm-14.8-9.63a8.09 8.09 0 1 1-8.1 8.09 8.09 8.09 0 0 1 8.1-8.09ZM113 266.87a5.81 5.81 0 0 0-4.67 9.27 5.9 5.9 0 0 0 1.31 1.28.88.88 0 0 1 .36.48.77.77 0 0 0-.46.71.76.76 0 0 0 .3.61 2.1 2.1 0 0 1-.3 1.83.77.77 0 0 0 .58.75 1.73 1.73 0 0 0 1.65 1.24h2.47a1.71 1.71 0 0 0 1.65-1.27.76.76 0 0 0 .51-.72.77.77 0 0 1 0-1.22.74.74 0 0 0-.3-.61.76.76 0 0 0 .3-.61.77.77 0 0 0-.44-.7.45.45 0 0 1 .18-.34c.11-.1.25-.2.4-.31a3.5 3.5 0 0 0 .46-.35 5.81 5.81 0 0 0-4-10Zm3.57 9.58a4.18 4.18 0 0 1-.38.29 2.54 2.54 0 0 0-.49.39 1.21 1.21 0 0 0-.37 1 .32.32 0 0 0 .31.3.15.15 0 0 1 .14.15.14.14 0 0 1-.14.14.31.31 0 0 0-.3.31v.31a.3.3 0 0 0 .3.31.15.15 0 0 1 .14.15.14.14 0 0 1-.14.14.32.32 0 0 0-.3.31v.31a.32.32 0 0 0 .3.32.14.14 0 0 1 .14.14.15.15 0 0 1-.15.14.31.31 0 0 0-.31.27 1.1 1.1 0 0 1-1.08 1h-2.47a1.1 1.1 0 0 1-1.08-1 .33.33 0 0 0-.31-.27h-.07a.15.15 0 0 1-.15-.14.15.15 0 0 1 .15-.15.32.32 0 0 0 .23-.09.36.36 0 0 0 .09-.22v-.31a.31.31 0 0 0-.32-.31.15.15 0 0 1-.15-.14.15.15 0 0 1 .15-.15.31.31 0 0 0 .31-.31v-.26h-.31.31a.32.32 0 0 0-.09-.23.31.31 0 0 0-.22-.09.15.15 0 0 1-.15-.14.15.15 0 0 1 .15-.15h.06a.34.34 0 0 0 .23-.1.31.31 0 0 0 .08-.24 1.54 1.54 0 0 0-.67-1.2 5.6 5.6 0 0 1-1.18-1.15 5.26 5.26 0 0 1-1-3.09 5.19 5.19 0 1 1 8.75 3.77ZM113 266.5a.35.35 0 0 0 .35-.35v-1.36a.35.35 0 0 0-.35-.34.34.34 0 0 0-.34.34v1.36a.35.35 0 0 0 .34.35Z"/><path class="cls-1" d="M109.55 267.2a.34.34 0 0 0 .29.17.33.33 0 0 0 .17 0 .35.35 0 0 0 .13-.47l-.68-1.18a.34.34 0 1 0-.59.35Zm-3.32 1.8 1.18.68a.33.33 0 0 0 .17 0 .35.35 0 0 0 .3-.17.39.39 0 0 0 0-.26.34.34 0 0 0-.16-.21l-1.17-.68a.34.34 0 0 0-.26 0 .31.31 0 0 0-.21.16.34.34 0 0 0 .15.48Zm0-.39Zm.55 3.54h-1.36a.34.34 0 0 0 0 .68h1.36a.34.34 0 0 0 0-.68Zm13.88-.15h-1.36a.35.35 0 0 0-.34.35.34.34 0 0 0 .34.34h1.36a.34.34 0 0 0 .34-.34.35.35 0 0 0-.34-.35Zm-2.53-2.61a.34.34 0 0 0 .29.17.41.41 0 0 0 .18-.05l1.17-.68a.34.34 0 0 0 .13-.46.35.35 0 0 0-.47-.13l-1.18.68a.34.34 0 0 0-.12.47Zm-2.2-2.14a.37.37 0 0 0 .17.05h.09a.31.31 0 0 0 .21-.16l.68-1.17a.3.3 0 0 0 0-.26.34.34 0 0 0-.16-.21.3.3 0 0 0-.26 0 .32.32 0 0 0-.2.16l-.68 1.17a.34.34 0 0 0 0 .26.37.37 0 0 0 .15.16Zm.95-1.63Z"/></svg>