<svg id="Layer_1" data-name="Layer 1" xmlns="http://www.w3.org/2000/svg" viewBox="0 0 161.65 170.2"><defs><style>.cls-1{fill:#9bb53d}.cls-2{fill:#e86a96}</style></defs><path class="cls-1" d="M130.79 115.61q8.44 6.27 8.45 17.8 0 12-8.63 19.6t-22.29 7.55q-14.58 0-24.16-9.22v1.9a13.37 13.37 0 0 1 .51 2.64c0 3.12-1.57 4.68-4.73 4.68-3.41 0-5.13-1.79-5.13-5.38a1.36 1.36 0 0 1 .39-1l.58-6.66c.3-3.34.44-5.47.44-6.41a61.6 61.6 0 0 0-.7-7.68 62 62 0 0 1-.71-7.69s0 0 0-.08v-.15a6.4 6.4 0 0 1 1.21-4.1 8.91 8.91 0 0 1 3.75-3.51 8.65 8.65 0 0 1 3.49-.93 9 9 0 0 1 8.55 5 9.1 9.1 0 0 1-3.14 11.53 8.86 8.86 0 0 1-3.67 1.31 18.77 18.77 0 0 0 5.85 11.52Q96.93 152 107.4 152q9.7 0 15.46-4.61a15.23 15.23 0 0 0 5.75-12.55q0-12.18-15.37-14.86l-7.3-1.28q-11.3-2-17.35-4.67a29.19 29.19 0 0 0 12.15-6.82l.1-.09c2.46.66 5.47 1.28 9.07 1.87q15.23 2.39 20.88 6.62Zm4.72-15.15v.05a7.93 7.93 0 0 1-.06 1 6.26 6.26 0 0 1-1.19 3.55 8.86 8.86 0 0 1-7.89 4.37 8.9 8.9 0 0 1-.37-17.79 14.05 14.05 0 0 0-4.92-9c-2.91-2.44-6.77-3.84-11.54-4.21 0-.08 0-.17-.08-.26a28.7 28.7 0 0 0-3.8-8.43h1.26q12.45 0 20.32 8v-1.85q0-5 3.94-5 4.31 0 4.31 5.46v.76c0 .17-.13 1.44-.38 3.81a82.57 82.57 0 0 0-.38 8.51c0 .42.08 1.78.26 4.06l.37 5.08a9.14 9.14 0 0 1 .13 1.77Z"/><path class="cls-2" d="M108.91 78.32a29.47 29.47 0 0 1 1 7.44 29.16 29.16 0 0 1-9.24 21.32 28.88 28.88 0 0 1-5.28-1.85q-7.29-3.84-7.3-11.91A13.61 13.61 0 0 1 93 82.3q4.92-4.1 13.25-4.1c.94 0 1.81.05 2.66.12Z"/><path class="cls-1" d="M97.86 9.77c7.17 0 12.45 8.14 7.11 15.69a2.89 2.89 0 0 1-.74.74c-7.39 5.19-15.28.27-15.64-6.64Q86 21.87 86 27.93v29.04h-.06v.8a30.52 30.52 0 0 0-5.45-.51 28.82 28.82 0 0 0-5.2.48v-.77L75 57V27.93q0-7.44-4-9.24v.38c0 7.17-8.13 12.45-15.68 7.12a3.2 3.2 0 0 1-.74-.73c-5.33-7.55 0-15.69 7.12-15.69a8.46 8.46 0 0 1 .87.05c.26 0 .53-.05.82-.05a15.14 15.14 0 0 1 1.86.14l7 .93a62.84 62.84 0 0 0 8.22.53 70.26 70.26 0 0 0 9-.66l6.1-.8a8.48 8.48 0 0 1 1.85-.14h.16Z"/><path class="cls-2" d="M86 57a29.3 29.3 0 0 1 19 12.57c-8.11.23-14.79 2.54-20 7l-.31.3q1-5.93 1.21-19.08h.1V57Zm2.41 57a30.08 30.08 0 0 1-5.32 1c-.82.07-1.66.12-2.5.12a29.28 29.28 0 0 1-26-15.79q13.9-.39 22.59-8.88a27.81 27.81 0 0 0-.38 4.45 21.53 21.53 0 0 0 3.27 11.72 19.47 19.47 0 0 0 8.34 7.38Z"/><path class="cls-1" d="M86 57v.8h-.06V57Zm-10.73 0v.77h-.3v-.75Z"/><path class="cls-2" d="M75 57.77h.3a148.51 148.51 0 0 1-.85 15q-2.23 17.36-21.56 17.36h-1.26A29.06 29.06 0 0 1 75 57v.77Z"/><path class="cls-1" d="M54.6 99.29c-.44 0-.87.06-1.32.06q-13.45 0-21.84-7a22.33 22.33 0 0 1-8.39-18 19.44 19.44 0 0 1 5.19-13.75A16.88 16.88 0 0 1 41.11 55a13.57 13.57 0 0 1 9 2.88 9.32 9.32 0 0 1 3.46 7.5 8.28 8.28 0 0 1-2 5.57 6.27 6.27 0 0 1-4.87 2.37 6.38 6.38 0 0 1-4.29-1.6A4.86 4.86 0 0 1 40.47 68a4.23 4.23 0 0 1 1.79-3.45 4.17 4.17 0 0 0-1.92-.64c-1.88 0-3.52 1-4.93 3a11.81 11.81 0 0 0-2.11 7 14.56 14.56 0 0 0 5.51 11.66 20.64 20.64 0 0 0 12.82 4.56 29.35 29.35 0 0 0 2.97 9.16Z"/><path class="cls-1" d="M80.83 0q-33.26 0-56 21.8Q0 45.65 0 85.16q0 37.59 23.25 61.56 22.88 23.49 57.58 23.48 32.4 0 55.29-21.2 25.53-23.73 25.53-63.84 0-39.51-24.69-63.24Q114.19 0 80.83 0Zm49.72 147.41q-20.61 19.46-49.64 19.45-29.68 0-50-20T10.49 85.17q0-41.88 20.45-61.86t50-20q28.55 0 49.4 19.26t20.85 62.57q-.03 42.86-20.64 62.27Z"/></svg>