<svg id="Layer_1" data-name="Layer 1" xmlns="http://www.w3.org/2000/svg" viewBox="0 0 161.65 170.2"><defs><style>.cls-1{fill:#9bb53d;}.cls-2{fill:#e86a96;}</style></defs><title>newlogologo</title><path class="cls-1" d="M131.79,113.61q8.44,6.27,8.45,17.8,0,12-8.63,19.6t-22.29,7.55q-14.58,0-24.16-9.22v1.9a13.37,13.37,0,0,1,.51,2.64c0,3.12-1.57,4.68-4.73,4.68-3.41,0-5.13-1.79-5.13-5.38a1.36,1.36,0,0,1,.39-1l.58-6.66c.3-3.34.44-5.47.44-6.41a61.6,61.6,0,0,0-.7-7.68,62,62,0,0,1-.71-7.69s0,0,0-.08,0-.09,0-.15a6.4,6.4,0,0,1,1.21-4.1,8.91,8.91,0,0,1,3.75-3.51,8.65,8.65,0,0,1,3.49-.93,9,9,0,0,1,8.55,5,9.1,9.1,0,0,1-3.14,11.53A8.86,8.86,0,0,1,86,132.81a18.77,18.77,0,0,0,5.85,11.52Q97.93,150,108.4,150q9.7,0,15.46-4.61a15.23,15.23,0,0,0,5.75-12.55q0-12.18-15.37-14.86l-7.3-1.28q-11.3-2-17.35-4.67v0a29.19,29.19,0,0,0,12.15-6.82l.1-.09c2.46.66,5.47,1.28,9.07,1.87Q126.14,109.38,131.79,113.61Z"/><path class="cls-1" d="M136.51,98.46v.05a7.93,7.93,0,0,1-.06,1,6.26,6.26,0,0,1-1.19,3.55,8.86,8.86,0,0,1-7.89,4.37A8.9,8.9,0,0,1,127,89.64a14.05,14.05,0,0,0-4.92-9c-2.91-2.44-6.77-3.84-11.54-4.21,0-.08,0-.17-.08-.26a28.7,28.7,0,0,0-3.8-8.43c.42,0,.83,0,1.26,0q12.45,0,20.32,8V73.89q0-5,3.94-5,4.31,0,4.31,5.46v.76c0,.17-.13,1.44-.38,3.81a82.57,82.57,0,0,0-.38,8.51c0,.42.08,1.78.26,4.06l.37,5.08a9.14,9.14,0,0,1,.13,1.77Z"/><path class="cls-2" d="M109.91,76.32a29.47,29.47,0,0,1,1,7.44,29.16,29.16,0,0,1-9.24,21.32,28.88,28.88,0,0,1-5.28-1.85q-7.29-3.84-7.3-11.91A13.61,13.61,0,0,1,94,80.3q4.92-4.1,13.25-4.1C108.19,76.2,109.06,76.25,109.91,76.32Z"/><path class="cls-1" d="M98.86,7.77c7.17,0,12.45,8.14,7.11,15.69a2.89,2.89,0,0,1-.74.74c-7.39,5.19-15.28.27-15.64-6.64Q87,19.87,87,25.93V51.26c0,1.28,0,2.51,0,3.71h-.06c0,.27,0,.53,0,.8a30.52,30.52,0,0,0-5.45-.51,28.82,28.82,0,0,0-5.2.48c0-.26,0-.51,0-.77L76,55c0-1.21,0-2.46,0-3.76V25.93q0-7.44-4-9.24c0,.13,0,.25,0,.38,0,7.17-8.13,12.45-15.68,7.12a3.2,3.2,0,0,1-.74-.73c-5.33-7.55,0-15.69,7.12-15.69a8.46,8.46,0,0,1,.87.05c.26,0,.53-.05.82-.05a15.14,15.14,0,0,1,1.86.14l7,.93a62.84,62.84,0,0,0,8.22.53,70.26,70.26,0,0,0,9-.66l6.1-.8a8.48,8.48,0,0,1,1.85-.14l.16,0Z"/><path class="cls-2" d="M87,55a29.3,29.3,0,0,1,19,12.57c-8.11.23-14.79,2.54-20,7l-.31.3q1-5.93,1.21-19.08H87C87,55.51,87,55.24,87,55Z"/><path class="cls-2" d="M89.41,112a30.08,30.08,0,0,1-5.32,1c-.82.07-1.66.12-2.5.12a29.28,29.28,0,0,1-26-15.79q13.91-.39,22.59-8.88a27.81,27.81,0,0,0-.38,4.45,21.53,21.53,0,0,0,3.27,11.72A19.47,19.47,0,0,0,89.41,112Z"/><path class="cls-1" d="M87,55c0,.27,0,.54,0,.8h-.06c0-.27,0-.53,0-.8Z"/><path class="cls-1" d="M76.27,55c0,.26,0,.51,0,.77l-.3,0c0-.24,0-.49,0-.75Z"/><path class="cls-2" d="M76,55.77l.3,0a148.51,148.51,0,0,1-.85,15Q73.22,88.13,53.89,88.13c-.43,0-.84,0-1.26,0A29.06,29.06,0,0,1,76,55C76,55.28,76,55.53,76,55.77Z"/><path class="cls-1" d="M55.6,97.29c-.44,0-.87.06-1.32.06q-13.45,0-21.84-7a22.33,22.33,0,0,1-8.39-18A19.44,19.44,0,0,1,29.24,58.6,16.88,16.88,0,0,1,42.11,53a13.57,13.57,0,0,1,9,2.88,9.32,9.32,0,0,1,3.46,7.5,8.28,8.28,0,0,1-2,5.57,6.27,6.27,0,0,1-4.87,2.37,6.38,6.38,0,0,1-4.29-1.6A4.86,4.86,0,0,1,41.47,66a4.23,4.23,0,0,1,1.79-3.45,4.17,4.17,0,0,0-1.92-.64c-1.88,0-3.52,1-4.93,3a11.81,11.81,0,0,0-2.11,7,14.56,14.56,0,0,0,5.51,11.66,20.64,20.64,0,0,0,12.82,4.56A29.35,29.35,0,0,0,55.6,97.29Z"/><path class="cls-1" d="M80.83,0q-33.26,0-56,21.8Q0,45.65,0,85.16q0,37.59,23.25,61.56,22.88,23.49,57.58,23.48,32.4,0,55.29-21.2,25.53-23.73,25.53-63.84,0-39.51-24.69-63.24Q114.19,0,80.83,0Zm45.88,147.41q-19,19.46-45.81,19.45-27.39,0-46.18-20T15.92,85.17q0-41.88,18.87-61.86t46.11-20q26.34,0,45.59,19.26t19.24,62.57Q145.73,128,126.71,147.41Z"/></svg>