<svg id="Layer_1" data-name="Layer 1" xmlns="http://www.w3.org/2000/svg" viewBox="0 0 230.05 109.49"><defs><style>.cls-1{fill:#9cb63e}.cls-2{fill:#e86a97}</style></defs><path class="cls-1" d="M78.23 76.84q6.13 4.56 6.13 12.93A18.05 18.05 0 0 1 78.1 104q-6.27 5.48-16.19 5.49-10.57 0-17.54-6.7v1.38a10 10 0 0 1 .37 1.92c0 2.26-1.14 3.4-3.43 3.4-2.48 0-3.73-1.31-3.73-3.91a1.05 1.05 0 0 1 .28-.75l.43-4.83c.21-2.42.32-4 .32-4.65a43.6 43.6 0 0 0-.52-5.58 45.08 45.08 0 0 1-.51-5.58s0 0 0-.06V84a4.68 4.68 0 0 1 .89-3 6.4 6.4 0 0 1 2.72-2.55 6.23 6.23 0 0 1 2.53-.67 6.53 6.53 0 0 1 6.21 3.6 6.61 6.61 0 0 1-2.28 8.37 6.53 6.53 0 0 1-2.71 1 13.65 13.65 0 0 0 4.25 8.36q4.44 4.09 12 4.1 7.05 0 11.22-3.34a11.06 11.06 0 0 0 4.17-9.12Q76.64 82 65.48 80l-5.3-.92a57.08 57.08 0 0 1-12.59-3.4 21.34 21.34 0 0 0 8.82-5l.07-.07c1.79.48 4 .93 6.59 1.36q11.06 1.81 15.16 4.87Zm3.43-11a5.52 5.52 0 0 1 0 .71 4.59 4.59 0 0 1-.86 2.58 6.45 6.45 0 0 1-5.8 3.22 6.53 6.53 0 0 1-6.28-6.14 6.46 6.46 0 0 1 6-6.77 10.15 10.15 0 0 0-3.57-6.54 14.31 14.31 0 0 0-8.38-3.06 1.33 1.33 0 0 0-.05-.19A20.7 20.7 0 0 0 60 43.53h.92q9 0 14.75 5.81V48c0-2.4 1-3.6 2.86-3.6 2.09 0 3.14 1.33 3.14 4v.55c0 .12-.1 1-.28 2.76a60.36 60.36 0 0 0-.28 6.18c0 .31.06 1.29.19 3l.27 3.69a7 7 0 0 1 .1 1.29Z"/><path class="cls-2" d="M62.34 49.77a21.07 21.07 0 0 1-6 20.88 20.49 20.49 0 0 1-3.83-1.34 9.18 9.18 0 0 1-5.3-8.65 9.86 9.86 0 0 1 3.58-8q3.59-3 9.63-3c.67.03 1.3.06 1.92.11Z"/><path class="cls-1" d="M54.32 0c5.21 0 9 5.91 5.16 11.39a2.13 2.13 0 0 1-.54.54c-5.36 3.77-11.09.2-11.35-4.83-1.26 1.12-1.88 3.15-1.88 6.09v21.66a22.32 22.32 0 0 0-4-.37 21.43 21.43 0 0 0-3.78.35v-.56l-.22.05V13.19q0-5.41-2.87-6.71v.27c0 5.21-5.9 9-11.38 5.17a2.47 2.47 0 0 1-.54-.53C19.08 5.91 22.9 0 28.12 0h.62a5.85 5.85 0 0 1 .6 0 11.94 11.94 0 0 1 1.35.1l5.1.67a44.57 44.57 0 0 0 6 .39 51.12 51.12 0 0 0 6.52-.48L52.73.1a6.67 6.67 0 0 1 1.35-.1h.24Z"/><path class="cls-2" d="M45.69 34.27a21.25 21.25 0 0 1 13.8 9.13c-5.89.16-10.73 1.84-14.5 5.08l-.23.22a95.44 95.44 0 0 0 .88-13.86Zm1.77 41.4a22.46 22.46 0 0 1-3.86.71c-.6.05-1.21.08-1.82.08A21.26 21.26 0 0 1 22.91 65q10.1-.28 16.4-6.45a19.92 19.92 0 0 0-.31 3.23 15.67 15.67 0 0 0 2.37 8.51 14.09 14.09 0 0 0 6.09 5.38Z"/><path class="cls-1" d="M45.69 34.27v.58-.58Zm-7.77-.01v.56h-.22v-.54Z"/><path class="cls-2" d="M37.69 34.85h.22a107.43 107.43 0 0 1-.62 10.88q-1.59 12.6-15.62 12.61h-.92a21.69 21.69 0 0 1-.25-3.14 21.26 21.26 0 0 1 17.2-20.89c0 .18 0 .36-.01.54Z"/><path class="cls-1" d="M22.91 65h-1q-9.74 0-15.82-5A16.22 16.22 0 0 1 0 46.9a14 14 0 0 1 3.77-10 12.23 12.23 0 0 1 9.34-4 9.84 9.84 0 0 1 6.51 2.1 6.77 6.77 0 0 1 2.51 5.45 6 6 0 0 1-1.48 4 4.55 4.55 0 0 1-3.54 1.72A4.62 4.62 0 0 1 14 45a3.53 3.53 0 0 1-1.35-2.75A3.09 3.09 0 0 1 14 39.74a3 3 0 0 0-1.39-.46A4.39 4.39 0 0 0 9 41.46a8.63 8.63 0 0 0-1.53 5.07 10.58 10.58 0 0 0 4 8.47 15.06 15.06 0 0 0 9.31 3.31A21.43 21.43 0 0 0 22.91 65Z"/><path d="M101.6 44.09a12.78 12.78 0 0 0-9.2 3.58 13.76 13.76 0 0 0-4.08 10.41 13.93 13.93 0 0 0 3.82 10.12 12.67 12.67 0 0 0 9.46 3.86 12.92 12.92 0 0 0 9.09-3.49q4.19-3.9 4.19-10.49a13.75 13.75 0 0 0-4-10.39 12.81 12.81 0 0 0-9.28-3.6Zm6.14 23.52a7.78 7.78 0 0 1-12.31-.08q-2.52-3.06-2.52-9.45t2.53-9.47a7.72 7.72 0 0 1 6.17-3.06 7.84 7.84 0 0 1 6.1 3q2.58 3 2.58 9.58t-2.55 9.48ZM130.07 65l-3.32-4.83 1.08-1.05a34.71 34.71 0 0 1 4.72-4.31 7.16 7.16 0 0 1 3.26-.89v-.56h-8.48a1 1 0 0 0-.67.64 1 1 0 0 0-.06.66 1 1 0 0 0 1.42.66 1.07 1.07 0 0 0 .47-1.34 2.56 2.56 0 0 1 .36.07.54.54 0 0 1 .42.57 1.12 1.12 0 0 1-.2.56 4.87 4.87 0 0 1-.76.85l-5.22 4.83V44.17a.53.53 0 0 0 0-.23s-.07 0-.15 0a6.3 6.3 0 0 0-1 .3c-1 .33-2.16.67-3.55 1l-1.83.48v-.19a1 1 0 0 0-.78.5 1 1 0 0 0-.09 1 1.16 1.16 0 0 0 1.52.52 1 1 0 0 0 .5-1.41.75.75 0 0 0-.07-.12h.27a2.41 2.41 0 0 1 1.45.38c.33.25.5.84.5 1.78V68a2.66 2.66 0 0 1-.64 2.14 5.39 5.39 0 0 1-2.66.63v.52h9.43v-.52a4.61 4.61 0 0 1-1.9-.3 1.83 1.83 0 0 1-.93-1.83v-6.92L129 69.8a3.29 3.29 0 0 1 .27.44 1 1 0 0 1 .09.41.43.43 0 0 1-.26.41 1.6 1.6 0 0 1-.59.14h-.66v.52h9v-.52a4.74 4.74 0 0 1-2.85-1.3 34.13 34.13 0 0 1-3.93-4.9Zm16.29-3.61L143.77 60c-1.81-1-2.72-2-2.72-3.23a2.79 2.79 0 0 1 2.95-2.83 3.88 3.88 0 0 1 3.52 2 6.91 6.91 0 0 1 .72 1.63 1 1 0 0 0-.78.32 1 1 0 1 0 1.72.32l-.12-4.79h-.47a.78.78 0 0 1-.28.31.93.93 0 0 1-.51.1 10.76 10.76 0 0 1-1.41-.39 7.73 7.73 0 0 0-2.29-.4 5.7 5.7 0 0 0-3.95 1.42 4.65 4.65 0 0 0-1.58 3.62 4.57 4.57 0 0 0 1.15 3.11 12.32 12.32 0 0 0 3.56 2.61l2.2 1.26a5.19 5.19 0 0 1 1.73 1.5 2.88 2.88 0 0 1 .49 1.59 2.77 2.77 0 0 1-.85 2.11 3.22 3.22 0 0 1-2.33.82 4.44 4.44 0 0 1-4-2.2 8.74 8.74 0 0 1-1-2.43 1 1 0 1 0-.89-.7v6h.51a1.15 1.15 0 0 1 .28-.4.54.54 0 0 1 .41-.17 12.08 12.08 0 0 1 1.77.39 10.68 10.68 0 0 0 2.67.4 6.78 6.78 0 0 0 4.54-1.48 4.75 4.75 0 0 0 1.74-3.8c0-2.01-1.39-3.78-4.19-5.3ZM157.84 48a2.07 2.07 0 0 0 2.06-2 2 2 0 0 0-.61-1.47 2.06 2.06 0 0 0-2.92 0 2 2 0 0 0-.59 1.46 2 2 0 0 0 2.06 2Zm1.99 19.17v-14a.92.92 0 0 0 0-.29 2.68 2.68 0 0 0-.69.23q-1.33.57-4.71 1.66L154 55a1 1 0 0 0-.79.42.89.89 0 0 0-.21.58 1 1 0 0 0 1.6.82.64.64 0 0 0 .21-.25c.34-.65.22-1 0-1.22a3.16 3.16 0 0 1 .32 0 1.17 1.17 0 0 1 1.22.79 5.75 5.75 0 0 1 .17 1.74v9.31c0 1.54-.19 2.49-.56 2.84a5.24 5.24 0 0 1-2.73.72v.56h9.42v-.56a3.65 3.65 0 0 1-2.32-.73 4.9 4.9 0 0 1-.5-2.85Zm11.31.69V44.33a2.72 2.72 0 0 0 0-.52.16.16 0 0 0-.17-.11q-3.58 1.13-6.17 1.82h-.23a1.07 1.07 0 0 0-.32 1.68 1.08 1.08 0 0 0 1 .33 1.07 1.07 0 0 0 .76-1.53v-.08H166a1.62 1.62 0 0 1 1.63.84 5.36 5.36 0 0 1 .22 1.83v19.19a2.76 2.76 0 0 1-.69 2.21 4.91 4.91 0 0 1-2.61.74v.56H174v-.56a4 4 0 0 1-2.27-.64 3.13 3.13 0 0 1-.59-2.23Zm29.57-14.95a8.34 8.34 0 0 0-6.44 2.73 9.46 9.46 0 0 0-2.51 6.66 9.78 9.78 0 0 0 2.64 7 8.47 8.47 0 0 0 6.43 2.8 8.09 8.09 0 0 0 6.45-2.91 10.22 10.22 0 0 0 2.5-6.85 9.24 9.24 0 0 0-2.58-6.85 8.78 8.78 0 0 0-6.49-2.58Zm4.18 16a3.76 3.76 0 0 1-3.42 2c-1.89 0-3.36-1-4.43-3a14 14 0 0 1-1.59-6.57q0-4.43 2-6.22a4 4 0 0 1 2.71-1 4.8 4.8 0 0 1 4.43 3 14.11 14.11 0 0 1 1.52 6.45 10.47 10.47 0 0 1-1.22 5.36Zm22.58-13.42a8.78 8.78 0 0 0-6.47-2.58 8.34 8.34 0 0 0-6.44 2.73A9.46 9.46 0 0 0 212 62.3a9.78 9.78 0 0 0 2.64 7 8.47 8.47 0 0 0 6.43 2.8 8.09 8.09 0 0 0 6.45-2.91 10.22 10.22 0 0 0 2.5-6.85 9.24 9.24 0 0 0-2.55-6.85Zm-2.31 13.44a3.77 3.77 0 0 1-3.42 2c-1.89 0-3.36-1-4.43-3a14 14 0 0 1-1.6-6.57c0-3 .67-5 2-6.22a4 4 0 0 1 2.71-1 4.8 4.8 0 0 1 4.43 3 14.23 14.23 0 0 1 1.52 6.45 10.47 10.47 0 0 1-1.21 5.34ZM190 44.44h-11.8a1 1 0 0 0-.67.29 1.05 1.05 0 1 0 1.76.56 3.9 3.9 0 0 1 2 .65c.48.42.73 1.39.73 2.89v18.54a6.74 6.74 0 0 1-.32 2.48 1.13 1.13 0 0 1-1.13.72c-.5 0-1-.58-1.42-1.73S178 67.1 177 67.1a2.16 2.16 0 0 0-1.34.48 1.91 1.91 0 0 0-.62 1.6 2.56 2.56 0 0 0 1.09 2 4.66 4.66 0 0 0 3 .9 6.73 6.73 0 0 0 5-2q2-2 2-6.22v-15a4 4 0 0 1 .7-2.8 3.73 3.73 0 0 1 2-.74 1 1 0 0 0 .24.9 1.05 1.05 0 0 0 1 .34 1.06 1.06 0 0 0 .73-1.51 1 1 0 0 0-.8-.61Z" style="fill:#2d2926"/></svg>