<svg id="socialfacebook" xmlns="http://www.w3.org/2000/svg" width="35" height="35" viewBox="0 0 35 35">
  <path id="Path_533" data-name="Path 533" d="M35,17.5A17.5,17.5,0,1,1,17.5,0,17.5,17.5,0,0,1,35,17.5Z" fill="#235b9e"/>
  <path id="Path_534" data-name="Path 534" d="M19.217,30.7H23.65V19.85h3.288l.406-4.34H23.82V13.774a.906.906,0,0,1,.24-.748.949.949,0,0,1,.742-.294h2.483V9H23.864a4.259,4.259,0,0,0-4.647,4.55v1.96H17v4.34h2.217Z" transform="translate(-4.672 -2.35)" fill="#fff"/>
  <path id="Path_535" data-name="Path 535" d="M35,17.5A17.5,17.5,0,1,1,17.5,0,17.5,17.5,0,0,1,35,17.5Z" fill="#235b9e"/>
  <path id="Path_536" data-name="Path 536" d="M19.217,30.7H23.65V19.85h3.288l.406-4.34H23.82V13.774a.906.906,0,0,1,.24-.748.949.949,0,0,1,.742-.294h2.483V9H23.864a4.259,4.259,0,0,0-4.647,4.55v1.96H17v4.34h2.217Z" transform="translate(-4.672 -2.35)" fill="#fff"/>
  <path id="Path_537" data-name="Path 537" d="M35,17.5A17.5,17.5,0,1,1,17.5,0,17.5,17.5,0,0,1,35,17.5Z" fill="#fff"/>
  <path id="Path_538" data-name="Path 538" d="M19.217,30.7H23.65V19.85h3.288l.406-4.34H23.82V13.774a.906.906,0,0,1,.24-.748.949.949,0,0,1,.742-.294h2.483V9H23.864a4.259,4.259,0,0,0-4.647,4.55v1.96H17v4.34h2.217Z" transform="translate(-4.672 -2.35)" fill="#e96a97"/>
</svg>
