<svg id="socialgit" xmlns="http://www.w3.org/2000/svg" width="35" height="35" viewBox="0 0 35 35">
  <path id="Path_539" data-name="Path 539" d="M35,17.5A17.5,17.5,0,1,1,17.5,0,17.5,17.5,0,0,1,35,17.5Z" fill="#fff"/>
  <path id="path9-5" d="M13,20a7.555,7.555,0,0,0,.379.875c.9,1.619,2.618,2.625,5.512,2.917a2.5,2.5,0,0,0-.977,1.6,3.208,3.208,0,0,1-2.384.19c-1.137-.357-1.575-2.618-3.281-2.3-.372.073-.3.314,0,.525a3.347,3.347,0,0,1,1.393,1.655,2.793,2.793,0,0,0,2.829,1.918,8.181,8.181,0,0,0,1.3-.095v2.443c0,.685-1.028.992-1.028,1.393,0,.153.357.168.634.168.561,0,1.728-.467,1.728-1.291V26.788a1.225,1.225,0,0,1,.452-1.1s.051,4.463-.109,5.06-.54.605-.54.919c0,.467,1.407.117,1.867-.911.357-.795.2-5.177.2-5.177h.379v2.917c0,.911-.08,2.144.481,2.713.372.372,1.575,1.028,1.575.43,0-.35-.656-.634-.656-1.568V25.723c.525,0,.445,1.422.445,1.422l.036,2.64A1.342,1.342,0,0,0,24.3,31.126c.408.146,1.283.182,1.32-.058s-1.05-.6-1.057-1.342V27.036c0-1.961-.263-2.705-1.189-3.289,2.851-.292,4.623-1,5.476-2.917a2.676,2.676,0,0,0,.314-.882,10.529,10.529,0,0,0,.321-2.552,5.775,5.775,0,0,0-1.553-4.12c.372-2.049-.058-2.982-.255-3.3-.729-.262-2.559.671-3.558,1.327a13.3,13.3,0,0,0-6.336.124c-2.37-1.7-3.646-1.458-3.646-1.458a4.973,4.973,0,0,0-.219,3.58,4.812,4.812,0,0,0-1.364,3.566,8.626,8.626,0,0,0,.408,2.815Z" transform="translate(-3.248 -2.689)" fill="#e96a97"/>
</svg>
