<svg id="social_orword" xmlns="http://www.w3.org/2000/svg" width="35" height="35" viewBox="0 0 35 35">
  <path id="Path_541" data-name="Path 541" d="M35,17.5A17.5,17.5,0,1,1,17.5,0,17.5,17.5,0,0,1,35,17.5Z" fill="#454240"/>
  <path id="Path_542" data-name="Path 542" d="M24.772,10.145a10.208,10.208,0,0,0-4.054-1.1A.37.37,0,0,1,20.506,9H19.369c-.343.044-.693.08-1.035.131A10.8,10.8,0,0,0,10.2,15.008a10.15,10.15,0,0,0-1.152,4.149A.371.371,0,0,1,9,19.369v1.137c.044.335.073.678.131,1.014a10.8,10.8,0,0,0,5.95,8.2,10.208,10.208,0,0,0,4.076,1.108.37.37,0,0,1,.211.044h1.137c.335-.044.678-.073,1.014-.131A10.806,10.806,0,0,0,29.7,24.83a10.106,10.106,0,0,0,1.13-4.112.37.37,0,0,1,.044-.211V19.369c-.044-.335-.073-.678-.131-1.014a10.792,10.792,0,0,0-5.972-8.21ZM15.563,28.768A9.866,9.866,0,0,1,10.9,15.978h.066q2.326,6.373,4.652,12.76Zm1.56.612,2.917-8.524H20.1l3.055,8.371a9.858,9.858,0,0,1-6.008.19ZM24.816,25.9l-3.536-10.58.846-.073a2.187,2.187,0,0,0,.306-.036.379.379,0,0,0,.343-.423.386.386,0,0,0-.437-.357c-.569,0-1.137.095-1.706.095-1.065,0-2.136-.044-3.208-.073h-.306a.379.379,0,0,0-.386.372.35.35,0,0,0,.328.408c.27.036.547.066.824.08a.292.292,0,0,1,.314.226c.459,1.269.933,2.545,1.385,3.814a.518.518,0,0,1,0,.314q-1.028,3.092-2.064,6.191s0,.051-.08.087L13.9,15.322l.846-.073H15c.292-.051.408-.2.386-.459s-.19-.35-.481-.328c-.576,0-1.159.073-1.743.095H11.705a9.589,9.589,0,0,1,5.731-4.1,9.778,9.778,0,0,1,9.151,2.188l-.343.044a1.728,1.728,0,0,0-1.422,1.94,3.456,3.456,0,0,0,.445,1.247c.241.408.489.809.729,1.225a4.754,4.754,0,0,1,.386,3.741c-.489,1.641-.984,3.274-1.458,4.915a.547.547,0,0,1-.087.146Zm4.842-4.579a9.793,9.793,0,0,1-4.725,7.095h-.058c.051-.153.095-.306.146-.452.941-2.7,1.867-5.4,2.807-8.1a13.512,13.512,0,0,0,.678-2.37,9.7,9.7,0,0,0,.073-2.187,9.406,9.406,0,0,1,1.1,6.016Z" transform="translate(-2.437 -2.437)" fill="#fff"/>
  <path id="Path_543" data-name="Path 543" d="M35,17.5A17.5,17.5,0,1,1,17.5,0,17.5,17.5,0,0,1,35,17.5Z" fill="#454240"/>
  <path id="Path_544" data-name="Path 544" d="M24.772,10.145a10.208,10.208,0,0,0-4.054-1.1A.37.37,0,0,1,20.506,9H19.369c-.343.044-.693.08-1.035.131A10.8,10.8,0,0,0,10.2,15.008a10.15,10.15,0,0,0-1.152,4.149A.371.371,0,0,1,9,19.369v1.137c.044.335.073.678.131,1.014a10.8,10.8,0,0,0,5.95,8.2,10.208,10.208,0,0,0,4.076,1.108.37.37,0,0,1,.211.044h1.137c.335-.044.678-.073,1.014-.131A10.806,10.806,0,0,0,29.7,24.83a10.106,10.106,0,0,0,1.13-4.112.37.37,0,0,1,.044-.211V19.369c-.044-.335-.073-.678-.131-1.014a10.792,10.792,0,0,0-5.972-8.21ZM15.563,28.768A9.866,9.866,0,0,1,10.9,15.978h.066q2.326,6.373,4.652,12.76Zm1.56.612,2.917-8.524H20.1l3.055,8.371a9.858,9.858,0,0,1-6.008.19ZM24.816,25.9l-3.536-10.58.846-.073a2.187,2.187,0,0,0,.306-.036.379.379,0,0,0,.343-.423.386.386,0,0,0-.437-.357c-.569,0-1.137.095-1.706.095-1.065,0-2.136-.044-3.208-.073h-.306a.379.379,0,0,0-.386.372.35.35,0,0,0,.328.408c.27.036.547.066.824.08a.292.292,0,0,1,.314.226c.459,1.269.933,2.545,1.385,3.814a.518.518,0,0,1,0,.314q-1.028,3.092-2.064,6.191s0,.051-.08.087L13.9,15.322l.846-.073H15c.292-.051.408-.2.386-.459s-.19-.35-.481-.328c-.576,0-1.159.073-1.743.095H11.705a9.589,9.589,0,0,1,5.731-4.1,9.778,9.778,0,0,1,9.151,2.188l-.343.044a1.728,1.728,0,0,0-1.422,1.94,3.456,3.456,0,0,0,.445,1.247c.241.408.489.809.729,1.225a4.754,4.754,0,0,1,.386,3.741c-.489,1.641-.984,3.274-1.458,4.915a.547.547,0,0,1-.087.146Zm4.842-4.579a9.793,9.793,0,0,1-4.725,7.095h-.058c.051-.153.095-.306.146-.452.941-2.7,1.867-5.4,2.807-8.1a13.512,13.512,0,0,0,.678-2.37,9.7,9.7,0,0,0,.073-2.187,9.406,9.406,0,0,1,1.1,6.016Z" transform="translate(-2.437 -2.437)" fill="#fff"/>
  <path id="Path_545" data-name="Path 545" d="M35,17.5A17.5,17.5,0,1,1,17.5,0,17.5,17.5,0,0,1,35,17.5Z" fill="#fff"/>
  <path id="Path_546" data-name="Path 546" d="M24.772,10.145a10.208,10.208,0,0,0-4.054-1.1A.37.37,0,0,1,20.506,9H19.369c-.343.044-.693.08-1.035.131A10.8,10.8,0,0,0,10.2,15.008a10.15,10.15,0,0,0-1.152,4.149A.371.371,0,0,1,9,19.369v1.137c.044.335.073.678.131,1.014a10.8,10.8,0,0,0,5.95,8.2,10.208,10.208,0,0,0,4.076,1.108.37.37,0,0,1,.211.044h1.137c.335-.044.678-.073,1.014-.131A10.806,10.806,0,0,0,29.7,24.83a10.106,10.106,0,0,0,1.13-4.112.37.37,0,0,1,.044-.211V19.369c-.044-.335-.073-.678-.131-1.014a10.792,10.792,0,0,0-5.972-8.21ZM15.563,28.768A9.866,9.866,0,0,1,10.9,15.978h.066q2.326,6.373,4.652,12.76Zm1.56.612,2.917-8.524H20.1l3.055,8.371a9.858,9.858,0,0,1-6.008.19ZM24.816,25.9l-3.536-10.58.846-.073a2.187,2.187,0,0,0,.306-.036.379.379,0,0,0,.343-.423.386.386,0,0,0-.437-.357c-.569,0-1.137.095-1.706.095-1.065,0-2.136-.044-3.208-.073h-.306a.379.379,0,0,0-.386.372.35.35,0,0,0,.328.408c.27.036.547.066.824.08a.292.292,0,0,1,.314.226c.459,1.269.933,2.545,1.385,3.814a.518.518,0,0,1,0,.314q-1.028,3.092-2.064,6.191s0,.051-.08.087L13.9,15.322l.846-.073H15c.292-.051.408-.2.386-.459s-.19-.35-.481-.328c-.576,0-1.159.073-1.743.095H11.705a9.589,9.589,0,0,1,5.731-4.1,9.778,9.778,0,0,1,9.151,2.188l-.343.044a1.728,1.728,0,0,0-1.422,1.94,3.456,3.456,0,0,0,.445,1.247c.241.408.489.809.729,1.225a4.754,4.754,0,0,1,.386,3.741c-.489,1.641-.984,3.274-1.458,4.915a.547.547,0,0,1-.087.146Zm4.842-4.579a9.793,9.793,0,0,1-4.725,7.095h-.058c.051-.153.095-.306.146-.452.941-2.7,1.867-5.4,2.807-8.1a13.512,13.512,0,0,0,.678-2.37,9.7,9.7,0,0,0,.073-2.187,9.406,9.406,0,0,1,1.1,6.016Z" transform="translate(-2.437 -2.437)" fill="#9bb53e"/>
</svg>
