<svg id="logo" xmlns="http://www.w3.org/2000/svg" width="100.675" height="106" viewBox="0 0 100.675 106">
  <path id="Path_252" data-name="Path 252" d="M109.671,112.408q5.256,3.9,5.263,11.086a15.518,15.518,0,0,1-5.375,12.207q-5.375,4.733-13.882,4.7A20.825,20.825,0,0,1,80.63,134.66v1.183a8.327,8.327,0,0,1,.318,1.644c0,1.943-.978,2.915-2.946,2.915-2.124,0-3.195-1.115-3.195-3.351a.847.847,0,0,1,.243-.623l.361-4.148c.187-2.08.274-3.407.274-3.992a38.364,38.364,0,0,0-.436-4.783,38.615,38.615,0,0,1-.442-4.789s0,0,0-.05v-.093a3.986,3.986,0,0,1,.754-2.553,5.549,5.549,0,0,1,2.335-2.186,5.387,5.387,0,0,1,2.174-.579,5.605,5.605,0,0,1,5.325,3.114,5.667,5.667,0,0,1-1.956,7.181,5.518,5.518,0,0,1-2.286.816A11.69,11.69,0,0,0,84.8,131.54q3.787,3.531,10.307,3.531,6.041,0,9.628-2.871a9.485,9.485,0,0,0,3.581-7.816q0-7.586-9.572-9.255l-4.546-.8a49.212,49.212,0,0,1-10.806-2.908h0a18.179,18.179,0,0,0,7.567-4.247l.062-.056c1.532.411,3.407.8,5.649,1.165Q106.152,109.773,109.671,112.408Z" transform="translate(-28.215 -40.406)" fill="#9bb53d"/>
  <path id="Path_253" data-name="Path 253" d="M124.25,88.872V88.9a4.94,4.94,0,0,1-.037.623,3.9,3.9,0,0,1-.741,2.211,5.584,5.584,0,1,1-5.144-8.358,8.75,8.75,0,0,0-3.064-5.605,12.387,12.387,0,0,0-7.187-2.622.216.216,0,0,0-.05-.162,17.874,17.874,0,0,0-2.367-5.25h.785A16.977,16.977,0,0,1,119.1,74.722V73.57q0-3.114,2.454-3.114,2.684,0,2.684,3.4v.473c0,.106-.081.9-.237,2.373a51.425,51.425,0,0,0-.237,5.3c0,.262.05,1.109.162,2.529l.23,3.164a5.693,5.693,0,0,1,.081,1.1Z" transform="translate(-39.855 -26.306)" fill="#9bb53d"/>
  <path id="Path_254" data-name="Path 254" d="M101.053,78.275a18.354,18.354,0,0,1,.623,4.634,18.161,18.161,0,0,1-5.755,13.278,17.986,17.986,0,0,1-3.288-1.152,7.874,7.874,0,0,1-4.546-7.418,8.476,8.476,0,0,1,3.058-6.863A12.485,12.485,0,0,1,99.4,78.2C99.981,78.2,100.523,78.231,101.053,78.275Z" transform="translate(-33.224 -29.497)" fill="#e86a96"/>
  <path id="Path_255" data-name="Path 255" d="M80.718,9.768c4.465,0,7.754,5.07,4.428,9.772a1.8,1.8,0,0,1-.461.461c-4.6,3.232-9.516.168-9.741-4.135q-1.613,1.439-1.613,5.213V39.164h-.037v.5a19.008,19.008,0,0,0-3.394-.318,17.949,17.949,0,0,0-3.239.3v-.48l-.181.019v-18.1q0-4.634-2.491-5.755v.237c0,4.465-5.063,7.754-9.765,4.434a1.993,1.993,0,0,1-.461-.455c-3.32-4.7,0-9.772,4.434-9.772a5.269,5.269,0,0,1,.542.031c.162,0,.33-.031.511-.031a9.429,9.429,0,0,1,1.158.087l4.36.579a39.136,39.136,0,0,0,5.119.33,43.759,43.759,0,0,0,5.605-.411l3.8-.5a5.281,5.281,0,0,1,1.152-.087h.274Z" transform="translate(-19.771 -3.683)" fill="#9bb53d"/>
  <path id="Path_256" data-name="Path 256" d="M85.506,57a18.248,18.248,0,0,1,11.833,7.829c-5.051.143-9.211,1.582-12.456,4.36l-.193.187a88.3,88.3,0,0,0,.754-11.883h.062Z" transform="translate(-31.945 -21.501)" fill="#e86a96"/>
  <path id="Path_257" data-name="Path 257" d="M75.653,105.117a18.735,18.735,0,0,1-3.313.623c-.511.044-1.034.075-1.557.075A18.235,18.235,0,0,1,54.59,95.98q8.657-.243,14.069-5.53a17.319,17.319,0,0,0-.237,2.771,13.409,13.409,0,0,0,2.037,7.3,12.126,12.126,0,0,0,5.194,4.6Z" transform="translate(-20.592 -34.118)" fill="#e86a96"/>
  <path id="Path_258" data-name="Path 258" d="M85.977,57v.5H85.94V57Z" transform="translate(-32.417 -21.501)" fill="#9bb53d"/>
  <path id="Path_259" data-name="Path 259" d="M75.157,57v.48H74.97v-.467Z" transform="translate(-28.279 -21.501)" fill="#9bb53d"/>
  <path id="Path_260" data-name="Path 260" d="M66.047,57.48h.187a92.488,92.488,0,0,1-.529,9.342Q64.316,77.633,52.277,77.633h-.785A18.1,18.1,0,0,1,66.047,57Z" transform="translate(-19.338 -21.501)" fill="#e86a96"/>
  <path id="Path_261" data-name="Path 261" d="M42.7,82.578c-.274,0-.542.037-.822.037q-8.377,0-13.6-4.36a13.907,13.907,0,0,1-5.225-11.21,12.107,12.107,0,0,1,3.232-8.563A10.513,10.513,0,0,1,34.3,54.995,8.451,8.451,0,0,1,39.9,56.788a5.8,5.8,0,0,1,2.155,4.671,5.157,5.157,0,0,1-1.246,3.469A3.9,3.9,0,0,1,37.777,66.4a3.973,3.973,0,0,1-2.672-1A3.027,3.027,0,0,1,33.9,63.091a2.634,2.634,0,0,1,1.115-2.149,2.6,2.6,0,0,0-1.2-.4,3.747,3.747,0,0,0-3.07,1.868,7.355,7.355,0,0,0-1.314,4.36,9.068,9.068,0,0,0,3.432,7.262,12.855,12.855,0,0,0,7.984,2.84,18.279,18.279,0,0,0,1.85,5.7Z" transform="translate(-8.692 -20.741)" fill="#9bb53d"/>
  <path id="Path_262" data-name="Path 262" d="M50.341,0Q29.626,0,15.464,13.577,0,28.431,0,53.037,0,76.448,14.48,91.377,28.73,106.006,50.341,106q20.179,0,34.434-13.2,15.9-14.779,15.9-39.759,0-24.607-15.377-39.386Q71.117,0,50.341,0ZM81.306,91.806A43.4,43.4,0,0,1,50.39,103.92q-18.485,0-31.14-12.456T6.533,53.044q0-26.083,12.736-38.526T50.409,2.061a43.822,43.822,0,0,1,30.766,12q12.985,12,12.985,38.968Q94.142,79.718,81.306,91.806Z" fill="#9bb53d"/>
</svg>
